<svg width="261" height="262" viewBox="0 0 261 262" fill="none" xmlns="http://www.w3.org/2000/svg">
<circle cx="130.5" cy="131.066" r="130.5" fill="#3EAF49"/>
<g clip-path="url(#clip0_113_163)">
<path d="M107.197 199.401H104.115C103.87 199.401 103.63 199.324 103.43 199.18C103.23 199.036 103.079 198.833 102.998 198.597C102.762 197.909 102.483 197.236 102.162 196.583C102.052 196.357 102.014 196.102 102.054 195.853C102.095 195.604 102.211 195.374 102.387 195.196L104.578 192.969C104.801 192.742 104.926 192.435 104.926 192.115C104.926 191.794 104.801 191.487 104.578 191.261L99.8447 186.451C99.6219 186.224 99.3198 186.097 99.0048 186.097C98.6898 186.097 98.3877 186.224 98.1649 186.451L95.9346 188.719C95.761 188.896 95.5372 189.014 95.2947 189.055C95.0522 189.097 94.8029 189.06 94.5816 188.951C93.9519 188.639 93.3034 188.367 92.64 188.137C92.4062 188.056 92.2033 187.903 92.0597 187.699C91.9162 187.494 91.8392 187.249 91.8396 186.998V183.785C91.8397 183.627 91.809 183.47 91.7493 183.323C91.6897 183.177 91.6023 183.044 91.492 182.932C91.3818 182.819 91.2509 182.731 91.1069 182.67C90.9629 182.609 90.8085 182.578 90.6526 182.578H83.9605C83.8046 182.578 83.6503 182.609 83.5062 182.67C83.3622 182.731 83.2313 182.819 83.1211 182.932C83.0109 183.044 82.9234 183.177 82.8638 183.323C82.8042 183.47 82.7735 183.627 82.7735 183.785V186.998C82.774 187.249 82.6971 187.494 82.5536 187.699C82.4101 187.903 82.2072 188.056 81.9735 188.137C81.31 188.367 80.6615 188.638 80.0318 188.951C79.8106 189.061 79.5613 189.097 79.3187 189.055C79.0762 189.014 78.8525 188.896 78.6788 188.719L76.4482 186.451C76.2254 186.224 75.9233 186.097 75.6084 186.097C75.2934 186.097 74.9913 186.224 74.7685 186.451L70.0352 191.261C69.8125 191.488 69.6874 191.795 69.6874 192.115C69.6874 192.436 69.8125 192.743 70.0352 192.97L72.2261 195.197C72.4021 195.375 72.5186 195.605 72.5589 195.854C72.5992 196.103 72.5614 196.358 72.4507 196.584C72.13 197.236 71.8515 197.909 71.6169 198.598C71.5352 198.833 71.3837 199.037 71.1835 199.181C70.9832 199.325 70.744 199.402 70.4988 199.402H67.4155C67.2596 199.402 67.1053 199.433 66.9612 199.494C66.8172 199.554 66.6863 199.643 66.5761 199.755C66.4659 199.867 66.3784 200 66.3188 200.147C66.2591 200.293 66.2285 200.45 66.2285 200.609V207.415C66.2285 207.574 66.2591 207.731 66.3188 207.877C66.3784 208.023 66.4659 208.157 66.5761 208.269C66.6863 208.381 66.8172 208.47 66.9612 208.53C67.1053 208.591 67.2596 208.622 67.4155 208.622H70.4182C70.6679 208.622 70.9113 208.702 71.1136 208.85C71.316 208.999 71.4669 209.209 71.5448 209.451C71.7765 210.158 72.0536 210.849 72.3743 211.52C72.4832 211.746 72.5201 212.001 72.4798 212.249C72.4396 212.497 72.3242 212.726 72.1497 212.905L70.0358 215.054C69.9255 215.166 69.8381 215.299 69.7784 215.446C69.7187 215.592 69.688 215.749 69.688 215.907C69.688 216.066 69.7187 216.222 69.7784 216.369C69.8381 216.515 69.9255 216.648 70.0358 216.76L74.7691 221.573C74.9919 221.8 75.294 221.927 75.609 221.927C75.9239 221.927 76.226 221.8 76.4488 221.573L78.5213 219.466C78.6979 219.287 78.9255 219.169 79.1717 219.128C79.418 219.088 79.6704 219.128 79.8932 219.242C80.5637 219.582 81.2562 219.876 81.966 220.121C82.2012 220.202 82.4057 220.356 82.5507 220.561C82.6957 220.766 82.774 221.012 82.7744 221.264V224.237C82.7742 224.395 82.8048 224.552 82.8643 224.699C82.9239 224.846 83.0113 224.979 83.1215 225.091C83.2318 225.203 83.3627 225.293 83.5068 225.353C83.6509 225.414 83.8054 225.445 83.9614 225.445H90.6526C90.8087 225.445 90.9631 225.414 91.1073 225.353C91.2514 225.293 91.3823 225.204 91.4926 225.091C91.6028 224.979 91.6902 224.846 91.7498 224.699C91.8093 224.552 91.8399 224.395 91.8396 224.237V221.264C91.8401 221.012 91.9183 220.766 92.0633 220.561C92.2083 220.356 92.4128 220.202 92.6481 220.121C93.3578 219.876 94.0504 219.582 94.7209 219.242C94.9437 219.128 95.1961 219.088 95.4423 219.128C95.6886 219.169 95.9161 219.287 96.0928 219.466L98.1652 221.573C98.388 221.8 98.6901 221.927 99.0051 221.927C99.3201 221.927 99.6222 221.8 99.845 221.573L104.579 216.76C104.689 216.648 104.776 216.515 104.836 216.369C104.895 216.222 104.926 216.066 104.926 215.907C104.926 215.749 104.895 215.592 104.836 215.446C104.776 215.299 104.689 215.166 104.579 215.054L102.464 212.905C102.29 212.726 102.175 212.497 102.134 212.249C102.094 212.001 102.131 211.746 102.24 211.52C102.561 210.849 102.838 210.158 103.069 209.451C103.147 209.209 103.298 208.999 103.5 208.851C103.703 208.702 103.946 208.622 104.196 208.622H107.198C107.354 208.622 107.508 208.591 107.652 208.53C107.796 208.47 107.927 208.381 108.037 208.269C108.147 208.157 108.235 208.023 108.294 207.877C108.354 207.731 108.385 207.574 108.385 207.415V200.609C108.385 200.45 108.354 200.293 108.295 200.147C108.235 200 108.148 199.867 108.037 199.755C107.927 199.642 107.796 199.553 107.652 199.493C107.508 199.432 107.353 199.401 107.197 199.401ZM87.3075 214.069C85.3511 214.069 83.4386 213.479 81.8119 212.374C80.1853 211.269 78.9174 209.698 78.1687 207.86C77.4201 206.022 77.2242 204 77.6058 202.049C77.9875 200.098 78.9296 198.306 80.313 196.899C81.6964 195.492 83.4589 194.534 85.3777 194.146C87.2965 193.758 89.2854 193.957 91.0929 194.719C92.9003 195.48 94.4452 196.769 95.5321 198.423C96.619 200.077 97.1992 202.022 97.1992 204.011C97.1992 206.679 96.157 209.237 94.302 211.123C92.4469 213.01 89.9309 214.069 87.3075 214.069Z" fill="#F4F4F4"/>
<path d="M68.694 158.855H64.4971C64.1635 158.856 63.838 158.751 63.5657 158.555C63.2934 158.359 63.0878 158.082 62.9772 157.762C62.6559 156.824 62.2759 155.908 61.8395 155.019C61.6888 154.712 61.6372 154.364 61.692 154.025C61.7469 153.686 61.9054 153.373 62.145 153.131L65.1282 150.098C65.4312 149.79 65.6014 149.372 65.6014 148.936C65.6014 148.5 65.4312 148.081 65.1282 147.773L58.6838 141.223C58.3805 140.915 57.9692 140.742 57.5404 140.742C57.1116 140.742 56.7004 140.915 56.397 141.223L53.3603 144.311C53.1239 144.552 52.8193 144.713 52.489 144.769C52.1586 144.826 51.8191 144.777 51.5179 144.627C50.6608 144.202 49.778 143.832 48.8748 143.52C48.5565 143.409 48.2803 143.2 48.0848 142.922C47.8894 142.644 47.7846 142.311 47.7852 141.969V137.594C47.7852 137.379 47.7435 137.165 47.6623 136.966C47.5811 136.766 47.462 136.585 47.312 136.432C47.1619 136.28 46.9837 136.159 46.7876 136.076C46.5915 135.994 46.3814 135.951 46.1692 135.951H37.0592C36.8469 135.951 36.6368 135.994 36.4407 136.076C36.2446 136.159 36.0664 136.28 35.9164 136.432C35.7663 136.585 35.6472 136.766 35.566 136.966C35.4848 137.165 35.4431 137.379 35.4431 137.594V141.969C35.4437 142.311 35.3389 142.644 35.1435 142.922C34.9481 143.2 34.6718 143.409 34.3535 143.52C33.4503 143.832 32.5674 144.202 31.7101 144.627C31.4088 144.777 31.0693 144.826 30.7389 144.77C30.4085 144.713 30.1038 144.552 29.8674 144.311L26.8307 141.223C26.5273 140.915 26.1161 140.742 25.6873 140.742C25.2585 140.742 24.8472 140.915 24.5439 141.223L18.0998 147.773C17.7968 148.081 17.6266 148.5 17.6266 148.936C17.6266 149.372 17.7968 149.79 18.0998 150.098L21.0827 153.131C21.3224 153.373 21.4809 153.686 21.5358 154.025C21.5907 154.364 21.5392 154.712 21.3885 155.019C20.9519 155.907 20.5727 156.823 20.2535 157.762C20.142 158.082 19.9358 158.359 19.6631 158.555C19.3904 158.75 19.0648 158.856 18.7309 158.855H14.534C14.3218 158.855 14.1116 158.898 13.9155 158.98C13.7194 159.063 13.5412 159.184 13.3911 159.336C13.2411 159.489 13.122 159.67 13.0408 159.869C12.9596 160.069 12.9179 160.282 12.918 160.498V169.765C12.9179 169.98 12.9596 170.194 13.0407 170.394C13.1219 170.593 13.2409 170.774 13.391 170.927C13.5411 171.079 13.7193 171.201 13.9154 171.283C14.1116 171.366 14.3218 171.408 14.534 171.408H18.6206C18.9605 171.408 19.2917 171.517 19.567 171.719C19.8424 171.922 20.0478 172.208 20.154 172.536C20.4692 173.499 20.8464 174.441 21.2832 175.354C21.4314 175.661 21.4815 176.008 21.4267 176.346C21.3719 176.683 21.2149 176.995 20.9775 177.238L18.0992 180.165C17.9491 180.317 17.8299 180.498 17.7486 180.698C17.6673 180.897 17.6255 181.111 17.6255 181.327C17.6255 181.542 17.6673 181.756 17.7486 181.955C17.8299 182.155 17.9491 182.336 18.0992 182.488L24.5433 189.041C24.8466 189.349 25.2579 189.522 25.6867 189.522C26.1155 189.522 26.5267 189.349 26.8301 189.041L29.6518 186.172C29.8922 185.928 30.202 185.767 30.5373 185.712C30.8725 185.657 31.2163 185.711 31.5198 185.866C32.4325 186.33 33.3753 186.73 34.3415 187.063C34.6618 187.173 34.9402 187.383 35.1376 187.662C35.335 187.941 35.4415 188.276 35.4422 188.62V192.666C35.4419 192.882 35.4835 193.096 35.5645 193.296C35.6456 193.495 35.7646 193.677 35.9147 193.83C36.0648 193.983 36.243 194.104 36.4392 194.187C36.6355 194.269 36.8458 194.312 37.0583 194.312H46.1683C46.3807 194.312 46.591 194.269 46.7873 194.187C46.9835 194.104 47.1617 193.983 47.3118 193.83C47.4619 193.677 47.5809 193.495 47.662 193.296C47.743 193.096 47.7846 192.882 47.7843 192.666V188.62C47.7849 188.276 47.8914 187.941 48.0888 187.662C48.2862 187.382 48.5646 187.173 48.885 187.063C49.8512 186.729 50.794 186.33 51.7067 185.866C52.0102 185.711 52.354 185.657 52.6892 185.712C53.0245 185.767 53.3343 185.928 53.5747 186.172L56.3961 189.041C56.6995 189.349 57.1107 189.522 57.5395 189.522C57.9683 189.522 58.3796 189.349 58.6829 189.041L65.1273 182.488C65.2774 182.336 65.3966 182.155 65.4779 181.955C65.5592 181.756 65.601 181.542 65.601 181.327C65.601 181.111 65.5592 180.897 65.4779 180.698C65.3966 180.498 65.2774 180.317 65.1273 180.165L62.249 177.238C62.0116 176.995 61.8546 176.683 61.7998 176.346C61.745 176.008 61.7951 175.661 61.9433 175.354C62.3799 174.44 62.7572 173.499 63.0726 172.536C63.1787 172.208 63.3841 171.922 63.6595 171.719C63.9348 171.517 64.2661 171.408 64.6059 171.408H68.6925C68.9047 171.408 69.1149 171.366 69.3111 171.283C69.5072 171.201 69.6854 171.079 69.8355 170.927C69.9856 170.774 70.1046 170.593 70.1858 170.394C70.2669 170.194 70.3087 169.98 70.3085 169.765V160.498C70.3086 160.283 70.2669 160.069 70.1858 159.87C70.1047 159.67 69.9858 159.489 69.8359 159.337C69.686 159.184 69.508 159.063 69.312 158.981C69.1161 158.898 68.9061 158.855 68.694 158.855V158.855ZM41.6142 178.824C38.9506 178.824 36.3468 178.021 34.1321 176.516C31.9174 175.012 30.1912 172.873 29.1719 170.371C28.1525 167.869 27.8858 165.115 28.4054 162.459C28.9251 159.802 30.2077 157.362 32.0911 155.447C33.9746 153.532 36.3742 152.228 38.9866 151.7C41.599 151.171 44.3068 151.442 46.7677 152.479C49.2285 153.515 51.3317 155.271 52.8115 157.523C54.2913 159.775 55.0811 162.422 55.081 165.131C55.0809 168.762 53.662 172.245 51.1365 174.813C48.611 177.381 45.1857 178.824 41.6142 178.824V178.824Z" fill="#F4F4F4"/>
<path d="M44.8024 186.727L44.2832 186.785L50.6928 246.344L51.212 246.286L44.8024 186.727Z" fill="#292A2E"/>
<path d="M61.4033 212.729L58.25 244.448L58.7696 244.502L61.9229 212.782L61.4033 212.729Z" fill="#292A2E"/>
<path d="M66.827 240.614H43.4297V248.335H66.827V240.614Z" fill="#292A2E"/>
<path opacity="0.2" d="M66.827 240.614H43.4297V248.335H66.827V240.614Z" fill="white"/>
<path d="M80.9311 226.398C85.3634 220.408 83.2505 211.186 76.2117 205.801C69.173 200.416 59.8738 200.906 55.4415 206.896C51.0091 212.886 53.1221 222.108 60.1608 227.493C67.1996 232.878 76.4987 232.388 80.9311 226.398Z" fill="#0CBC8B"/>
<path opacity="0.2" d="M80.9311 226.398C85.3634 220.408 83.2505 211.186 76.2117 205.801C69.173 200.416 59.8738 200.906 55.4415 206.896C51.0091 212.886 53.1221 222.108 60.1608 227.493C67.1996 232.878 76.4987 232.388 80.9311 226.398Z" fill="white"/>
<path opacity="0.5" d="M80.9315 226.399C80.6338 226.803 80.309 227.186 79.9594 227.544C75.0803 230.713 67.8786 230.215 62.1655 225.843C55.1273 220.459 53.0149 211.238 57.4478 205.248C57.7457 204.845 58.0696 204.462 58.4174 204.102C63.299 200.93 70.4983 201.432 76.2138 205.801C83.2516 211.188 85.3641 220.409 80.9315 226.399Z" fill="white"/>
<path d="M48.2777 203.672C55.2506 198.199 57.1458 188.812 52.5107 182.706C47.8757 176.601 38.4656 176.088 31.4927 181.561C24.5198 187.034 22.6247 196.42 27.2597 202.526C31.8948 208.632 41.3049 209.145 48.2777 203.672Z" fill="#0CBC8B"/>
<path opacity="0.2" d="M46.0679 202.102C40.6678 206.343 33.8049 206.99 28.8302 204.229C28.2545 203.713 27.7287 203.143 27.2598 202.525C22.624 196.421 24.519 187.034 31.4916 181.562C36.8918 177.323 43.7547 176.674 48.727 179.433C49.304 179.949 49.8306 180.52 50.2994 181.139C54.9356 187.243 53.0405 196.63 46.0679 202.102Z" fill="white"/>
<path d="M232.958 147.312H154.49C152.623 147.312 151.109 148.851 151.109 150.75V190.341C151.109 192.239 152.623 193.778 154.49 193.778H232.958C234.825 193.778 236.339 192.239 236.339 190.341V150.75C236.339 148.851 234.825 147.312 232.958 147.312Z" fill="#F4F4F4"/>
<path d="M202.999 173.697H197.559C197.228 173.697 196.959 173.97 196.959 174.307V186.568C196.959 186.905 197.228 187.178 197.559 187.178H202.999C203.33 187.178 203.598 186.905 203.598 186.568V174.307C203.598 173.97 203.33 173.697 202.999 173.697Z" fill="white"/>
<path d="M216.108 160.829H210.668C210.337 160.829 210.068 161.102 210.068 161.439V186.567C210.068 186.904 210.337 187.177 210.668 187.177H216.108C216.439 187.177 216.708 186.904 216.708 186.567V161.439C216.708 161.102 216.439 160.829 216.108 160.829Z" fill="white"/>
<path d="M229.219 170.675H223.78C223.448 170.675 223.18 170.948 223.18 171.285V186.567C223.18 186.904 223.448 187.177 223.78 187.177H229.219C229.551 187.177 229.819 186.904 229.819 186.567V171.285C229.819 170.948 229.551 170.675 229.219 170.675Z" fill="white"/>
<path d="M163.669 173.697H158.229C157.897 173.697 157.629 173.97 157.629 174.307V186.568C157.629 186.905 157.897 187.178 158.229 187.178H163.669C164 187.178 164.268 186.905 164.268 186.568V174.307C164.268 173.97 164 173.697 163.669 173.697Z" fill="white"/>
<path d="M176.778 160.829H171.338C171.007 160.829 170.738 161.102 170.738 161.439V186.567C170.738 186.904 171.007 187.177 171.338 187.177H176.778C177.109 187.177 177.378 186.904 177.378 186.567V161.439C177.378 161.102 177.109 160.829 176.778 160.829Z" fill="white"/>
<path d="M189.887 170.675H184.447C184.116 170.675 183.848 170.948 183.848 171.285V186.567C183.848 186.904 184.116 187.177 184.447 187.177H189.887C190.219 187.177 190.487 186.904 190.487 186.567V171.285C190.487 170.948 190.219 170.675 189.887 170.675Z" fill="white"/>
<path d="M199.994 27.9393C199.994 27.9393 196.883 25.2007 196.454 19.355C196.121 14.8304 199.996 18.0098 199.996 18.0098C199.996 18.0098 199.787 14.7484 202.081 15.2278C204.375 15.7072 205.449 19.1905 205.449 19.1905" fill="#0C0C0C"/>
<path d="M214.027 16.4219C214.027 16.4219 225.437 18.4577 220.239 34.0096H217.144" fill="#0C0C0C"/>
<path d="M221.567 234.684C221.567 234.684 220.209 241.837 213.621 242.238C207.032 242.638 208.461 247.973 208.461 247.973H233.638V235.183L221.567 234.684Z" fill="#2A2CA8"/>
<path d="M235.346 104.162C235.346 104.162 235.267 102.012 235.283 106.891C235.346 125.09 234.749 239.25 234.749 239.25L218.205 239.108L208.184 103.423L235.346 104.162Z" fill="#262626"/>
<path d="M193.316 234.684C193.316 234.684 191.959 241.837 185.37 242.238C178.782 242.638 180.211 247.973 180.211 247.973H205.388V235.183L193.316 234.684Z" fill="#2A2CA8"/>
<path d="M190.117 105.576C190.117 105.576 188.051 167.776 188.266 170.816L190.209 238.778L206.48 239.083L209.103 168.357C209.103 168.357 210.823 148.848 215.459 130.731C217.831 121.433 219.258 111.913 219.719 102.318V102.318L190.117 105.576Z" fill="#262626"/>
<path d="M211.582 149.676L210.226 128.579C210.226 128.579 208.832 137.35 208.832 144.91C208.832 148.605 209.58 163.235 209.58 163.235L211.582 149.676Z" fill="#0A0A0A"/>
<path d="M201.178 50.1772C201.229 50.1704 201.79 59.6517 212.623 58.8251C220.122 58.254 222.796 50.1637 222.967 50.1637C222.159 49.9892 221.16 49.7238 220.763 49.633C219.897 49.4287 219.113 48.9614 218.516 48.2931C217.918 47.6248 217.534 46.7873 217.416 45.8919C217.197 44.5467 217.569 37.6723 217.454 36.3125L205.943 38.9252C206.104 41.7968 207.229 48.4544 203.284 49.6327C202.627 49.8277 201.92 50.0069 201.178 50.1772Z" fill="#E98862"/>
<path opacity="0.52" d="M205.781 46.9124C205.962 46.3214 206.078 45.7122 206.128 45.0955C206.254 43.6886 206.229 42.2718 206.052 40.8705C208.392 40.5493 210.596 39.5673 212.414 38.0361C212.628 38.839 213.804 42.3468 213.478 43.1089C212.863 44.551 209.972 46.9124 205.781 46.9124Z" fill="#0C0C0C"/>
<path d="M207.825 44.6216C212.383 44.5171 217.998 41.9753 218.489 35.7267L218.931 30.0883C219.422 23.8394 216.591 18.512 210.805 18.043C205.019 17.5734 200.297 22.2882 199.806 28.5371L199.61 31.0333C199.558 31.8915 199.563 32.7524 199.625 33.6099C199.776 35.8777 200.009 39.3269 201.357 41.7399C202.63 44.0181 204.913 44.6883 207.825 44.6216Z" fill="#E98862"/>
<path opacity="0.52" d="M206.1 38.7614C205.162 38.7407 204.242 38.4962 203.414 38.0475C203.379 38.0296 203.353 37.9984 203.341 37.9609C203.329 37.9233 203.332 37.8825 203.35 37.8473C203.368 37.8121 203.398 37.7854 203.435 37.7732C203.472 37.761 203.512 37.7642 203.547 37.7821C205.333 38.7048 207.011 38.7018 208.398 37.7736C208.426 37.7538 208.455 37.7356 208.485 37.7192C208.52 37.7019 208.56 37.6994 208.597 37.7122C208.634 37.7251 208.664 37.7523 208.681 37.7878C208.698 37.8233 208.701 37.8642 208.688 37.9016C208.675 37.939 208.649 37.9697 208.614 37.987C208.602 37.9931 208.584 38.0056 208.559 38.0224C207.83 38.5121 206.974 38.7694 206.1 38.7614V38.7614Z" fill="#0C0C0C"/>
<path opacity="0.52" d="M206.049 40.1739C205.879 40.173 205.71 40.1573 205.543 40.1271C205.524 40.1237 205.506 40.1166 205.49 40.1061C205.474 40.0956 205.46 40.082 205.448 40.066C205.437 40.0499 205.43 40.0319 205.425 40.0128C205.421 39.9937 205.421 39.9739 205.424 39.9547C205.427 39.9354 205.434 39.917 205.445 39.9005C205.455 39.8839 205.468 39.8697 205.484 39.8584C205.5 39.8472 205.518 39.8392 205.536 39.8349C205.555 39.8307 205.575 39.8302 205.594 39.8336C206.598 40.0121 207.113 39.5734 207.134 39.5545C207.163 39.5285 207.202 39.5153 207.24 39.5179C207.279 39.5205 207.315 39.5387 207.341 39.5684C207.367 39.5981 207.379 39.6369 207.377 39.6764C207.374 39.7158 207.356 39.7525 207.327 39.7786C206.959 40.0566 206.507 40.1963 206.049 40.1739V40.1739Z" fill="#0C0C0C"/>
<path d="M201.524 32.369C201.918 32.369 202.239 32.0436 202.239 31.642C202.239 31.2405 201.918 30.915 201.524 30.915C201.129 30.915 200.809 31.2405 200.809 31.642C200.809 32.0436 201.129 32.369 201.524 32.369Z" fill="#0C0C0C"/>
<path d="M208.75 32.4149C209.145 32.4149 209.465 32.0894 209.465 31.6879C209.465 31.2864 209.145 30.9609 208.75 30.9609C208.355 30.9609 208.035 31.2864 208.035 31.6879C208.035 32.0894 208.355 32.4149 208.75 32.4149Z" fill="#0C0C0C"/>
<path d="M217.981 37.6008C219.739 37.7436 221.315 35.9466 221.455 34.1584C221.595 32.3703 220.247 31.2687 218.489 31.126L217.489 32.2507L216.469 37.4785L217.981 37.6008Z" fill="#E98862"/>
<path d="M187.72 71.0506C188.061 75.1264 189.721 100.556 190.049 105.576H235.26C235.516 101.048 236.662 81.2482 237.631 72.3936C238.555 63.9441 240.369 59.7139 239.04 57.2159C236.867 53.1333 230.93 50.7741 226.882 50.2167C224.41 49.8768 220.692 49.6328 220.692 49.6328C220.692 49.6328 220.378 56.1079 212.871 56.4684C202.653 56.9575 203.336 49.6328 203.285 49.6328C201.63 49.6328 192.173 50.6982 189.86 52.0926C183.555 55.8887 186.996 62.4131 187.72 71.0506Z" fill="#2A2CA8"/>
<path d="M216.419 34.6066C216.419 34.6066 216.408 25.7166 213.805 24.9902C212.071 24.5065 207.642 26.7511 203.745 25.7166C202.039 25.2638 200.371 25.587 200.15 26.4051C200.062 26.7291 199.297 21.9354 202.238 18.5374C204.579 15.8321 211.679 15.5068 214.824 16.6606C223.531 19.855 218.826 31.5411 218.826 31.5411L218.229 34.5653L216.419 34.6066Z" fill="#0C0C0C"/>
<g opacity="0.52">
<path opacity="0.52" d="M205.176 36.6013H205.165C204.598 36.557 203.652 36.4179 203.684 35.9868C203.712 35.6298 204.966 31.8492 205.109 31.4194C205.121 31.3824 205.147 31.3519 205.182 31.3346C205.216 31.3173 205.256 31.3146 205.292 31.3271C205.329 31.3396 205.359 31.3662 205.376 31.4012C205.393 31.4362 205.395 31.4766 205.383 31.5136C204.826 33.188 203.992 35.7667 203.973 36.0095C204.021 36.1159 204.6 36.2617 205.187 36.3079C205.224 36.3112 205.258 36.3289 205.283 36.3573C205.307 36.3856 205.32 36.4224 205.319 36.4601C205.317 36.4978 205.302 36.5336 205.275 36.56C205.249 36.5864 205.213 36.6014 205.176 36.602V36.6013Z" fill="#0C0C0C"/>
</g>
<path d="M203.531 28.4941C203.074 28.3019 202.575 28.2359 202.085 28.3027C201.835 28.3346 201.592 28.4048 201.363 28.5109C201.129 28.6179 200.909 28.7543 200.708 28.9169L200.693 28.9291C200.641 28.9699 200.576 28.9884 200.511 28.9808C200.446 28.9732 200.386 28.94 200.345 28.8884C200.304 28.8367 200.284 28.7707 200.29 28.7045C200.296 28.6383 200.328 28.5772 200.377 28.5341C200.6 28.3241 200.847 28.1434 201.114 27.9964C201.384 27.846 201.675 27.7377 201.978 27.6751C202.28 27.6092 202.59 27.5857 202.899 27.6054C203.217 27.6223 203.531 27.6853 203.831 27.7925C203.925 27.8267 204.001 27.8972 204.043 27.9884C204.086 28.0796 204.091 28.1843 204.058 28.2795C204.025 28.3748 203.957 28.4529 203.867 28.497C203.778 28.541 203.675 28.5473 203.581 28.5146C203.572 28.5112 203.563 28.5078 203.555 28.5039L203.531 28.4941Z" fill="#0C0C0C"/>
<path d="M207.73 27.8533C208.326 27.6446 208.967 27.6042 209.584 27.7362C209.886 27.7988 210.177 27.9071 210.447 28.0575C210.714 28.2045 210.962 28.3853 211.184 28.5956C211.233 28.6387 211.264 28.6997 211.269 28.7654C211.275 28.8312 211.256 28.8967 211.215 28.948C211.174 28.9993 211.115 29.0325 211.051 29.0405C210.986 29.0485 210.921 29.0307 210.869 28.9909L210.853 28.978C210.652 28.8153 210.432 28.6789 210.198 28.572C209.969 28.4658 209.726 28.3955 209.477 28.3635C208.986 28.2967 208.487 28.3627 208.03 28.5549L208.009 28.5644C207.917 28.606 207.813 28.609 207.72 28.5727C207.626 28.5364 207.55 28.4637 207.51 28.3707C207.469 28.2777 207.466 28.172 207.501 28.0768C207.537 27.9816 207.609 27.9047 207.7 27.8631C207.71 27.8603 207.72 27.8563 207.73 27.8533Z" fill="#0C0C0C"/>
<path d="M208.34 18.9942C208.869 17.0718 208.256 15.2171 206.972 14.8516C205.688 14.4861 204.218 15.7482 203.688 17.6706C203.159 19.593 203.772 21.4477 205.056 21.8132C206.34 22.1786 207.81 20.9165 208.34 18.9942Z" fill="#0C0C0C"/>
<path d="M85.4618 26.667H15.69C13.6521 26.667 12 28.3469 12 30.4191V64.9767C12 67.0489 13.6521 68.7288 15.69 68.7288H85.4618C87.4997 68.7288 89.1517 67.0489 89.1517 64.9767V30.4191C89.1517 28.3469 87.4997 26.667 85.4618 26.667Z" fill="#F4F4F4"/>
<path d="M58.9714 50.5508H54.0466C53.7469 50.5508 53.5039 50.7978 53.5039 51.1026V62.2017C53.5039 62.5065 53.7469 62.7536 54.0466 62.7536H58.9714C59.2711 62.7536 59.5141 62.5065 59.5141 62.2017V51.1026C59.5141 50.7978 59.2711 50.5508 58.9714 50.5508Z" fill="white"/>
<path d="M70.8386 38.9023H65.9138C65.6141 38.9023 65.3711 39.1494 65.3711 39.4542V62.2015C65.3711 62.5063 65.6141 62.7533 65.9138 62.7533H70.8386C71.1383 62.7533 71.3813 62.5063 71.3813 62.2015V39.4542C71.3813 39.1494 71.1383 38.9023 70.8386 38.9023Z" fill="white"/>
<path d="M82.7058 47.8154H77.781C77.4813 47.8154 77.2383 48.0625 77.2383 48.3673V62.2017C77.2383 62.5064 77.4813 62.7535 77.781 62.7535H82.7058C83.0055 62.7535 83.2485 62.5064 83.2485 62.2017V48.3673C83.2485 48.0625 83.0055 47.8154 82.7058 47.8154Z" fill="white"/>
<path d="M23.3698 50.5508H18.445C18.1453 50.5508 17.9023 50.7978 17.9023 51.1026V62.2017C17.9023 62.5065 18.1453 62.7536 18.445 62.7536H23.3698C23.6696 62.7536 23.9125 62.5065 23.9125 62.2017V51.1026C23.9125 50.7978 23.6696 50.5508 23.3698 50.5508Z" fill="white"/>
<path d="M35.237 38.9023H30.3122C30.0125 38.9023 29.7695 39.1494 29.7695 39.4542V62.2015C29.7695 62.5063 30.0125 62.7533 30.3122 62.7533H35.237C35.5368 62.7533 35.7797 62.5063 35.7797 62.2015V39.4542C35.7797 39.1494 35.5368 38.9023 35.237 38.9023Z" fill="white"/>
<path d="M47.1042 47.8154H42.1794C41.8797 47.8154 41.6367 48.0625 41.6367 48.3673V62.2017C41.6367 62.5064 41.8797 62.7535 42.1794 62.7535H47.1042C47.4039 62.7535 47.6469 62.5064 47.6469 62.2017V48.3673C47.6469 48.0625 47.4039 47.8154 47.1042 47.8154Z" fill="white"/>
<path d="M177.982 11.873H51.5098C48.8099 11.873 46.6211 14.0986 46.6211 16.844V168.258C46.6211 171.003 48.8099 173.229 51.5098 173.229H177.982C180.682 173.229 182.871 171.003 182.871 168.258V16.844C182.871 14.0986 180.682 11.873 177.982 11.873Z" fill="white"/>
<path d="M177.982 173.535H51.5097C50.1339 173.533 48.8149 172.977 47.842 171.987C46.8692 170.998 46.3219 169.657 46.3203 168.258V16.8441C46.3219 15.4451 46.8692 14.1039 47.842 13.1147C48.8149 12.1255 50.1339 11.569 51.5097 11.5674H177.982C179.358 11.569 180.677 12.1255 181.65 13.1147C182.623 14.1039 183.17 15.4451 183.172 16.8441V168.258C183.17 169.657 182.623 170.998 181.65 171.987C180.677 172.977 179.358 173.533 177.982 173.535V173.535ZM51.5097 12.1788C50.2933 12.1803 49.1271 12.6723 48.267 13.5469C47.4069 14.4215 46.9231 15.6072 46.9216 16.8441V168.258C46.9231 169.495 47.4069 170.681 48.267 171.555C49.1271 172.43 50.2933 172.922 51.5097 172.923H177.982C179.199 172.922 180.365 172.43 181.225 171.555C182.085 170.681 182.569 169.495 182.57 168.258V16.8441C182.569 15.6072 182.085 14.4215 181.225 13.5469C180.365 12.6723 179.199 12.1803 177.982 12.1788H51.5097Z" fill="#292A2E"/>
<path d="M129.065 36.2859C130.684 36.2859 131.996 34.9517 131.996 33.306C131.996 31.6603 130.684 30.3262 129.065 30.3262C127.447 30.3262 126.135 31.6603 126.135 33.306C126.135 34.9517 127.447 36.2859 129.065 36.2859Z" fill="#2A2CA8"/>
<path d="M129.065 36.2859C130.684 36.2859 131.996 34.9517 131.996 33.306C131.996 31.6603 130.684 30.3262 129.065 30.3262C127.447 30.3262 126.135 31.6603 126.135 33.306C126.135 34.9517 127.447 36.2859 129.065 36.2859Z" fill="#2A2CA8"/>
<path d="M129.065 51.4743C130.684 51.4743 131.996 50.1402 131.996 48.4945C131.996 46.8488 130.684 45.5146 129.065 45.5146C127.447 45.5146 126.135 46.8488 126.135 48.4945C126.135 50.1402 127.447 51.4743 129.065 51.4743Z" fill="#292A2E"/>
<path opacity="0.5" d="M129.065 66.6638C130.684 66.6638 131.996 65.3297 131.996 63.6839C131.996 62.0382 130.684 60.7041 129.065 60.7041C127.447 60.7041 126.135 62.0382 126.135 63.6839C126.135 65.3297 127.447 66.6638 129.065 66.6638Z" fill="#2A2CA8"/>
<path opacity="0.2" d="M129.065 81.8532C130.684 81.8532 131.996 80.5191 131.996 78.8734C131.996 77.2277 130.684 75.8936 129.065 75.8936C127.447 75.8936 126.135 77.2277 126.135 78.8734C126.135 80.5191 127.447 81.8532 129.065 81.8532Z" fill="#2A2CA8"/>
<path d="M70.894 56.0898C70.895 59.7219 72.0034 63.2644 74.0666 66.2293C76.1298 69.1943 79.0463 71.4359 82.4144 72.6454L77.6772 84.3899C71.1623 81.8933 65.7153 77.1516 62.2853 70.991C58.8553 64.8304 57.6597 57.6413 58.9068 50.6765C60.1539 43.7116 63.7647 37.4124 69.11 32.8764C74.4553 28.3404 81.1963 25.8551 88.1585 25.8535V38.5351C83.5797 38.5351 79.1885 40.3846 75.9508 43.6767C72.7131 46.9688 70.8941 51.4339 70.894 56.0898Z" fill="#292A2E"/>
<path d="M117.894 56.0898H105.423C105.423 51.4339 103.604 46.9688 100.366 43.6767C97.1282 40.3846 92.737 38.5351 88.1582 38.5351V25.8535C96.0445 25.854 103.608 29.0397 109.184 34.71C114.761 40.3803 117.894 48.0707 117.894 56.0898V56.0898Z" fill="#2A2CA8"/>
<path opacity="0.5" d="M117.894 56.0898C117.894 62.941 115.606 69.5889 111.405 74.9455C107.204 80.3021 101.34 84.05 94.7712 85.5759L92.6582 73.0414C96.3219 72.0347 99.5576 69.829 101.865 66.7652C104.172 63.7014 105.423 59.9501 105.424 56.0911L117.894 56.0898Z" fill="#2A2CA8"/>
<path opacity="0.2" d="M94.7728 85.5759C89.0835 86.8862 83.1415 86.4744 77.6797 84.3912L82.4166 72.6455C85.7141 73.8221 89.2841 73.9597 92.6598 73.0402L94.7728 85.5759Z" fill="#2A2CA8"/>
<path d="M169.831 33.5221H135.886C135.83 33.5221 135.776 33.4994 135.736 33.4588C135.696 33.4183 135.674 33.3633 135.674 33.306C135.674 33.2487 135.696 33.1937 135.736 33.1531C135.776 33.1126 135.83 33.0898 135.886 33.0898H169.831C169.887 33.0898 169.941 33.1126 169.981 33.1531C170.021 33.1937 170.043 33.2487 170.043 33.306C170.043 33.3633 170.021 33.4183 169.981 33.4588C169.941 33.4994 169.887 33.5221 169.831 33.5221V33.5221Z" fill="#2A2CA8"/>
<path d="M169.831 48.7126H135.886C135.83 48.7126 135.776 48.6898 135.736 48.6492C135.696 48.6087 135.674 48.5537 135.674 48.4964C135.674 48.4391 135.696 48.3841 135.736 48.3436C135.776 48.303 135.83 48.2803 135.886 48.2803H169.831C169.887 48.2803 169.941 48.303 169.981 48.3436C170.021 48.3841 170.043 48.4391 170.043 48.4964C170.043 48.5537 170.021 48.6087 169.981 48.6492C169.941 48.6898 169.887 48.7126 169.831 48.7126V48.7126Z" fill="#292A2E"/>
<g opacity="0.5">
<path opacity="0.5" d="M169.831 63.9009H135.886C135.831 63.8988 135.779 63.8751 135.741 63.8348C135.703 63.7946 135.682 63.7408 135.682 63.6849C135.682 63.629 135.703 63.5752 135.741 63.535C135.779 63.4947 135.831 63.471 135.886 63.4689H169.831C169.859 63.4678 169.888 63.4726 169.914 63.4829C169.941 63.4933 169.966 63.509 169.986 63.5292C170.007 63.5494 170.023 63.5736 170.034 63.6003C170.045 63.6271 170.051 63.6558 170.051 63.6849C170.051 63.714 170.045 63.7427 170.034 63.7695C170.023 63.7962 170.007 63.8204 169.986 63.8406C169.966 63.8608 169.941 63.8765 169.914 63.8868C169.888 63.8972 169.859 63.902 169.831 63.9009V63.9009Z" fill="#2A2CA8"/>
</g>
<g opacity="0.2">
<path opacity="0.2" d="M169.831 79.0894H135.886C135.831 79.0873 135.779 79.0636 135.741 79.0233C135.703 78.983 135.682 78.9293 135.682 78.8734C135.682 78.8175 135.703 78.7637 135.741 78.7234C135.779 78.6832 135.831 78.6595 135.886 78.6574H169.831C169.859 78.6563 169.888 78.6611 169.914 78.6714C169.941 78.6818 169.966 78.6975 169.986 78.7177C170.007 78.7379 170.023 78.762 170.034 78.7888C170.045 78.8155 170.051 78.8443 170.051 78.8734C170.051 78.9024 170.045 78.9312 170.034 78.958C170.023 78.9847 170.007 79.0089 169.986 79.029C169.966 79.0492 169.941 79.0649 169.914 79.0753C169.888 79.0857 169.859 79.0904 169.831 79.0894Z" fill="#2A2CA8"/>
</g>
<g opacity="0.1">
<path opacity="0.1" d="M169.977 161.642H59.513C58.5526 161.641 57.6318 161.253 56.9527 160.562C56.2736 159.872 55.8917 158.935 55.8906 157.959V101.051C55.8917 100.075 56.2737 99.1387 56.9528 98.4482C57.6319 97.7577 58.5526 97.3693 59.513 97.3682H169.977C170.938 97.3692 171.858 97.7576 172.537 98.4481C173.217 99.1387 173.599 100.075 173.6 101.051V157.959C173.599 158.935 173.217 159.872 172.537 160.562C171.858 161.253 170.938 161.641 169.977 161.642Z" fill="#2A2CA8"/>
</g>
<path opacity="0.5" d="M70.9475 110.277H68.7969C68.4733 110.277 68.2109 110.544 68.2109 110.873V152.647C68.2109 152.976 68.4733 153.243 68.7969 153.243H70.9475C71.2712 153.243 71.5335 152.976 71.5335 152.647V110.873C71.5335 110.544 71.2712 110.277 70.9475 110.277Z" fill="#2A2CA8"/>
<path d="M67.6253 123.772H65.4747C65.151 123.772 64.8887 124.039 64.8887 124.368V152.648C64.8887 152.977 65.151 153.243 65.4747 153.243H67.6253C67.9489 153.243 68.2113 152.977 68.2113 152.648V124.368C68.2113 124.039 67.9489 123.772 67.6253 123.772Z" fill="#2A2CA8"/>
<path opacity="0.5" d="M97.5393 147.807H95.3887C95.0651 147.807 94.8027 148.073 94.8027 148.402V152.647C94.8027 152.976 95.0651 153.243 95.3887 153.243H97.5393C97.863 153.243 98.1253 152.976 98.1253 152.647V148.402C98.1253 148.073 97.863 147.807 97.5393 147.807Z" fill="#2A2CA8"/>
<path d="M94.2171 121.346H92.0665C91.7428 121.346 91.4805 121.612 91.4805 121.942V152.647C91.4805 152.976 91.7428 153.243 92.0665 153.243H94.2171C94.5407 153.243 94.8031 152.976 94.8031 152.647V121.942C94.8031 121.612 94.5407 121.346 94.2171 121.346Z" fill="#2A2CA8"/>
<path opacity="0.5" d="M84.2444 127.525H82.0938C81.7702 127.525 81.5078 127.792 81.5078 128.121V152.647C81.5078 152.976 81.7702 153.243 82.0938 153.243H84.2444C84.5681 153.243 84.8304 152.976 84.8304 152.647V128.121C84.8304 127.792 84.5681 127.525 84.2444 127.525Z" fill="#2A2CA8"/>
<path d="M80.9202 136.411H78.7696C78.446 136.411 78.1836 136.678 78.1836 137.007V152.647C78.1836 152.976 78.446 153.243 78.7696 153.243H80.9202C81.2438 153.243 81.5062 152.976 81.5062 152.647V137.007C81.5062 136.678 81.2438 136.411 80.9202 136.411Z" fill="#2A2CA8"/>
<path opacity="0.5" d="M137.424 118.587H135.273C134.95 118.587 134.688 118.854 134.688 119.183V152.647C134.688 152.976 134.95 153.243 135.273 153.243H137.424C137.748 153.243 138.01 152.976 138.01 152.647V119.183C138.01 118.854 137.748 118.587 137.424 118.587Z" fill="#2A2CA8"/>
<path d="M134.102 131.346H131.951C131.628 131.346 131.365 131.612 131.365 131.942V152.647C131.365 152.976 131.628 153.243 131.951 153.243H134.102C134.425 153.243 134.688 152.976 134.688 152.647V131.942C134.688 131.612 134.425 131.346 134.102 131.346Z" fill="#2A2CA8"/>
<path opacity="0.5" d="M110.834 123.992H108.684C108.36 123.992 108.098 124.259 108.098 124.588V152.646C108.098 152.975 108.36 153.242 108.684 153.242H110.834C111.158 153.242 111.42 152.975 111.42 152.646V124.588C111.42 124.259 111.158 123.992 110.834 123.992Z" fill="#2A2CA8"/>
<path d="M107.512 127.304H105.361C105.038 127.304 104.775 127.57 104.775 127.9V152.646C104.775 152.975 105.038 153.242 105.361 153.242H107.512C107.836 153.242 108.098 152.975 108.098 152.646V127.9C108.098 127.57 107.836 127.304 107.512 127.304Z" fill="#2A2CA8"/>
<path opacity="0.5" d="M124.129 110.277H121.979C121.655 110.277 121.393 110.544 121.393 110.873V152.647C121.393 152.976 121.655 153.243 121.979 153.243H124.129C124.453 153.243 124.715 152.976 124.715 152.647V110.873C124.715 110.544 124.453 110.277 124.129 110.277Z" fill="#2A2CA8"/>
<path d="M120.807 112.347H118.656C118.333 112.347 118.07 112.613 118.07 112.943V152.647C118.07 152.976 118.333 153.242 118.656 153.242H120.807C121.131 153.242 121.393 152.976 121.393 152.647V112.943C121.393 112.613 121.131 112.347 120.807 112.347Z" fill="#2A2CA8"/>
<path opacity="0.5" d="M150.719 110.277H148.568C148.245 110.277 147.982 110.544 147.982 110.873V152.647C147.982 152.976 148.245 153.243 148.568 153.243H150.719C151.043 153.243 151.305 152.976 151.305 152.647V110.873C151.305 110.544 151.043 110.277 150.719 110.277Z" fill="#2A2CA8"/>
<path d="M147.397 123.772H145.246C144.923 123.772 144.66 124.039 144.66 124.368V152.648C144.66 152.977 144.923 153.243 145.246 153.243H147.397C147.72 153.243 147.983 152.977 147.983 152.648V124.368C147.983 124.039 147.72 123.772 147.397 123.772Z" fill="#2A2CA8"/>
<path opacity="0.5" d="M164.016 127.525H161.865C161.542 127.525 161.279 127.792 161.279 128.121V152.647C161.279 152.976 161.542 153.243 161.865 153.243H164.016C164.34 153.243 164.602 152.976 164.602 152.647V128.121C164.602 127.792 164.34 127.525 164.016 127.525Z" fill="#2A2CA8"/>
<path d="M160.694 136.411H158.543C158.219 136.411 157.957 136.678 157.957 137.007V152.647C157.957 152.976 158.219 153.243 158.543 153.243H160.694C161.017 153.243 161.28 152.976 161.28 152.647V137.007C161.28 136.678 161.017 136.411 160.694 136.411Z" fill="#2A2CA8"/>
<path d="M177.794 102.107C176.457 102.105 175.143 101.747 173.983 101.07C172.824 100.392 171.859 99.4172 171.184 98.2428C170.509 97.0684 170.148 95.7351 170.137 94.375C170.126 93.015 170.464 91.6756 171.12 90.4899L189.394 57.4385C189.885 56.5413 190.545 55.7515 191.337 55.1145C192.129 54.4775 193.037 54.0058 194.008 53.7265C194.98 53.4473 195.996 53.3659 196.999 53.4872C198.002 53.6084 198.971 53.9298 199.851 54.433C200.731 54.9362 201.505 55.6112 202.128 56.4193C202.751 57.2274 203.211 58.1526 203.481 59.1419C203.751 60.1311 203.827 61.1649 203.703 62.1839C203.579 63.2029 203.259 64.187 202.76 65.0797L184.485 98.131C183.818 99.3386 182.847 100.344 181.67 101.042C180.494 101.741 179.156 102.109 177.794 102.107Z" fill="#2A2CA8"/>
<path d="M189.019 89.9289L188.746 84.293" stroke="#0C0C0C" stroke-width="0.75" stroke-linecap="round" stroke-linejoin="round"/>
<path d="M211.178 74.9925L206.449 69.3645C206.348 69.2435 206.223 69.1449 206.082 69.0746C205.942 69.0043 205.789 68.9638 205.633 68.9557C205.476 68.9475 205.32 68.9717 205.173 69.027C205.027 69.0823 204.893 69.1673 204.779 69.277C204.567 69.4971 204.445 69.7909 204.438 70.0989C204.431 70.407 204.539 70.7063 204.74 70.9365L205.751 72.1392L210.806 76.0432L211.178 74.9925Z" fill="#E98862"/>
<path d="M203.761 76.476L188.83 77.4219C188.231 77.4599 187.639 77.2707 187.169 76.8909C186.699 76.511 186.384 75.9675 186.285 75.3653L182.596 52.9613C182.54 52.6202 182.555 52.271 182.64 51.9362C182.725 51.6015 182.878 51.2886 183.089 51.0178C183.301 50.7471 183.566 50.5246 183.868 50.3646C184.169 50.2047 184.5 50.1109 184.84 50.0893L199.77 49.1434C200.369 49.1055 200.961 49.2948 201.431 49.6746C201.902 50.0545 202.217 50.5981 202.316 51.2003L206.004 73.604C206.06 73.945 206.045 74.2941 205.96 74.6289C205.875 74.9636 205.722 75.2764 205.51 75.5471C205.299 75.8179 205.034 76.0404 204.732 76.2004C204.431 76.3604 204.1 76.4543 203.761 76.476Z" fill="#292A2E"/>
<path d="M205.751 72.1394L200.851 69.8324C200.309 69.5664 199.479 69.5915 199.225 70.2277C199.112 70.466 199.082 70.7362 199.139 70.9943C199.197 71.2523 199.338 71.483 199.541 71.6487C199.537 71.6535 199.534 71.6588 199.531 71.6643C199.529 71.6687 199.528 71.6732 199.528 71.6777L198.694 71.2672C198.54 71.1916 198.372 71.1517 198.201 71.1502C198.031 71.1488 197.862 71.1859 197.707 71.2588C197.552 71.3318 197.416 71.4388 197.306 71.5721C197.197 71.7054 197.118 71.8616 197.076 72.0296C197.013 72.2988 197.044 72.5816 197.163 72.8303C197.282 73.079 197.482 73.2783 197.728 73.3944L198.084 73.5692C198.083 73.5823 198.085 73.5954 198.09 73.6078C197.826 73.5467 197.549 73.5821 197.308 73.7079C197.067 73.8336 196.878 74.0416 196.773 74.2953C196.666 74.5834 196.67 74.9023 196.785 75.1874C196.9 75.4725 197.117 75.7027 197.392 75.8312L198.264 76.2593C198.247 76.2621 198.231 76.269 198.218 76.2792C198.204 76.2895 198.193 76.3029 198.186 76.3183C198.177 76.3381 198.175 76.36 198.179 76.3812C197.934 76.3925 197.699 76.4833 197.508 76.6404C197.317 76.7976 197.181 77.0127 197.119 77.2544C197.056 77.5235 197.087 77.8064 197.206 78.0552C197.325 78.304 197.525 78.5033 197.771 78.6194L205.205 82.2801C206.245 82.7921 207.412 82.9766 208.556 82.81C209.7 82.6434 210.768 82.1332 211.625 81.3449L214.384 78.8074L205.751 72.1394Z" fill="#E98862"/>
<g opacity="0.2">
<path opacity="0.2" d="M204.381 73.9578C204.369 73.9831 204.347 74.0025 204.321 74.0118C204.295 74.0212 204.266 74.0198 204.241 74.0079L199.581 71.8068C199.568 71.8007 199.557 71.7922 199.547 71.7817C199.538 71.7713 199.531 71.759 199.526 71.7456C199.521 71.7323 199.519 71.7181 199.52 71.7039C199.52 71.6897 199.524 71.6758 199.53 71.6629C199.535 71.65 199.544 71.6385 199.554 71.6289C199.564 71.6193 199.577 71.6119 199.59 71.6071C199.603 71.6022 199.617 71.6001 199.631 71.6007C199.645 71.6013 199.658 71.6048 199.671 71.6108L204.331 73.8104C204.357 73.8225 204.377 73.8445 204.386 73.8714C204.396 73.8983 204.395 73.9281 204.383 73.9541L204.381 73.9578Z" fill="#0C0C0C"/>
</g>
<g opacity="0.2">
<path opacity="0.2" d="M203.483 76.0744C203.47 76.0998 203.449 76.1192 203.423 76.1286C203.397 76.1381 203.368 76.1367 203.343 76.1249L198.144 73.6699C198.118 73.6578 198.098 73.6359 198.089 73.609C198.079 73.582 198.08 73.5523 198.092 73.5263C198.104 73.5009 198.126 73.4814 198.152 73.4717C198.179 73.4619 198.207 73.4626 198.233 73.4737L203.432 75.9286C203.458 75.9408 203.477 75.9627 203.487 75.9896C203.497 76.0165 203.496 76.0462 203.484 76.0723L203.483 76.0744Z" fill="#0C0C0C"/>
</g>
<g opacity="0.2">
<path opacity="0.2" d="M202.525 78.371C202.512 78.3963 202.491 78.4158 202.465 78.4252C202.438 78.4346 202.41 78.4333 202.384 78.4214L198.237 76.463C198.224 76.457 198.213 76.4485 198.204 76.438C198.194 76.4275 198.187 76.4152 198.182 76.4019C198.177 76.3885 198.175 76.3743 198.176 76.3601C198.177 76.346 198.18 76.332 198.186 76.3192C198.192 76.3063 198.2 76.2947 198.21 76.2852C198.221 76.2756 198.233 76.2681 198.246 76.2633C198.259 76.2585 198.273 76.2563 198.287 76.2569C198.301 76.2576 198.315 76.261 198.327 76.267L202.475 78.2252C202.5 78.2374 202.52 78.2593 202.529 78.2862C202.539 78.3131 202.538 78.3428 202.526 78.3688L202.525 78.371Z" fill="#0C0C0C"/>
</g>
<path d="M205.449 84.4505L237.697 100.535C239.062 101.174 240.578 101.408 242.068 101.209C243.558 101.01 244.963 100.387 246.12 99.4109C247.277 98.435 248.139 97.1463 248.606 95.6937C249.073 94.241 249.127 92.6836 248.761 91.2011L240.15 59.7215C239.636 57.6366 238.328 55.845 236.515 54.7405C234.701 53.6361 232.531 53.3095 230.48 53.8324C226.211 54.9217 223.918 59.3237 224.99 63.6653L231.746 80.6862L211.082 71.8766L205.449 84.4505Z" fill="#2A2CA8"/>
<path d="M235.576 99.6528C235.566 99.651 235.557 99.6478 235.548 99.6434L205.404 84.5485C205.379 84.5362 205.36 84.5145 205.35 84.488C205.341 84.4615 205.342 84.4323 205.353 84.4066L210.985 71.8327C210.996 71.8069 211.017 71.7867 211.043 71.7764C211.069 71.7661 211.098 71.7666 211.123 71.7777L231.282 80.1941L227.293 67.9754C227.289 67.9618 227.288 67.9475 227.289 67.9334C227.291 67.9193 227.295 67.9057 227.302 67.8933C227.309 67.8809 227.318 67.87 227.329 67.8612C227.34 67.8524 227.352 67.8459 227.366 67.842C227.379 67.8381 227.393 67.837 227.407 67.8386C227.421 67.8403 227.434 67.8447 227.447 67.8516C227.459 67.8585 227.47 67.8678 227.478 67.8789C227.487 67.89 227.493 67.9028 227.497 67.9164L231.547 80.3516C231.552 80.3712 231.552 80.392 231.547 80.4116C231.541 80.4311 231.53 80.4487 231.515 80.4622C231.5 80.4757 231.482 80.4846 231.462 80.488C231.442 80.4913 231.422 80.4888 231.403 80.4809L211.136 72.0177L205.59 84.3993L235.64 99.448C235.663 99.4595 235.682 99.4789 235.692 99.5028C235.701 99.5267 235.703 99.5535 235.695 99.5782C235.687 99.603 235.671 99.624 235.649 99.6376C235.627 99.6511 235.601 99.6562 235.576 99.6519V99.6528Z" fill="#0C0C0C"/>
<path d="M235.059 82.1385C235.051 82.137 235.042 82.1344 235.034 82.1309L231.401 80.48C231.388 80.4742 231.377 80.466 231.367 80.4557C231.357 80.4454 231.35 80.4332 231.345 80.42C231.34 80.4068 231.338 80.3926 231.338 80.3785C231.338 80.3643 231.341 80.3503 231.347 80.3374C231.353 80.3244 231.361 80.3128 231.371 80.303C231.381 80.2933 231.393 80.2856 231.406 80.2806C231.419 80.2755 231.433 80.2731 231.447 80.2735C231.461 80.2739 231.475 80.277 231.487 80.2828L235.121 81.9337C235.144 81.9445 235.163 81.9636 235.173 81.9873C235.184 82.011 235.186 82.0378 235.178 82.0627C235.171 82.0877 235.155 82.1091 235.133 82.123C235.112 82.137 235.086 82.1425 235.061 82.1385H235.059Z" fill="#0C0C0C"/>
<path d="M193.984 60.0824C193.829 59.8851 193.616 59.744 193.376 59.6803C193.136 59.6166 192.882 59.6337 192.652 59.729C192.65 59.7145 192.645 59.7005 192.637 59.6885C192.629 59.6764 192.618 59.6665 192.605 59.6597C192.592 59.6529 192.578 59.6493 192.564 59.6494C192.55 59.6494 192.535 59.653 192.523 59.6599L193.15 58.8895C193.342 58.6618 193.445 58.3695 193.438 58.0692C193.431 57.7689 193.314 57.4819 193.111 57.264C192.914 57.0653 192.652 56.946 192.375 56.9279C192.098 56.9099 191.823 56.9944 191.603 57.1658C191.603 57.1542 191.592 57.1457 191.587 57.1353L191.844 56.8201C192.02 56.6116 192.12 56.348 192.128 56.0733C192.136 55.7986 192.051 55.5296 191.887 55.311C191.78 55.1746 191.645 55.0641 191.49 54.9876C191.336 54.9111 191.167 54.8705 190.996 54.8688C190.824 54.8671 190.654 54.9043 190.499 54.9778C190.343 55.0512 190.206 55.159 190.096 55.2933L189.504 56.0209C189.501 56.0172 189.501 56.0114 189.497 56.0081C189.494 56.0047 189.485 56.0053 189.48 56.002C189.598 55.7653 189.633 55.4949 189.58 55.2351C189.527 54.9753 189.389 54.7415 189.188 54.5721C188.697 54.1007 187.931 54.429 187.549 54.8998L183.929 59.267L184.033 59.0695L184.462 57.5434C184.549 57.2562 184.528 56.9465 184.403 56.6744C184.278 56.4022 184.058 56.1869 183.786 56.0701C183.636 56.0117 183.477 55.9855 183.317 55.9933C183.157 56.001 183.001 56.0424 182.857 56.115C182.714 56.1875 182.588 56.2896 182.485 56.4147C182.383 56.5397 182.308 56.6851 182.264 56.8415L180.263 63.9586L179.778 65.6868C179.545 66.5158 179.639 67.4044 180.04 68.164C180.441 68.9235 181.118 69.4941 181.926 69.7544L182.454 69.9247C183.556 70.2796 184.737 70.2918 185.845 69.9599C186.953 69.6281 187.939 68.9672 188.676 68.062L193.941 61.5911C194.117 61.3827 194.218 61.1191 194.225 60.8445C194.233 60.5699 194.148 60.3008 193.984 60.0824Z" fill="#E98862"/>
<g opacity="0.2">
<path opacity="0.2" d="M186.024 60.1435C186.045 60.1613 186.073 60.1698 186.1 60.1673C186.128 60.1648 186.153 60.1514 186.171 60.13L189.509 56.1603C189.519 56.1496 189.526 56.137 189.531 56.1233C189.536 56.1095 189.539 56.0948 189.538 56.0802C189.537 56.0655 189.534 56.0512 189.527 56.038C189.521 56.0248 189.512 56.0131 189.501 56.0036C189.49 55.994 189.477 55.9868 189.463 55.9825C189.45 55.9781 189.435 55.9766 189.421 55.9781C189.406 55.9796 189.392 55.9841 189.38 55.9912C189.367 55.9983 189.356 56.008 189.347 56.0196L186.01 59.9894C186.001 60.0002 185.994 60.0127 185.99 60.0263C185.985 60.0398 185.984 60.0541 185.985 60.0683C185.986 60.0825 185.99 60.0963 185.996 60.109C186.002 60.1217 186.011 60.133 186.022 60.1422L186.024 60.1435Z" fill="#0C0C0C"/>
</g>
<g opacity="0.2">
<path opacity="0.2" d="M187.706 61.6884C187.727 61.7062 187.755 61.7148 187.782 61.7123C187.81 61.7098 187.835 61.6964 187.853 61.675L191.579 57.2448C191.588 57.234 191.595 57.2215 191.599 57.2079C191.603 57.1944 191.605 57.1801 191.604 57.1659C191.603 57.1517 191.599 57.1379 191.593 57.1252C191.586 57.1125 191.578 57.1012 191.567 57.0919C191.545 57.0742 191.517 57.0655 191.489 57.0677C191.462 57.0699 191.435 57.0829 191.417 57.1039L187.692 61.534C187.683 61.5448 187.676 61.5574 187.671 61.5709C187.667 61.5845 187.665 61.5987 187.666 61.6129C187.667 61.6271 187.671 61.641 187.678 61.6537C187.684 61.6664 187.693 61.6777 187.703 61.6869L187.706 61.6884Z" fill="#0C0C0C"/>
</g>
<g opacity="0.2">
<path opacity="0.2" d="M189.516 63.3726C189.538 63.3904 189.565 63.3989 189.593 63.3964C189.62 63.3939 189.646 63.3805 189.664 63.3591L192.635 59.8253C192.645 59.8147 192.653 59.8021 192.658 59.7883C192.663 59.7745 192.665 59.7599 192.664 59.7452C192.664 59.7306 192.66 59.7162 192.654 59.703C192.647 59.6899 192.638 59.6782 192.627 59.6686C192.616 59.6591 192.604 59.6519 192.59 59.6475C192.576 59.6431 192.562 59.6416 192.547 59.6431C192.533 59.6446 192.519 59.6491 192.506 59.6562C192.494 59.6634 192.483 59.673 192.474 59.6847L189.502 63.2188C189.493 63.2296 189.486 63.2421 189.482 63.2557C189.477 63.2692 189.476 63.2835 189.477 63.2978C189.478 63.312 189.482 63.3258 189.488 63.3385C189.495 63.3512 189.504 63.3624 189.514 63.3716L189.516 63.3726Z" fill="#0C0C0C"/>
</g>
<path d="M191.604 67.8371L185.671 94.9672C185.333 97.0891 184.181 98.9879 182.467 100.246C180.753 101.504 178.618 102.018 176.531 101.675C174.444 101.332 172.577 100.16 171.34 98.4174C170.102 96.6745 169.597 94.5033 169.934 92.3814L178.081 63.3965" fill="#2A2CA8"/>
<path d="M186.133 89.9292L189.478 77.4326" stroke="#0C0C0C" stroke-width="0.75" stroke-linecap="round" stroke-linejoin="round"/>
<path d="M242.659 248.568H33.3612C33.2815 248.568 33.205 248.535 33.1486 248.478C33.0922 248.421 33.0605 248.343 33.0605 248.262C33.0605 248.181 33.0922 248.103 33.1486 248.046C33.205 247.988 33.2815 247.956 33.3612 247.956H242.659C242.739 247.956 242.816 247.988 242.872 248.046C242.928 248.103 242.96 248.181 242.96 248.262C242.96 248.343 242.928 248.421 242.872 248.478C242.816 248.535 242.739 248.568 242.659 248.568Z" fill="#292A2E"/>
</g>
<defs>
<clipPath id="clip0_113_163">
<rect width="237" height="237" fill="white" transform="translate(12 11.5674)"/>
</clipPath>
</defs>
</svg>
