<svg width="261" height="269" viewBox="0 0 261 269" fill="none" xmlns="http://www.w3.org/2000/svg">
<circle cx="130.5" cy="131.066" r="130.5" fill="#00ADD9"/>
<path opacity="0.2" d="M85.1858 51.9519L85.0237 51.8877L33.5723 221.136L214.949 243.136L215.154 243.16L221.8 105.769L221.813 105.499L85.1858 51.9519ZM137.29 160.794L34.2861 220.278L85.176 52.8776L137.29 160.794ZM137.592 161.304L214.209 242.4L34.8364 220.645L137.592 161.304ZM137.687 160.553L85.6501 52.7948L220.948 105.82L137.687 160.553ZM214.788 242.239L138.048 161.012L221.366 106.242L214.788 242.239Z" fill="#2A2CA8"/>
<path d="M244.981 108.631C244.817 115.146 243.651 121.503 241.584 127.157C239.517 132.811 236.609 137.594 233.109 141.098C229.609 144.602 225.621 146.723 221.486 147.279C217.351 147.835 213.192 146.809 209.364 144.29C207.568 143.108 205.866 141.605 204.289 139.811C201.276 136.393 198.768 131.993 196.937 126.911V126.907C194.984 121.471 193.861 115.399 193.654 109.167C193.447 102.934 194.163 96.711 195.745 90.9865C197.328 85.262 199.733 80.1919 202.773 76.1746C205.813 72.1573 209.404 69.3022 213.264 67.8336C217.125 66.3651 221.15 66.323 225.022 67.7108C228.895 69.0986 232.51 71.8784 235.584 75.8319C238.657 79.7853 241.105 84.8047 242.736 90.4957C244.366 96.1866 245.135 102.394 244.981 108.63L244.981 108.631Z" fill="white"/>
<path opacity="0.09" d="M244.981 108.631C244.817 115.146 243.651 121.503 241.584 127.157C239.517 132.811 236.609 137.594 233.109 141.098C229.609 144.602 225.621 146.723 221.486 147.279C217.351 147.835 213.192 146.809 209.364 144.29C207.568 143.108 205.866 141.605 204.289 139.811C201.276 136.393 198.768 131.993 196.937 126.911V126.907C194.984 121.471 193.861 115.399 193.654 109.167C193.447 102.934 194.163 96.711 195.745 90.9865C197.328 85.262 199.733 80.1919 202.773 76.1746C205.813 72.1573 209.404 69.3022 213.264 67.8336C217.125 66.3651 221.15 66.323 225.022 67.7108C228.895 69.0986 232.51 71.8784 235.584 75.8319C238.657 79.7853 241.105 84.8047 242.736 90.4957C244.366 96.1866 245.135 102.394 244.981 108.63L244.981 108.631Z" fill="#2A2CA8"/>
<path d="M225.383 76.3262C225.383 76.3262 231.525 76.4444 229.407 89.7435L228.83 89.7878L227.659 89.8774" fill="#0C0C0C"/>
<path d="M218.527 103.697C218.556 103.693 218.669 111.988 224.806 111.64C229.054 111.4 230.739 104.43 230.836 104.436C230.383 104.256 229.62 103.986 229.421 103.804C228.768 103.201 227.957 102.565 227.792 100.516C227.697 99.3353 228.056 93.3469 228.02 92.1562L221.462 94.0401C221.491 96.5525 221.983 102.402 219.729 103.295C219.354 103.442 218.95 103.574 218.527 103.697Z" fill="#E98862"/>
<path opacity="0.52" d="M221.199 101.006C221.314 100.496 221.393 99.9685 221.434 99.432C221.536 98.2082 221.552 96.9705 221.483 95.7411C222.811 95.5414 224.077 94.7603 225.137 93.4863C225.241 94.193 225.829 97.2963 225.628 97.9509C225.25 99.1888 223.566 101.15 221.199 101.006Z" fill="#0C0C0C"/>
<path d="M222.687 99.5396C225.258 99.2506 228.359 96.7912 228.467 91.317L228.564 86.3786C228.672 80.9054 226.929 76.3795 223.65 76.2202C220.37 76.0596 217.831 80.3784 217.724 85.8515L217.681 88.0379C217.674 88.7893 217.7 89.5405 217.759 90.2863C217.904 92.2584 218.13 95.2571 218.957 97.3048C219.737 99.2377 221.044 99.7237 222.687 99.5396Z" fill="#E98862"/>
<path d="M228.232 92.976C229.229 93.0242 230.07 91.388 230.101 89.8222C230.131 88.2564 229.34 87.3532 228.344 87.3047L227.809 88.329L227.375 92.9343L228.232 92.976Z" fill="#E98862"/>
<path d="M217.893 91.9392C218.073 92.2747 218.304 92.534 218.564 92.6937C218.824 92.8533 219.105 92.9082 219.383 92.8533C219.975 92.7361 220.368 93.1183 220.863 93.0416C221.279 92.9773 221.351 92.6757 222.06 92.6099C224.796 92.3552 226.85 92.0841 226.983 86.6883L228.725 84.2578C228.725 84.2578 229.503 99.2101 224.356 101.198C221.193 102.418 218.227 101.972 217.845 97.3048C217.535 93.5124 217.893 91.9392 217.893 91.9392Z" fill="#0C0C0C"/>
<path d="M219.189 88.8159C219.413 88.8159 219.593 88.5316 219.593 88.1809C219.593 87.8302 219.413 87.5459 219.189 87.5459C218.966 87.5459 218.785 87.8302 218.785 88.1809C218.785 88.5316 218.966 88.8159 219.189 88.8159Z" fill="#0C0C0C"/>
<path d="M222.799 88.6987C223.022 88.6987 223.203 88.4144 223.203 88.0637C223.203 87.713 223.022 87.4287 222.799 87.4287C222.575 87.4287 222.395 87.713 222.395 88.0637C222.395 88.4144 222.575 88.6987 222.799 88.6987Z" fill="#0C0C0C"/>
<path d="M227.266 90.4297C227.266 90.4297 227.02 82.6741 225.53 82.1528C224.538 81.8056 222.098 83.9557 219.869 83.2214C218.894 82.9002 217.961 83.2536 217.858 83.9775C217.817 84.264 217.046 81.7231 218.615 78.6312C219.863 76.1696 223.925 75.4771 225.731 76.3475C230.734 78.7584 228.543 87.6514 228.543 87.6514L228.287 90.3154L227.266 90.4297Z" fill="#0C0C0C"/>
<path d="M229.541 84.1759C231.014 84.1759 232.207 82.3004 232.207 79.9869C232.207 77.6734 231.014 75.7979 229.541 75.7979C228.069 75.7979 226.875 77.6734 226.875 79.9869C226.875 82.3004 228.069 84.1759 229.541 84.1759Z" fill="#0C0C0C"/>
<g opacity="0.52">
<path opacity="0.52" d="M220.91 92.7923H220.903C220.582 92.7779 220.045 92.6976 220.051 92.3202C220.057 92.0073 220.662 88.6547 220.732 88.2731C220.738 88.2403 220.751 88.2125 220.77 88.1959C220.789 88.1793 220.812 88.1753 220.833 88.1846C220.854 88.1939 220.871 88.2159 220.882 88.2457C220.892 88.2755 220.895 88.3106 220.889 88.3434C220.62 89.8283 220.218 92.1146 220.214 92.3263C220.244 92.4168 220.575 92.519 220.908 92.5341C220.929 92.5337 220.95 92.5469 220.966 92.5707C220.981 92.5945 220.99 92.627 220.99 92.6611C220.991 92.6952 220.982 92.728 220.967 92.7524C220.952 92.7768 220.931 92.7907 220.91 92.791V92.7923Z" fill="#0C0C0C"/>
</g>
<path d="M219.934 86.024C219.602 85.8696 219.25 85.8585 218.915 85.9919C218.75 86.0556 218.591 86.1581 218.446 86.2957C218.301 86.4307 218.169 86.5937 218.05 86.7811C218.03 86.8099 218.017 86.8504 218.016 86.8937C218.014 86.9369 218.024 86.9793 218.042 87.0115C218.061 87.0438 218.086 87.0632 218.114 87.0656C218.141 87.068 218.168 87.0531 218.189 87.0242L218.195 87.0159C218.305 86.8595 218.428 86.7256 218.559 86.6173C218.689 86.5094 218.828 86.433 218.972 86.3905C219.257 86.3031 219.551 86.3354 219.824 86.484L219.835 86.4901C219.854 86.5018 219.875 86.5074 219.896 86.5065C219.916 86.5056 219.937 86.4983 219.956 86.4848C219.974 86.4714 219.991 86.4522 220.006 86.4284C220.02 86.4045 220.031 86.3765 220.038 86.3459C220.045 86.3153 220.048 86.2828 220.047 86.2502C220.046 86.2177 220.041 86.1857 220.032 86.1563C220.024 86.1268 220.011 86.1004 219.996 86.0787C219.98 86.0569 219.962 86.0402 219.943 86.0295L219.934 86.024Z" fill="#0C0C0C"/>
<path d="M222.315 86.485C222.578 86.295 222.869 86.218 223.157 86.2618C223.303 86.2819 223.447 86.3368 223.582 86.4246C223.72 86.5123 223.85 86.6268 223.969 86.7654L223.976 86.7725C223.998 86.7953 224.025 86.8038 224.051 86.7963C224.077 86.7889 224.1 86.7659 224.116 86.7323C224.132 86.6987 224.139 86.6568 224.135 86.6155C224.132 86.5741 224.119 86.5362 224.098 86.5097C223.969 86.3414 223.826 86.1994 223.674 86.087C223.521 85.9724 223.357 85.8945 223.189 85.8561C222.847 85.7751 222.497 85.8402 222.176 86.0446C222.139 86.0702 222.109 86.1181 222.093 86.1778C222.078 86.2376 222.078 86.3045 222.094 86.364C222.11 86.4236 222.14 86.471 222.178 86.4961C222.215 86.5211 222.258 86.5217 222.296 86.4979L222.304 86.4927L222.315 86.485Z" fill="#0C0C0C"/>
<path d="M238.687 124.41C238.458 127.121 238.235 130.846 238.036 134.698C237.257 136 236.425 137.219 235.544 138.349C234.984 139.063 234.406 139.743 233.81 140.387C230.587 143.843 226.907 146.103 223.047 146.996C219.187 147.889 215.248 147.391 211.529 145.541C211.478 141.963 211.409 137.138 211.34 132.717C211.261 127.617 211.182 123.051 211.139 121.551C210.963 115.596 209.958 111.623 210.718 108.375C210.945 107.413 211.31 106.547 211.785 105.843C213.554 103.122 217.949 103.184 219.712 103.292C219.742 103.294 219.198 109.686 224.998 109.609C229.26 109.554 229.58 103.893 229.58 103.893C229.58 103.893 231.681 104.237 233.076 104.617C235.358 105.245 236.841 106.56 237.996 108.524C239.073 110.355 239.708 112.299 238.687 124.41Z" fill="#2A2CA8"/>
<path d="M204.59 103.921L204.765 97.1003C204.769 96.9503 204.754 96.8007 204.719 96.6609C204.684 96.5211 204.631 96.3943 204.563 96.2885C204.495 96.1827 204.414 96.1003 204.325 96.0465C204.236 95.9927 204.14 95.9688 204.045 95.9761C203.869 95.9984 203.705 96.1225 203.584 96.3243C203.463 96.5261 203.394 96.7912 203.391 97.0682L203.353 98.5309L202.127 93.8469C201.997 93.3224 201.623 92.8098 201.258 93.0786C201.113 93.1676 200.992 93.331 200.914 93.5422C200.836 93.7534 200.806 93.9998 200.829 94.2414C200.825 94.242 200.822 94.2432 200.819 94.2449C200.816 94.2469 200.814 94.2493 200.812 94.2519L200.611 93.4432C200.574 93.2934 200.516 93.1585 200.441 93.0485C200.366 92.9384 200.277 92.8559 200.179 92.807C200.082 92.7581 199.978 92.744 199.877 92.7658C199.776 92.7876 199.679 92.8446 199.593 92.9328C199.46 93.0759 199.362 93.2865 199.316 93.5293C199.27 93.7721 199.278 94.0324 199.34 94.2667L199.425 94.6107C199.42 94.6193 199.416 94.6292 199.413 94.64C199.321 94.4287 199.184 94.2759 199.026 94.2086C198.869 94.1414 198.702 94.1641 198.554 94.2728C198.395 94.3996 198.272 94.616 198.21 94.879C198.147 95.1419 198.151 95.4321 198.219 95.6916L198.431 96.5466C198.423 96.5378 198.413 96.5323 198.403 96.5305C198.393 96.5287 198.383 96.5307 198.373 96.5363C198.362 96.544 198.353 96.5565 198.346 96.5723C198.231 96.4198 198.087 96.331 197.936 96.3197C197.786 96.3084 197.637 96.3751 197.513 96.5096C197.384 96.6552 197.291 96.8646 197.248 97.104C197.204 97.3434 197.214 97.5988 197.274 97.8288L199.068 105.043C199.319 106.052 199.756 106.92 200.324 107.536C200.891 108.153 201.562 108.489 202.252 108.502C202.846 108.513 203.42 108.159 203.851 107.516C204.283 106.873 204.538 105.991 204.562 105.057L204.59 103.921Z" fill="#E98862"/>
<g opacity="0.2">
<path opacity="0.2" d="M202.027 98.8873C202.011 98.8968 201.994 98.8963 201.979 98.8859C201.964 98.8756 201.951 98.8563 201.945 98.8321L200.783 94.3748C200.78 94.3626 200.778 94.3493 200.777 94.3357C200.777 94.3222 200.779 94.3087 200.782 94.296C200.785 94.2834 200.79 94.2719 200.796 94.2623C200.802 94.2526 200.809 94.245 200.817 94.2398C200.825 94.2347 200.833 94.2322 200.842 94.2324C200.851 94.2327 200.859 94.2357 200.867 94.2412C200.875 94.2468 200.882 94.2548 200.888 94.2648C200.894 94.2748 200.898 94.2866 200.901 94.2994L202.063 98.7566C202.066 98.7687 202.067 98.7817 202.067 98.7948C202.067 98.8079 202.066 98.8209 202.063 98.833C202.059 98.8451 202.055 98.856 202.049 98.8652C202.043 98.8745 202.036 98.8817 202.028 98.8867L202.027 98.8873Z" fill="#0C0C0C"/>
</g>
<g opacity="0.2">
<path opacity="0.2" d="M200.789 99.7474C200.773 99.7569 200.756 99.7564 200.741 99.746C200.725 99.7356 200.713 99.7162 200.707 99.6919L199.411 94.7175C199.405 94.6932 199.405 94.6661 199.411 94.6421C199.418 94.6181 199.43 94.599 199.445 94.589C199.461 94.5803 199.478 94.5811 199.493 94.5911C199.508 94.6012 199.52 94.6198 199.527 94.6433L200.824 99.6177C200.83 99.6422 200.83 99.6696 200.823 99.694C200.817 99.7184 200.804 99.7377 200.789 99.7478V99.7474Z" fill="#0C0C0C"/>
</g>
<g opacity="0.2">
<path opacity="0.2" d="M199.453 100.691C199.437 100.7 199.42 100.7 199.405 100.69C199.389 100.679 199.377 100.66 199.371 100.635L198.337 96.6676C198.33 96.6432 198.33 96.6158 198.337 96.5914C198.343 96.567 198.356 96.5477 198.371 96.5377C198.387 96.5277 198.404 96.5278 198.42 96.538C198.435 96.5482 198.448 96.5677 198.454 96.5921L199.489 100.559C199.495 100.583 199.495 100.611 199.489 100.635C199.482 100.66 199.47 100.679 199.454 100.689L199.453 100.691Z" fill="#0C0C0C"/>
</g>
<path d="M218.96 114.615L208.395 140.136C208.011 141.063 207.496 141.84 206.891 142.406C205.99 141.626 205.122 140.76 204.289 139.811C202.515 137.8 200.911 135.44 199.518 132.789L197.299 105.756L206.18 103.521L207.192 116.533L211.25 106.732L218.96 114.615Z" fill="#2A2CA8"/>
<path d="M220.199 94.1838C221.168 94.285 222.131 93.8757 222.935 93.0208C222.963 92.9914 222.996 92.975 223.029 92.9737C223.063 92.9724 223.096 92.9861 223.125 93.0133C223.154 93.0405 223.177 93.08 223.192 93.1273C223.207 93.1745 223.213 93.2275 223.21 93.28C223.145 94.1794 222.862 95.8335 221.661 96.0442C220.886 96.1801 220.324 95.2444 220.041 94.6223C220.021 94.5792 220.01 94.5283 220.008 94.4755C220.006 94.4226 220.014 94.3701 220.031 94.324C220.047 94.278 220.072 94.2403 220.102 94.2155C220.131 94.1907 220.165 94.1797 220.199 94.1838Z" fill="white"/>
<path d="M241.551 127.278C239.99 131.508 237.955 135.258 235.544 138.349C234.984 139.064 234.406 139.743 233.81 140.387L229.684 115.722L238.976 111.882L241.551 127.278Z" fill="#2A2CA8"/>
<path d="M233.902 140.29C233.872 140.32 233.84 140.354 233.811 140.386C233.782 140.419 233.752 140.451 233.723 140.481L230.578 121.691L230.777 121.609L233.902 140.29Z" fill="#0C0C0C"/>
<path d="M211.365 133.878C211.34 133.876 211.315 133.86 211.297 133.831C211.279 133.803 211.268 133.765 211.267 133.725L211.065 126.723C211.063 126.68 211.073 126.638 211.091 126.607C211.11 126.576 211.135 126.557 211.162 126.555C211.189 126.553 211.216 126.568 211.236 126.597C211.256 126.626 211.268 126.666 211.269 126.708L211.472 133.71C211.473 133.753 211.463 133.794 211.445 133.826C211.427 133.857 211.401 133.876 211.374 133.878H211.365Z" fill="#0C0C0C"/>
<path d="M134.936 198.671C149.4 198.671 161.126 180.248 161.126 157.521C161.126 134.795 149.4 116.371 134.936 116.371C120.472 116.371 108.746 134.795 108.746 157.521C108.746 180.248 120.472 198.671 134.936 198.671Z" fill="white"/>
<path opacity="0.09" d="M161.125 157.521C161.125 165.659 159.589 173.615 156.711 180.382C153.834 187.149 149.743 192.423 144.958 195.538C140.172 198.652 134.907 199.467 129.826 197.879C124.746 196.292 120.079 192.373 116.417 186.618C112.754 180.863 110.26 173.531 109.249 165.549C108.239 157.566 108.757 149.293 110.74 141.774C112.722 134.255 116.079 127.828 120.385 123.306C124.692 118.785 129.756 116.371 134.936 116.371C138.378 116.351 141.79 117.402 144.973 119.463C148.156 121.524 151.048 124.554 153.483 128.379C155.917 132.204 157.846 136.748 159.157 141.75C160.469 146.751 161.138 152.111 161.125 157.521Z" fill="#2A2CA8"/>
<path d="M123.343 133.251C123.343 133.251 123.079 139.463 122.19 141.717C119.629 148.205 118.887 155.504 121.452 159.319C124.016 163.133 140.372 163.185 141.611 154.414C142.654 147.03 140.416 146.236 139.871 140.144C139.625 137.388 138.946 131.608 138.946 131.608" fill="#0A0A0A"/>
<path d="M137.379 153.127C137.351 153.121 137.037 161.289 130.998 160.578C126.817 160.086 125.326 153.116 125.23 153.116C125.681 152.966 126.44 152.747 126.641 152.579C127.299 152.023 128.114 151.445 128.326 149.436C128.449 148.28 128.241 142.355 128.306 141.184L134.723 143.434C134.634 145.907 134.006 151.644 136.206 152.659C136.571 152.826 136.965 152.98 137.379 153.127Z" fill="#E98862"/>
<path opacity="0.5" d="M134.811 150.314C134.71 149.805 134.646 149.28 134.618 148.749C134.547 147.537 134.561 146.316 134.66 145.109C133.355 144.833 132.126 143.987 131.113 142.668C130.994 143.36 130.338 146.381 130.52 147.038C130.864 148.28 132.474 150.314 134.811 150.314Z" fill="#0C0C0C"/>
<path d="M133.981 147.769C131.45 148.155 128.177 146.563 127.498 141.269L126.886 136.492C126.208 131.198 127.428 126.346 130.601 125.343C133.774 124.34 136.695 127.88 137.373 133.176L137.644 135.291C137.904 137.322 138.495 147.083 133.981 147.769Z" fill="#E98862"/>
<path opacity="0.1" d="M132.372 140.832C132.789 140.754 133.097 140.302 133.06 139.822C133.024 139.342 132.657 139.016 132.24 139.094C131.824 139.172 131.516 139.624 131.552 140.104C131.589 140.584 131.956 140.91 132.372 140.832Z" fill="#0C0C0C"/>
<path opacity="0.1" d="M136.772 138.913C136.81 139.392 137.177 139.716 137.593 139.64C137.665 139.627 137.736 139.602 137.805 139.565C137.824 138.994 137.825 138.444 137.815 137.935C137.699 137.89 137.579 137.879 137.461 137.903C137.044 137.98 136.736 138.432 136.772 138.913Z" fill="#0C0C0C"/>
<path opacity="0.5" d="M134.933 140.393H134.939C135.067 140.351 135.194 140.297 135.319 140.233C135.505 140.136 135.748 139.974 135.715 139.71C135.676 139.408 134.734 136.319 134.626 135.968C134.616 135.939 134.599 135.918 134.579 135.908C134.559 135.897 134.538 135.9 134.519 135.914C134.5 135.928 134.485 135.953 134.478 135.984C134.471 136.015 134.471 136.049 134.479 136.079C134.881 137.396 135.529 139.557 135.555 139.76C135.534 139.855 135.225 140.04 134.906 140.141C134.886 140.148 134.868 140.167 134.857 140.195C134.845 140.222 134.841 140.255 134.844 140.287C134.847 140.319 134.858 140.348 134.875 140.368C134.891 140.388 134.912 140.397 134.933 140.394V140.393Z" fill="#0C0C0C"/>
<path d="M124.354 138.207L127.199 137.334C129.347 135.92 129.957 130.039 129.957 130.039C129.957 130.039 132.609 134.006 138.946 131.607C138.946 131.607 137.569 117.707 128.212 121.926C125.194 123.286 123.057 128.119 123.375 134.519C123.598 139.005 124.354 138.207 124.354 138.207Z" fill="#0A0A0A"/>
<path d="M127.902 142.82C126.938 143.125 125.949 141.751 125.756 140.236C125.563 138.721 126.236 137.639 127.2 137.334L127.827 138.192L128.732 142.558L127.902 142.82Z" fill="#E98862"/>
<path d="M135.309 133.505C135.55 133.237 135.832 133.074 136.127 133.033C136.275 133.011 136.424 133.024 136.569 133.071C136.716 133.118 136.858 133.193 136.993 133.296L136.997 133.299C137.012 133.308 137.028 133.308 137.043 133.299C137.058 133.29 137.07 133.272 137.077 133.249C137.084 133.227 137.085 133.201 137.08 133.177C137.075 133.153 137.064 133.133 137.05 133.121C136.907 133.003 136.756 132.913 136.599 132.855C136.441 132.794 136.278 132.771 136.116 132.787C135.787 132.816 135.47 132.982 135.196 133.269C135.185 133.279 135.176 133.293 135.169 133.31C135.162 133.326 135.157 133.344 135.154 133.364C135.152 133.383 135.152 133.403 135.154 133.422C135.157 133.442 135.162 133.46 135.169 133.476C135.176 133.493 135.185 133.507 135.195 133.517C135.206 133.528 135.218 133.535 135.23 133.539C135.243 133.542 135.255 133.541 135.268 133.537C135.28 133.532 135.291 133.524 135.302 133.512L135.304 133.51L135.309 133.505Z" fill="#0C0C0C"/>
<path d="M132.713 134.069C132.39 133.968 132.056 134.005 131.745 134.177C131.592 134.26 131.447 134.379 131.316 134.53C131.185 134.679 131.067 134.853 130.964 135.048C130.954 135.067 130.948 135.092 130.949 135.118C130.95 135.143 130.958 135.167 130.97 135.184C130.982 135.201 130.997 135.21 131.014 135.21C131.03 135.209 131.045 135.198 131.056 135.18L131.06 135.175C131.159 134.999 131.272 134.843 131.396 134.712C131.519 134.58 131.653 134.479 131.795 134.41C132.077 134.271 132.377 134.252 132.666 134.355L132.673 134.357C132.685 134.362 132.697 134.364 132.71 134.361C132.722 134.358 132.734 134.352 132.745 134.341C132.756 134.331 132.765 134.318 132.772 134.302C132.78 134.287 132.785 134.269 132.788 134.249C132.791 134.23 132.791 134.211 132.79 134.191C132.788 134.172 132.783 134.153 132.776 134.137C132.77 134.12 132.761 134.106 132.751 134.094C132.741 134.083 132.729 134.075 132.717 134.071L132.713 134.069Z" fill="#0C0C0C"/>
<path d="M127.201 137.26C129.113 136.142 129.747 134.068 129.943 132.524C130.069 131.494 130.058 130.434 129.908 129.412L129.849 129.438C129.996 130.447 130.008 131.492 129.882 132.508C129.69 134.027 129.065 136.068 127.18 137.17L127.201 137.26Z" fill="#0C0C0C"/>
<path d="M151.375 151.5L152.519 145.397C152.544 145.263 152.587 145.139 152.645 145.032C152.702 144.925 152.773 144.838 152.853 144.777C152.933 144.716 153.02 144.681 153.109 144.676C153.198 144.67 153.286 144.694 153.369 144.745C153.52 144.847 153.641 145.034 153.71 145.269C153.778 145.503 153.788 145.77 153.739 146.016L153.494 147.324L155.467 143.766C155.682 143.364 156.109 143.087 156.38 143.496C156.491 143.643 156.567 143.844 156.595 144.067C156.624 144.29 156.604 144.522 156.538 144.724C156.541 144.726 156.543 144.729 156.546 144.732C156.548 144.735 156.549 144.738 156.55 144.742L156.882 144.122C156.943 144.007 157.02 143.916 157.107 143.854C157.194 143.792 157.289 143.761 157.384 143.764C157.479 143.766 157.573 143.802 157.659 143.869C157.744 143.936 157.819 144.032 157.878 144.15C157.968 144.339 158.014 144.571 158.008 144.807C158.003 145.043 157.946 145.268 157.847 145.446L157.706 145.71C157.709 145.72 157.711 145.731 157.711 145.742C157.833 145.599 157.983 145.528 158.135 145.543C158.286 145.558 158.43 145.657 158.539 145.822C158.656 146.009 158.723 146.257 158.728 146.519C158.733 146.78 158.675 147.035 158.566 147.232L158.215 147.886C158.224 147.883 158.234 147.882 158.243 147.885C158.252 147.888 158.261 147.895 158.268 147.904C158.276 147.916 158.282 147.932 158.285 147.949C158.416 147.869 158.56 147.859 158.695 147.92C158.83 147.981 158.949 148.11 159.033 148.288C159.118 148.477 159.161 148.706 159.153 148.937C159.146 149.169 159.089 149.39 158.992 149.564L156.035 155.089C155.621 155.861 155.07 156.422 154.452 156.699C153.834 156.977 153.178 156.958 152.567 156.645C152.04 156.375 151.601 155.794 151.343 155.023C151.085 154.253 151.028 153.355 151.184 152.52L151.375 151.5Z" fill="#E98862"/>
<g opacity="0.2">
<path opacity="0.2" d="M154.594 148.263C154.606 148.278 154.621 148.285 154.637 148.283C154.652 148.281 154.666 148.27 154.676 148.252L156.55 144.865C156.56 144.846 156.565 144.822 156.564 144.797C156.563 144.773 156.556 144.75 156.544 144.734C156.532 144.718 156.517 144.709 156.501 144.711C156.485 144.713 156.471 144.724 156.461 144.743L154.587 148.13C154.582 148.14 154.578 148.15 154.575 148.162C154.573 148.173 154.572 148.186 154.572 148.198C154.573 148.21 154.575 148.222 154.579 148.233C154.582 148.244 154.587 148.253 154.593 148.261L154.594 148.263Z" fill="#0C0C0C"/>
</g>
<g opacity="0.2">
<path opacity="0.2" d="M155.523 149.602C155.534 149.617 155.55 149.624 155.565 149.622C155.58 149.62 155.594 149.609 155.604 149.591L157.695 145.811C157.701 145.801 157.704 145.791 157.707 145.779C157.709 145.768 157.71 145.755 157.71 145.743C157.709 145.731 157.707 145.719 157.704 145.708C157.7 145.697 157.695 145.688 157.689 145.68C157.677 145.664 157.662 145.657 157.647 145.658C157.631 145.66 157.617 145.671 157.606 145.689L155.516 149.469C155.511 149.479 155.507 149.489 155.505 149.501C155.503 149.512 155.502 149.525 155.502 149.537C155.503 149.549 155.505 149.561 155.508 149.572C155.512 149.583 155.516 149.592 155.522 149.6L155.523 149.602Z" fill="#0C0C0C"/>
</g>
<g opacity="0.2">
<path opacity="0.2" d="M156.522 151.063C156.534 151.078 156.549 151.086 156.564 151.084C156.58 151.082 156.594 151.07 156.604 151.052L158.272 148.037C158.281 148.018 158.286 147.995 158.284 147.971C158.283 147.947 158.275 147.925 158.264 147.91C158.253 147.894 158.238 147.886 158.223 147.887C158.208 147.888 158.193 147.898 158.183 147.915L156.514 150.931C156.509 150.94 156.506 150.951 156.503 150.962C156.501 150.974 156.5 150.986 156.5 150.998C156.501 151.01 156.503 151.022 156.506 151.033C156.51 151.044 156.515 151.054 156.52 151.062L156.522 151.063Z" fill="#0C0C0C"/>
</g>
<path d="M158.343 154.164L153.917 185.712C153.907 185.782 153.897 185.856 153.885 185.927C152.89 187.561 151.814 189.066 150.665 190.427C150.434 190.697 150.203 190.963 149.966 191.22C149.819 191.246 149.672 191.259 149.524 191.259C148.735 191.258 147.96 190.932 147.277 190.312C146.594 189.693 146.027 188.802 145.632 187.729L137.197 164.797L144.986 157.728L147.625 164.904L149.559 151.121L158.343 154.164Z" fill="#0CBC8B"/>
<path d="M144.722 168.547C144.695 169.048 144.642 169.941 144.568 171.117C144.2 177.126 143.34 190.52 142.941 196.709C137.905 199.239 132.501 199.325 127.433 196.957H127.431C123.689 195.197 120.245 192.141 117.353 188.015C117.37 182.48 117.318 176.256 117.081 172.254C116.372 160.295 117.042 158.423 118.144 156.692C118.234 156.55 118.328 156.412 118.422 156.277C119.561 154.652 120.99 153.592 123.073 153.148C124.451 152.857 126.524 152.645 126.524 152.645C126.524 152.645 126.699 158.227 130.884 158.535C136.581 158.956 136.201 152.645 136.23 152.645C137.663 152.645 140.852 152.786 142.863 154.395C142.865 154.395 142.865 154.395 142.867 154.398C143.272 154.708 143.641 155.124 143.957 155.628C146.261 159.464 145.124 161.104 144.722 168.547Z" fill="#0CBC8B"/>
<path d="M135.781 141.437C134.959 142.093 134.021 142.301 133.115 142.027C133.084 142.018 133.052 142.022 133.022 142.041C132.992 142.06 132.967 142.091 132.948 142.132C132.929 142.172 132.918 142.22 132.916 142.27C132.914 142.321 132.922 142.37 132.937 142.414C133.208 143.162 133.848 144.44 134.946 143.919C135.655 143.583 135.924 142.436 136.023 141.727C136.03 141.678 136.028 141.626 136.017 141.579C136.006 141.532 135.986 141.491 135.961 141.46C135.935 141.43 135.905 141.411 135.873 141.407C135.841 141.403 135.809 141.413 135.781 141.437Z" fill="white"/>
<path d="M135.833 135.693C136.052 135.693 136.23 135.413 136.23 135.068C136.23 134.724 136.052 134.444 135.833 134.444C135.613 134.444 135.436 134.724 135.436 135.068C135.436 135.413 135.613 135.693 135.833 135.693Z" fill="#0C0C0C"/>
<path d="M132.014 136.742C132.234 136.742 132.412 136.463 132.412 136.118C132.412 135.774 132.234 135.494 132.014 135.494C131.795 135.494 131.617 135.774 131.617 136.118C131.617 136.463 131.795 136.742 132.014 136.742Z" fill="#0C0C0C"/>
<path d="M143.842 182.019C143.839 182.02 143.837 182.02 143.834 182.019C143.818 182.016 143.803 182.002 143.794 181.982C143.784 181.962 143.78 181.936 143.782 181.911L144.484 170.794C144.485 170.782 144.488 170.769 144.492 170.758C144.496 170.747 144.501 170.738 144.507 170.73C144.514 170.722 144.521 170.717 144.529 170.714C144.537 170.711 144.545 170.71 144.553 170.712C144.569 170.716 144.584 170.729 144.594 170.749C144.604 170.77 144.608 170.795 144.606 170.821L143.903 181.937C143.901 181.96 143.894 181.981 143.883 181.996C143.871 182.011 143.857 182.02 143.842 182.019Z" fill="#0C0C0C"/>
<path d="M139.593 181.485L143.431 178.791C143.515 178.732 143.606 178.702 143.699 178.701C143.791 178.701 143.882 178.73 143.967 178.788C144.051 178.846 144.127 178.931 144.19 179.037C144.253 179.144 144.3 179.269 144.33 179.406C144.381 179.662 144.369 179.939 144.297 180.182C144.226 180.425 144.099 180.617 143.942 180.722L143.119 181.3L146.238 181.35C146.585 181.346 147.012 181.69 146.989 182.302C146.99 182.538 146.94 182.768 146.847 182.954C146.754 183.139 146.624 183.27 146.478 183.325C146.479 183.33 146.479 183.335 146.479 183.34C146.479 183.344 146.478 183.348 146.478 183.352L147.013 183.347C147.111 183.346 147.209 183.379 147.299 183.445C147.389 183.511 147.468 183.607 147.531 183.727C147.594 183.847 147.639 183.988 147.663 184.139C147.687 184.289 147.689 184.447 147.669 184.599C147.635 184.838 147.55 185.052 147.427 185.204C147.305 185.356 147.153 185.437 146.997 185.434L146.77 185.437C146.767 185.447 146.763 185.457 146.757 185.465C146.911 185.519 147.048 185.658 147.143 185.856C147.238 186.054 147.285 186.299 147.276 186.546C147.26 186.817 147.181 187.068 147.053 187.25C146.924 187.432 146.757 187.532 146.585 187.529L146.019 187.535C146.027 187.544 146.034 187.556 146.039 187.569C146.043 187.583 146.046 187.598 146.046 187.613C146.045 187.631 146.042 187.649 146.035 187.664C146.164 187.772 146.266 187.944 146.327 188.153C146.387 188.362 146.402 188.597 146.37 188.82C146.332 189.054 146.246 189.261 146.125 189.408C146.004 189.555 145.854 189.634 145.701 189.631L140.932 189.684C140.265 189.691 139.611 189.386 139.055 188.806C138.5 188.226 138.067 187.399 137.812 186.43C137.592 185.594 137.589 184.657 137.802 183.817C138.015 182.978 138.428 182.302 138.953 181.933L139.593 181.485Z" fill="#E98862"/>
<g opacity="0.2">
<path opacity="0.2" d="M143.391 183.299C143.391 183.325 143.397 183.35 143.409 183.368C143.42 183.386 143.436 183.396 143.452 183.396L146.418 183.438C146.434 183.438 146.45 183.428 146.461 183.41C146.473 183.392 146.479 183.368 146.48 183.342C146.48 183.317 146.473 183.292 146.462 183.274C146.451 183.256 146.435 183.245 146.419 183.245L143.453 183.203C143.436 183.203 143.421 183.213 143.409 183.231C143.398 183.249 143.391 183.274 143.391 183.299H143.391Z" fill="#0C0C0C"/>
</g>
<g opacity="0.2">
<path opacity="0.2" d="M143.342 185.354C143.342 185.38 143.348 185.404 143.36 185.422C143.371 185.44 143.387 185.451 143.403 185.451L146.713 185.497C146.729 185.497 146.745 185.487 146.756 185.469C146.768 185.451 146.774 185.427 146.774 185.401C146.774 185.376 146.767 185.352 146.756 185.334C146.744 185.316 146.729 185.305 146.713 185.305L143.403 185.258C143.387 185.258 143.371 185.268 143.36 185.286C143.348 185.304 143.342 185.329 143.342 185.354H143.342Z" fill="#0C0C0C"/>
</g>
<g opacity="0.2">
<path opacity="0.2" d="M143.283 187.577C143.283 187.603 143.29 187.628 143.301 187.646C143.313 187.664 143.328 187.674 143.345 187.674L145.985 187.711C146.001 187.711 146.016 187.701 146.028 187.683C146.039 187.665 146.046 187.641 146.046 187.615C146.046 187.59 146.039 187.565 146.028 187.547C146.016 187.529 146.001 187.519 145.985 187.519L143.345 187.481C143.328 187.481 143.313 187.492 143.301 187.51C143.29 187.528 143.283 187.552 143.283 187.578V187.577Z" fill="#0C0C0C"/>
</g>
<path d="M140.692 192.222L127.433 196.956H127.431C123.689 195.196 120.245 192.141 117.353 188.014C117.042 187.571 116.738 187.117 116.441 186.652C115.923 185.84 115.428 184.995 114.955 184.118L116.811 160.658C117.014 158.767 117.686 157.08 118.68 155.967C119.675 154.855 120.909 154.409 122.113 154.727C123.317 155.045 124.39 156.102 125.098 157.664C125.806 159.226 126.09 161.166 125.888 163.057L124.714 185.085L139.498 179.827L140.692 192.222Z" fill="#0CBC8B"/>
<path d="M121.724 185.95C121.716 185.951 121.708 185.95 121.7 185.946C121.693 185.942 121.686 185.935 121.68 185.927C121.673 185.919 121.668 185.909 121.665 185.897C121.661 185.886 121.659 185.874 121.658 185.861C121.658 185.849 121.659 185.836 121.661 185.824C121.664 185.812 121.668 185.801 121.673 185.791C121.678 185.781 121.685 185.773 121.692 185.768C121.699 185.762 121.707 185.759 121.715 185.758L124.679 184.762C124.687 184.76 124.695 184.761 124.703 184.764C124.711 184.767 124.718 184.772 124.725 184.78C124.731 184.787 124.737 184.797 124.741 184.807C124.745 184.818 124.748 184.83 124.749 184.843C124.75 184.855 124.75 184.868 124.748 184.88C124.746 184.893 124.743 184.904 124.738 184.914C124.733 184.925 124.727 184.933 124.72 184.94C124.713 184.946 124.705 184.95 124.697 184.952L121.732 185.948C121.73 185.949 121.727 185.95 121.724 185.95Z" fill="#0C0C0C"/>
<path d="M140.691 192.221C140.694 192.246 140.691 192.272 140.683 192.293C140.675 192.315 140.661 192.33 140.646 192.337L127.765 197.107C127.683 197.071 127.604 197.036 127.524 196.997L140.556 192.176L139.395 179.971L124.699 184.952C124.689 184.955 124.68 184.954 124.67 184.949C124.661 184.945 124.653 184.937 124.646 184.927C124.639 184.915 124.635 184.902 124.632 184.888C124.629 184.873 124.628 184.858 124.629 184.843L125.453 172.256C125.455 172.243 125.458 172.231 125.462 172.221C125.466 172.21 125.472 172.201 125.479 172.194C125.485 172.187 125.493 172.182 125.501 172.179C125.509 172.176 125.517 172.176 125.525 172.178C125.541 172.182 125.555 172.196 125.565 172.217C125.574 172.237 125.578 172.263 125.576 172.288L124.764 184.747L139.421 179.756C139.429 179.752 139.438 179.752 139.446 179.754C139.454 179.756 139.462 179.761 139.468 179.769C139.475 179.775 139.482 179.783 139.487 179.793C139.492 179.802 139.495 179.814 139.497 179.826L140.691 192.221Z" fill="#0C0C0C"/>
<path d="M41.0146 246.083C54.2775 246.083 65.0292 229.19 65.0292 208.351C65.0292 187.512 54.2775 170.619 41.0146 170.619C27.7517 170.619 17 187.512 17 208.351C17 229.19 27.7517 246.083 41.0146 246.083Z" fill="white"/>
<path opacity="0.09" d="M41.0146 246.083C54.2775 246.083 65.0292 229.19 65.0292 208.351C65.0292 187.512 54.2775 170.619 41.0146 170.619C27.7517 170.619 17 187.512 17 208.351C17 229.19 27.7517 246.083 41.0146 246.083Z" fill="#2A2CA8"/>
<path d="M34.4023 186.949C34.4023 186.949 34.6626 198.313 39.4901 198.835L40.3078 183.85L34.4023 186.949Z" fill="#0A0A0A"/>
<path d="M35.3325 201.157C36.912 201.157 38.1924 199.145 38.1924 196.663C38.1924 194.182 36.912 192.17 35.3325 192.17C33.7531 192.17 32.4727 194.182 32.4727 196.663C32.4727 199.145 33.7531 201.157 35.3325 201.157Z" fill="#0A0A0A"/>
<path d="M46.5217 204.11C46.4961 204.105 46.2136 211.474 40.7653 210.831C36.9935 210.389 35.6488 204.101 35.5625 204.101C35.9935 203.988 36.4187 203.826 36.8346 203.616C37.4285 203.115 38.1634 202.593 38.3547 200.781C38.4651 199.736 38.2781 194.393 38.3355 193.336L44.1252 195.367C44.0434 197.598 43.478 202.772 45.4625 203.688C45.7925 203.84 46.1482 203.979 46.5217 204.11Z" fill="#E98862"/>
<path opacity="0.5" d="M44.2083 201.572C44.1175 201.113 44.0591 200.639 44.0341 200.159C43.9705 199.066 43.9832 197.965 44.0719 196.876C42.8952 196.626 41.7866 195.863 40.872 194.673C40.7645 195.297 40.1733 198.023 40.3371 198.615C40.6466 199.738 42.1006 201.572 44.2083 201.572Z" fill="#0C0C0C"/>
<path d="M43.3001 199.588C41.007 199.634 38.1404 197.816 37.7851 192.976L37.4646 188.608C37.1091 183.768 38.4389 179.55 41.3392 179.025C44.2394 178.5 46.6952 182.03 47.0506 186.87L47.1925 188.804C47.3289 190.662 47.3914 199.506 43.3001 199.588Z" fill="#E98862"/>
<path d="M46.3615 188.674C46.5601 188.674 46.7211 188.421 46.7211 188.109C46.7211 187.797 46.5601 187.544 46.3615 187.544C46.1629 187.544 46.002 187.797 46.002 188.109C46.002 188.421 46.1629 188.674 46.3615 188.674Z" fill="#0C0C0C"/>
<path d="M42.6858 189.334C42.8844 189.334 43.0453 189.081 43.0453 188.769C43.0453 188.457 42.8844 188.204 42.6858 188.204C42.4872 188.204 42.3262 188.457 42.3262 188.769C42.3262 189.081 42.4872 189.334 42.6858 189.334Z" fill="#0C0C0C"/>
<path opacity="0.5" d="M44.5099 193.07H44.5156C44.6331 193.047 44.7497 193.015 44.865 192.972C45.0371 192.906 45.264 192.79 45.2462 192.548C45.2258 192.273 44.5268 189.384 44.4471 189.056C44.4437 189.042 44.4385 189.029 44.4318 189.018C44.4252 189.007 44.4172 188.998 44.4084 188.992C44.3996 188.985 44.39 188.982 44.3804 188.981C44.3707 188.981 44.3611 188.984 44.3521 188.989C44.343 188.994 44.3348 189.003 44.3277 189.013C44.3207 189.024 44.3151 189.036 44.3111 189.05C44.3072 189.064 44.305 189.079 44.3047 189.094C44.3044 189.109 44.3061 189.124 44.3095 189.138C44.6078 190.368 45.0863 192.389 45.0998 192.575C44.9158 192.738 44.7097 192.829 44.4986 192.84C44.4792 192.843 44.4611 192.857 44.4484 192.881C44.4357 192.904 44.4294 192.934 44.4309 192.965C44.4324 192.995 44.4415 193.024 44.4563 193.044C44.4711 193.064 44.4904 193.073 44.5099 193.071V193.07Z" fill="#0C0C0C"/>
<path opacity="0.5" d="M43.9915 195.084C44.4626 195.042 44.9207 194.826 45.3291 194.455C45.3452 194.439 45.3568 194.414 45.3616 194.385C45.3663 194.357 45.3639 194.326 45.3547 194.3C45.3456 194.274 45.3304 194.255 45.3123 194.246C45.2943 194.237 45.2747 194.239 45.2577 194.252C44.3759 195.019 43.5324 195.063 42.819 194.381C42.8046 194.366 42.7897 194.353 42.7744 194.341C42.7567 194.33 42.7371 194.33 42.7195 194.342C42.702 194.353 42.6879 194.374 42.6802 194.402C42.6725 194.429 42.6718 194.46 42.6781 194.488C42.6845 194.516 42.6976 194.539 42.7145 194.552C42.72 194.557 42.7294 194.566 42.7423 194.578C43.1174 194.939 43.5524 195.115 43.9915 195.084Z" fill="#0C0C0C"/>
<path d="M35.106 189.849L37.7049 189.402C39.7039 188.387 40.5345 183.17 40.5345 183.17C40.5345 183.17 42.3259 186.371 47.6344 184.91C47.6344 184.91 47.4287 174.157 39.3552 175.67C36.5441 176.198 34.4245 180.627 34.4026 186.419C34.3875 190.477 35.106 189.849 35.106 189.849Z" fill="#0A0A0A"/>
<path d="M38.0725 194.417C37.191 194.578 36.3678 193.225 36.2662 191.84C36.1646 190.455 36.8229 189.562 37.7043 189.402L38.2267 190.248L38.8303 194.28L38.0725 194.417Z" fill="#E98862"/>
<path d="M45.0904 186.699C45.3504 186.473 45.6442 186.361 45.9412 186.374C46.0879 186.379 46.2332 186.419 46.3723 186.492C46.5106 186.563 46.6425 186.662 46.765 186.785C46.7773 186.797 46.7861 186.817 46.7896 186.839C46.793 186.861 46.7909 186.884 46.7837 186.904C46.7764 186.924 46.7646 186.939 46.7507 186.945C46.7367 186.952 46.7217 186.949 46.7088 186.939L46.7051 186.936C46.5891 186.827 46.4647 186.742 46.3351 186.683C46.2068 186.622 46.0733 186.593 45.9394 186.596C45.6728 186.598 45.4113 186.711 45.1815 186.923L45.176 186.928C45.1665 186.938 45.1559 186.945 45.1447 186.948C45.1335 186.951 45.122 186.951 45.111 186.947C45.0999 186.943 45.0894 186.936 45.0802 186.925C45.0709 186.915 45.0632 186.902 45.0572 186.886C45.0513 186.871 45.0475 186.854 45.0458 186.837C45.0442 186.819 45.0448 186.801 45.0477 186.784C45.0506 186.766 45.0556 186.75 45.0626 186.736C45.0695 186.722 45.0782 186.71 45.0881 186.701L45.0904 186.699Z" fill="#0C0C0C"/>
<path d="M42.7599 187.372C42.5058 187.245 42.2348 187.227 41.9747 187.319C41.8437 187.364 41.7178 187.44 41.6013 187.544C41.4835 187.647 41.3744 187.774 41.2766 187.92L41.2736 187.924C41.2625 187.937 41.2487 187.943 41.2349 187.941C41.2212 187.939 41.2083 187.929 41.1989 187.914C41.1894 187.898 41.184 187.877 41.1836 187.855C41.1833 187.834 41.188 187.812 41.1969 187.796C41.2988 187.633 41.4134 187.49 41.5379 187.372C41.6632 187.252 41.7992 187.162 41.9414 187.106C42.2291 186.989 42.5314 186.995 42.817 187.124C42.828 187.129 42.8383 187.136 42.8474 187.147C42.8564 187.158 42.864 187.172 42.8696 187.187C42.8752 187.203 42.8788 187.22 42.8801 187.238C42.8814 187.256 42.8803 187.274 42.8771 187.291C42.8739 187.308 42.8684 187.324 42.8612 187.338C42.8539 187.352 42.8449 187.363 42.8348 187.371C42.8247 187.379 42.8136 187.384 42.8023 187.386C42.7909 187.387 42.7795 187.385 42.7687 187.379H42.7665L42.7599 187.372Z" fill="#0C0C0C"/>
<path opacity="0.52" d="M44.0417 196.178C44.127 196.173 44.2118 196.156 44.2952 196.128C44.3138 196.121 44.3298 196.102 44.34 196.077C44.3501 196.051 44.3536 196.021 44.3497 195.991C44.3457 195.962 44.3347 195.936 44.3188 195.919C44.303 195.902 44.2836 195.896 44.2648 195.901C44.1345 195.961 43.9976 195.976 43.8632 195.946C43.7288 195.916 43.6 195.842 43.4855 195.727C43.4704 195.708 43.451 195.699 43.4315 195.702C43.4121 195.705 43.3942 195.72 43.3819 195.744C43.3695 195.767 43.3636 195.798 43.3656 195.828C43.3676 195.859 43.3772 195.887 43.3923 195.906C43.5823 196.112 43.8118 196.208 44.0417 196.178Z" fill="#0C0C0C"/>
<path opacity="0.1" d="M42.1885 193.16C42.5666 193.139 42.8652 192.769 42.8555 192.333C42.8458 191.897 42.5314 191.561 42.1534 191.581C41.7753 191.602 41.4766 191.972 41.4863 192.408C41.496 192.844 41.8104 193.18 42.1885 193.16Z" fill="#0C0C0C"/>
<path opacity="0.1" d="M46.2346 191.957C46.2452 192.392 46.5594 192.728 46.9376 192.708C47.0029 192.705 47.0679 192.69 47.1314 192.666C47.1761 192.154 47.2035 191.66 47.2184 191.202C47.1166 191.147 47.0092 191.123 46.9018 191.13C46.5244 191.15 46.226 191.519 46.2346 191.957Z" fill="#0C0C0C"/>
<path d="M54.6591 211.871C54.6427 214.444 54.0806 217.512 53.8802 221.218C53.8271 222.208 52.4756 225.069 52.2794 228.252C52.032 232.306 52.5821 238.627 52.6557 241.36C48.8571 244.663 44.5602 246.287 40.2212 246.061C35.8822 245.835 31.6632 243.767 28.0123 240.076C27.9142 233.054 27.7976 224.385 27.6484 222.307C27.1639 215.446 27.2948 211.107 27.9939 209.077C29.1366 205.762 31.1707 204.751 33.2987 204.294C34.5989 204.018 36.5511 203.822 36.5511 203.822C36.5511 203.822 36.7167 209.08 40.6621 209.373C46.0324 209.771 45.6746 203.822 45.7012 203.822C47.6494 203.822 51.3413 204.555 52.7559 206.071C54.2564 207.673 54.6775 209.575 54.6591 211.871Z" fill="#FFC239"/>
<path d="M36.1047 215.874L28.819 240.856C26.0216 238.261 23.5877 234.803 21.6641 230.69L27.7416 209.851L36.1047 215.874Z" fill="#FFC239"/>
<path d="M60.545 230.312C59.1177 233.441 57.395 236.209 55.4364 238.522C54.7917 239.287 54.1224 239.998 53.431 240.655L45.9531 214.824L54.3264 208.837L60.545 230.312Z" fill="#FFC239"/>
<path d="M90.9913 98.2822C104.8 98.2822 115.994 80.6937 115.994 58.9971C115.994 37.3005 104.8 19.7119 90.9913 19.7119C77.1825 19.7119 65.9883 37.3005 65.9883 58.9971C65.9883 80.6937 77.1825 98.2822 90.9913 98.2822Z" fill="white"/>
<path opacity="0.09" d="M90.9913 98.2822C104.8 98.2822 115.994 80.6937 115.994 58.9971C115.994 37.3005 104.8 19.7119 90.9913 19.7119C77.1825 19.7119 65.9883 37.3005 65.9883 58.9971C65.9883 80.6937 77.1825 98.2822 90.9913 98.2822Z" fill="#2A2CA8"/>
<path d="M95.8258 35.471C95.8258 35.471 97.4091 32.7749 97.2866 27.6396C97.192 23.6635 95.2058 26.8218 95.2058 26.8218C95.2058 26.8218 95.1197 23.96 93.8566 24.6056C92.5935 25.2512 92.2051 28.3938 92.2051 28.3938" fill="#0C0C0C"/>
<path d="M87.1953 26.8389C87.1953 26.8389 80.8899 29.7505 84.7915 42.7801L85.3674 42.678L86.5363 42.4711" fill="#0C0C0C"/>
<path d="M96.1317 56.2953C96.1031 56.2895 95.7842 64.6015 89.6386 63.8755C85.3841 63.3748 83.867 56.2825 83.7695 56.2825C84.2283 56.1293 84.7951 55.897 85.0204 55.8171C85.5114 55.638 85.9561 55.2283 86.2953 54.6424C86.6346 54.0566 86.8522 53.3223 86.9193 52.5373C87.0438 51.3592 86.8326 45.3316 86.8976 44.1396L93.4282 46.4298C93.337 48.9476 92.6984 54.7841 94.9369 55.8171C95.3095 55.9883 95.7108 56.1456 96.1317 56.2953Z" fill="#E98862"/>
<path opacity="0.52" d="M93.5199 53.4327C93.4177 52.9147 93.3518 52.3807 93.3234 51.8402C93.2517 50.6067 93.266 49.3647 93.3662 48.1361C92.0388 47.8546 90.7883 46.9938 89.7568 45.6514C89.6354 46.3551 88.9686 49.4299 89.1532 50.0986C89.5023 51.3629 91.1424 53.4327 93.5199 53.4327Z" fill="#0C0C0C"/>
<path d="M92.4548 50.7861C89.879 51.15 86.5541 49.4961 85.8874 44.1013L85.2858 39.2336C84.6192 33.8375 85.8821 28.9152 89.1149 27.9291C92.3477 26.9427 95.3045 30.579 95.9713 35.9738L96.2371 38.1287C96.3204 38.8711 96.3714 39.6215 96.3896 40.3748C96.4472 42.3662 96.53 45.3929 95.9208 47.6303C95.346 49.7431 94.1008 50.5538 92.4548 50.7861Z" fill="#E98862"/>
<path opacity="0.5" d="M92.8434 45.453C93.3151 45.4391 93.7782 45.2512 94.1952 44.9044C94.2043 44.898 94.2124 44.8887 94.2192 44.8772C94.2259 44.8657 94.2311 44.8521 94.2344 44.8374C94.2377 44.8226 94.2391 44.807 94.2384 44.7914C94.2378 44.7758 94.2352 44.7605 94.2307 44.7466C94.2262 44.7326 94.22 44.7202 94.2123 44.7101C94.2047 44.7001 94.1959 44.6925 94.1864 44.6879C94.1769 44.6834 94.1669 44.6819 94.157 44.6835C94.1471 44.6852 94.1375 44.69 94.1288 44.6976C93.2293 45.411 92.3853 45.4042 91.6888 44.6802C91.6748 44.6649 91.6602 44.6508 91.6453 44.6378C91.6366 44.6311 91.6271 44.6272 91.6175 44.6262C91.6078 44.6252 91.5981 44.6273 91.589 44.6322C91.5798 44.6371 91.5714 44.6448 91.5641 44.6548C91.5568 44.6648 91.5509 44.677 91.5466 44.6907C91.5424 44.7043 91.5398 44.7192 91.5392 44.7343C91.5386 44.7495 91.5399 44.7647 91.543 44.7791C91.5461 44.7935 91.551 44.8068 91.5574 44.8182C91.5638 44.8296 91.5716 44.839 91.5802 44.8457C91.5858 44.8505 91.5948 44.8601 91.6074 44.8733C91.9735 45.2555 92.4039 45.4574 92.8434 45.453Z" fill="#0C0C0C"/>
<path opacity="0.52" d="M92.8651 46.5501C92.9504 46.5497 93.0356 46.5379 93.1196 46.5148C93.1291 46.5122 93.1382 46.5067 93.1464 46.4986C93.1546 46.4906 93.1617 46.48 93.1673 46.4676C93.1729 46.4552 93.1769 46.4412 93.179 46.4264C93.1812 46.4116 93.1814 46.3963 93.1798 46.3813C93.1782 46.3663 93.1747 46.352 93.1695 46.3392C93.1644 46.3263 93.1577 46.3152 93.1498 46.3064C93.1419 46.2976 93.133 46.2913 93.1236 46.288C93.1142 46.2846 93.1044 46.2842 93.0949 46.2867C92.9632 46.3385 92.826 46.3457 92.6925 46.3077C92.5589 46.2697 92.4321 46.1874 92.3203 46.0664C92.3056 46.0469 92.2866 46.0372 92.2674 46.0394C92.2482 46.0416 92.2303 46.0555 92.2176 46.0782C92.2049 46.1009 92.1983 46.1306 92.1993 46.1608C92.2003 46.191 92.2088 46.2194 92.223 46.2398C92.4078 46.4568 92.6347 46.5665 92.8651 46.5501Z" fill="#0C0C0C"/>
<path d="M95.1966 39.4884C95.4206 39.4884 95.6022 39.2031 95.6022 38.8511C95.6022 38.4992 95.4206 38.2139 95.1966 38.2139C94.9726 38.2139 94.791 38.4992 94.791 38.8511C94.791 39.2031 94.9726 39.4884 95.1966 39.4884Z" fill="#0C0C0C"/>
<path d="M91.2532 40.212C91.4772 40.212 91.6588 39.9267 91.6588 39.5748C91.6588 39.2228 91.4772 38.9375 91.2532 38.9375C91.0292 38.9375 90.8477 39.2228 90.8477 39.5748C90.8477 39.9267 91.0292 40.212 91.2532 40.212Z" fill="#0C0C0C"/>
<path d="M86.2896 45.6835C85.3072 45.9832 84.3067 44.5748 84.1158 43.0311C83.9248 41.4874 84.6164 40.3934 85.5987 40.0938L86.2324 40.9735L87.1339 45.4259L86.2896 45.6835Z" fill="#E98862"/>
<path d="M86.9818 42.9184C86.9818 42.9184 86.4329 35.1728 87.8551 34.2805C88.8022 33.686 91.4395 35.1994 93.5722 33.9095C94.5052 33.3449 95.466 33.4598 95.6418 34.1507C95.7115 34.4241 95.8436 30.1718 93.9733 27.5049C92.4843 25.3818 88.4612 25.8067 86.7604 27.1255C82.0511 30.7772 85.4335 40.4873 85.4335 40.4873L85.9589 43.062L86.9818 42.9184Z" fill="#0C0C0C"/>
<g opacity="0.52">
<path opacity="0.52" d="M93.447 43.5335H93.4533C93.7702 43.4372 94.2948 43.2229 94.2506 42.8507C94.2128 42.542 93.2694 39.3737 93.1622 39.0136C93.1577 38.9983 93.1512 38.9846 93.1433 38.9731C93.1353 38.9617 93.126 38.9529 93.1158 38.9471C93.1057 38.9414 93.0949 38.9388 93.0842 38.9396C93.0734 38.9404 93.0628 38.9445 93.0531 38.9517C93.0433 38.9588 93.0346 38.969 93.0273 38.9815C93.02 38.994 93.0144 39.0087 93.0107 39.0246C93.0071 39.0405 93.0055 39.0574 93.0059 39.0743C93.0064 39.0912 93.009 39.1078 93.0136 39.1232C93.4319 40.5262 94.0636 42.6885 94.0893 42.8988C94.0689 42.9952 93.7516 43.1812 93.4237 43.2798C93.402 43.2848 93.3825 43.3032 93.3695 43.3309C93.3564 43.3586 93.3509 43.3933 93.3541 43.4274C93.3573 43.4614 93.369 43.4921 93.3867 43.5126C93.4043 43.5331 93.4263 43.5418 93.448 43.5367L93.447 43.5335Z" fill="#0C0C0C"/>
</g>
<path d="M93.67 35.7702C93.987 35.5314 94.3391 35.4315 94.6893 35.4811C94.861 35.5039 95.0296 35.5669 95.1895 35.6681C95.3474 35.7667 95.4967 35.8962 95.6339 36.0535C95.6594 36.0812 95.677 36.1233 95.6831 36.171C95.6892 36.2187 95.6833 36.2683 95.6666 36.3093C95.65 36.3503 95.6238 36.3795 95.5937 36.3908C95.5635 36.4021 95.5318 36.3946 95.5051 36.3699L95.4959 36.3647C95.3715 36.2399 95.2376 36.1401 95.0973 36.0676C94.9594 35.9953 94.8152 35.9562 94.6699 35.9517C94.3832 35.9391 94.0996 36.0458 93.8477 36.261L93.8372 36.2703C93.8167 36.2887 93.7941 36.3006 93.7707 36.3052C93.7473 36.3099 93.7235 36.3073 93.7008 36.2975C93.678 36.2877 93.6567 36.271 93.638 36.2483C93.6193 36.2256 93.6037 36.1973 93.592 36.1651C93.5803 36.1329 93.5728 36.0974 93.5698 36.0606C93.5668 36.0238 93.5685 35.9865 93.5747 35.9507C93.5809 35.9149 93.5916 35.8814 93.606 35.8521C93.6205 35.8228 93.6385 35.7982 93.659 35.7798L93.67 35.7702Z" fill="#0C0C0C"/>
<path d="M91.3453 36.7576C91.0693 36.6362 90.7777 36.6314 90.5001 36.7438C90.359 36.7989 90.224 36.8874 90.0998 37.0062C89.973 37.1258 89.8563 37.2698 89.7523 37.435L89.7457 37.4453C89.7233 37.4794 89.6934 37.4983 89.6622 37.4982C89.631 37.498 89.6011 37.4787 89.5788 37.4444C89.5566 37.4101 89.5437 37.3635 89.543 37.3145C89.5423 37.2656 89.5538 37.2181 89.575 37.1822C89.6864 36.9804 89.8135 36.8016 89.9534 36.65C90.095 36.4954 90.2505 36.3749 90.4148 36.2925C90.579 36.2075 90.7499 36.1582 90.9226 36.146C91.0995 36.1308 91.2768 36.155 91.4494 36.218C91.4958 36.235 91.536 36.2803 91.5611 36.3439C91.5863 36.4076 91.5943 36.4843 91.5835 36.5572C91.5726 36.6301 91.5438 36.6933 91.5033 36.7328C91.4628 36.7723 91.414 36.7849 91.3676 36.7679L91.357 36.7634L91.3453 36.7576Z" fill="#0C0C0C"/>
<path d="M92.5893 30.6399C93.2905 30.1934 93.5199 28.5166 93.1016 26.8948C92.6833 25.2729 91.7757 24.3201 91.0744 24.7667C90.3732 25.2132 90.1438 26.89 90.5621 28.5118C90.9804 30.1336 91.888 31.0864 92.5893 30.6399Z" fill="#0C0C0C"/>
<path d="M104.625 64.8847C104.649 67.5475 103.987 70.541 103.766 74.5945C103.721 75.4168 103.615 77.2283 103.474 79.5891C103.243 83.4981 102.916 88.9038 102.629 93.7763C98.5366 97.1516 93.929 98.6808 89.3171 98.1944C84.7051 97.7079 80.2689 95.2249 76.4999 91.0205C76.4099 90.9145 76.32 90.8117 76.23 90.7121C75.9909 85.2036 75.7088 79.4221 75.4512 75.7701C74.9667 68.9511 74.3064 65.556 74.6764 63.2627C74.706 63.0674 74.7457 62.8762 74.795 62.691C75.86 58.6311 79.2514 56.8195 81.5492 56.3313C82.9515 56.0326 85.0612 55.8174 85.0612 55.8174C85.0612 55.8174 85.239 61.4961 89.4972 61.8109C95.2947 62.2413 94.9083 55.8174 94.937 55.8174C95.8753 55.8174 100.988 56.8902 102.266 58.2007C102.48 58.4191 102.685 58.6595 102.879 58.9201C103.434 59.6476 103.879 60.5606 104.181 61.5924C104.483 62.6243 104.634 63.7491 104.625 64.8847Z" fill="#383838"/>
<path d="M83.2786 69.0026L76.4999 91.0206C76.4099 90.9146 76.32 90.8118 76.23 90.7122C73.6022 87.6847 71.3736 83.8842 69.668 79.5217L74.6764 63.2628L74.8747 62.6172L83.2786 69.0026Z" fill="#383838"/>
<path d="M82.6239 71.5367L76.4585 90.9722C76.4176 90.924 76.3788 90.8791 76.3379 90.8373L82.4951 71.4371C82.504 71.4101 82.5192 71.3896 82.5375 71.38C82.5559 71.3704 82.5759 71.3724 82.5932 71.3857C82.61 71.3993 82.6227 71.4229 82.6285 71.4512C82.6342 71.4795 82.6326 71.5103 82.6239 71.5367Z" fill="white"/>
<path d="M113.886 74.8129C112.658 79.1888 110.932 83.1766 108.794 86.5815L103.475 79.5891L96.7188 70.7048L102.88 58.9201L102.899 58.8848L113.886 74.8129Z" fill="#383838"/>
<path d="M103.556 79.6748C103.573 79.6735 103.59 79.6623 103.602 79.6433C103.615 79.6244 103.622 79.5989 103.624 79.5717L103.975 73.1061C103.976 73.0762 103.971 73.0466 103.958 73.0236C103.946 73.0007 103.928 72.9863 103.909 72.9837C103.89 72.9815 103.872 72.9911 103.857 73.0103C103.843 73.0295 103.834 73.0568 103.832 73.0865L103.481 79.5525C103.479 79.5823 103.485 79.6118 103.497 79.6347C103.51 79.6576 103.527 79.6719 103.546 79.6745L103.556 79.6748Z" fill="white"/>
<path d="M208.725 268.399C221.895 268.399 232.572 251.623 232.572 230.929C232.572 210.235 221.895 193.459 208.725 193.459C195.554 193.459 184.877 210.235 184.877 230.929C184.877 251.623 195.554 268.399 208.725 268.399Z" fill="white"/>
<path opacity="0.09" d="M184.877 230.927C184.877 238.338 186.276 245.582 188.896 251.744C191.516 257.906 195.241 262.708 199.598 265.544C203.956 268.38 208.751 269.122 213.377 267.677C218.002 266.231 222.252 262.662 225.587 257.422C228.922 252.182 231.193 245.506 232.113 238.237C233.033 230.969 232.561 223.435 230.756 216.589C228.951 209.742 225.895 203.89 221.973 199.773C218.051 195.656 213.441 193.458 208.724 193.458C205.589 193.44 202.483 194.397 199.585 196.273C196.686 198.15 194.053 200.909 191.836 204.392C189.619 207.875 187.863 212.013 186.669 216.567C185.475 221.121 184.866 226.002 184.877 230.927Z" fill="#2A2CA8"/>
<path d="M219.547 210.251C219.166 217.189 219.519 219.542 221.353 223.517C222.899 226.868 214.1 224.019 210.207 222.93L213.642 207.153C213.642 207.153 219.681 207.815 219.547 210.251Z" fill="#0A0A0A"/>
<path d="M206.115 207.365C204.966 214.09 205.095 216.171 202.847 219.703C200.984 222.63 208.245 223.225 212.141 224.289L212.338 207.619C212.338 207.619 206.518 205.003 206.115 207.365Z" fill="#0A0A0A"/>
<path d="M206.502 226.925C206.528 226.92 206.813 234.358 212.312 233.709C216.119 233.261 217.476 226.915 217.564 226.915C217.129 226.801 216.7 226.638 216.28 226.426C215.68 225.919 214.939 225.393 214.745 223.564C214.634 222.509 214.823 217.116 214.765 216.048L208.921 218.097C209.003 220.35 209.575 225.573 207.572 226.497C207.238 226.651 206.879 226.792 206.502 226.925Z" fill="#E98862"/>
<path opacity="0.5" d="M208.838 224.364C208.929 223.901 208.988 223.423 209.014 222.939C209.078 221.835 209.065 220.724 208.976 219.625C210.163 219.373 211.282 218.603 212.206 217.401C212.314 218.031 212.911 220.782 212.746 221.381C212.433 222.512 210.966 224.364 208.838 224.364Z" fill="#0C0C0C"/>
<path d="M209.595 222.047C211.899 222.397 214.88 220.949 215.497 216.128L216.054 211.779C216.672 206.958 215.561 202.54 212.672 201.626C209.783 200.713 207.123 203.939 206.506 208.759L206.259 210.686C206.022 212.535 205.484 221.423 209.595 222.047Z" fill="#E98862"/>
<path d="M218.843 213.152L216.244 212.704C211.158 211.235 209.913 204.788 209.913 204.788C209.913 204.788 207.78 209.262 205.969 208.235C205.969 208.235 206.553 197.446 214.593 199.342C217.752 200.087 219.546 204.201 219.546 209.721C219.546 213.778 218.843 213.152 218.843 213.152Z" fill="#0A0A0A"/>
<path opacity="0.1" d="M211.804 215.067C211.837 214.63 211.557 214.218 211.178 214.147C210.799 214.076 210.464 214.372 210.431 214.809C210.398 215.246 210.678 215.658 211.058 215.729C211.437 215.8 211.771 215.504 211.804 215.067Z" fill="#0C0C0C"/>
<path opacity="0.1" d="M207.055 213.983C207.021 214.419 206.687 214.716 206.307 214.645C206.242 214.633 206.177 214.61 206.115 214.577C206.097 214.056 206.096 213.556 206.106 213.092C206.211 213.051 206.32 213.041 206.428 213.063C206.806 213.133 207.086 213.545 207.055 213.983Z" fill="#0C0C0C"/>
<path opacity="0.5" d="M208.727 215.332H208.722C208.605 215.294 208.489 215.245 208.375 215.187C208.206 215.098 207.984 214.951 208.015 214.71C208.05 214.436 208.908 211.623 209.006 211.304C209.01 211.289 209.016 211.277 209.023 211.266C209.03 211.255 209.039 211.247 209.048 211.242C209.058 211.236 209.068 211.234 209.078 211.235C209.088 211.235 209.097 211.239 209.106 211.246C209.115 211.253 209.123 211.262 209.13 211.274C209.136 211.286 209.141 211.299 209.145 211.314C209.148 211.329 209.149 211.345 209.148 211.36C209.147 211.376 209.145 211.391 209.14 211.405C208.774 212.602 208.184 214.572 208.16 214.757C208.337 214.945 208.539 215.063 208.751 215.103C208.769 215.109 208.786 215.127 208.797 215.151C208.808 215.176 208.812 215.206 208.809 215.236C208.806 215.266 208.796 215.292 208.781 215.311C208.765 215.329 208.746 215.337 208.727 215.334V215.332Z" fill="#0C0C0C"/>
<path d="M215.13 217.541C216.008 217.819 216.908 216.568 217.085 215.189C217.262 213.809 216.648 212.823 215.77 212.546L215.199 213.327L214.375 217.302L215.13 217.541Z" fill="#E98862"/>
<path d="M208.384 209.06C208.276 208.939 208.158 208.842 208.033 208.771C207.907 208.696 207.774 208.649 207.64 208.632C207.505 208.612 207.369 208.623 207.237 208.667C207.103 208.709 206.974 208.778 206.851 208.872L206.848 208.875C206.834 208.882 206.82 208.882 206.807 208.873C206.794 208.865 206.783 208.849 206.777 208.829C206.771 208.809 206.77 208.786 206.774 208.765C206.778 208.743 206.787 208.725 206.799 208.714C206.929 208.606 207.067 208.525 207.21 208.471C207.354 208.416 207.502 208.395 207.65 208.41C207.949 208.436 208.239 208.588 208.488 208.85C208.506 208.87 208.518 208.901 208.522 208.935C208.526 208.97 208.521 209.005 208.509 209.034C208.496 209.063 208.477 209.083 208.455 209.09C208.433 209.097 208.411 209.09 208.392 209.071L208.39 209.069L208.384 209.06Z" fill="#0C0C0C"/>
<path d="M210.751 209.573C211.045 209.481 211.349 209.515 211.632 209.671C211.772 209.747 211.904 209.855 212.024 209.992C212.142 210.128 212.25 210.286 212.344 210.463C212.354 210.481 212.359 210.504 212.359 210.528C212.358 210.551 212.351 210.574 212.34 210.59C212.329 210.606 212.314 210.614 212.299 210.613C212.284 210.612 212.27 210.601 212.26 210.584L212.257 210.579C212.166 210.419 212.063 210.277 211.95 210.158C211.838 210.038 211.716 209.945 211.586 209.883C211.33 209.757 211.056 209.739 210.794 209.832L210.788 209.835C210.766 209.843 210.742 209.838 210.723 209.819C210.703 209.801 210.69 209.771 210.684 209.737C210.679 209.702 210.682 209.665 210.694 209.635C210.706 209.604 210.725 209.583 210.747 209.574L210.751 209.573Z" fill="#0C0C0C"/>
<path d="M197.644 264.113C196.707 263.47 196.005 262.783 194.404 260.888C193.249 259.526 192.176 258 191.197 256.331L199.417 231.755L199.775 230.688L207.189 236.812L200.757 256.042L200.728 256.127L200.784 256.469" fill="#EA394A"/>
<path d="M224.98 244.343C224.764 247.987 224.717 253.655 224.732 258.694C221.633 263.111 217.848 266.169 213.758 267.558C209.668 268.948 205.417 268.621 201.433 266.611C200.945 259.012 200.22 247.844 199.812 240.967C199.398 233.845 198.18 231.492 201.504 228.081C203.335 226.616 206.239 226.487 207.544 226.487C207.101 233.239 216.157 234.07 216.382 226.487C223.155 227.482 226.291 227.73 224.98 244.343Z" fill="#EA394A"/>
<path d="M207.955 216.282C208.704 216.88 209.558 217.069 210.383 216.819C210.411 216.811 210.441 216.815 210.468 216.832C210.495 216.849 210.518 216.878 210.535 216.915C210.552 216.952 210.562 216.996 210.564 217.042C210.566 217.087 210.559 217.133 210.545 217.173C210.3 217.853 209.716 219.017 208.715 218.543C208.069 218.237 207.825 217.194 207.734 216.547C207.728 216.502 207.73 216.455 207.74 216.412C207.75 216.369 207.767 216.331 207.791 216.303C207.814 216.275 207.842 216.258 207.871 216.255C207.9 216.251 207.929 216.26 207.955 216.282Z" fill="white"/>
<path d="M207.909 211.051C208.108 211.051 208.27 210.796 208.27 210.482C208.27 210.168 208.108 209.914 207.909 209.914C207.709 209.914 207.547 210.168 207.547 210.482C207.547 210.796 207.709 211.051 207.909 211.051Z" fill="#0C0C0C"/>
<path d="M211.385 212.007C211.585 212.007 211.747 211.752 211.747 211.438C211.747 211.124 211.585 210.87 211.385 210.87C211.185 210.87 211.023 211.124 211.023 211.438C211.023 211.752 211.185 212.007 211.385 212.007Z" fill="#0C0C0C"/>
<path d="M200.614 253.235H200.621C200.636 253.231 200.649 253.219 200.658 253.2C200.667 253.182 200.671 253.158 200.669 253.135L200.029 243.013C200.028 243.002 200.026 242.991 200.022 242.981C200.019 242.971 200.014 242.962 200.008 242.955C200.002 242.948 199.995 242.943 199.988 242.94C199.981 242.937 199.973 242.937 199.966 242.939C199.959 242.94 199.952 242.944 199.946 242.95C199.939 242.956 199.934 242.963 199.929 242.972C199.925 242.982 199.922 242.992 199.92 243.003C199.918 243.014 199.917 243.026 199.919 243.038L200.558 253.16C200.56 253.181 200.567 253.2 200.577 253.214C200.587 253.227 200.6 253.235 200.614 253.235Z" fill="#0C0C0C"/>
<path d="M199.777 245.526H193.25V258.104H199.777V245.526Z" fill="white"/>
<path d="M197.105 251.815C197.106 250.985 197.262 250.173 197.556 249.482C197.85 248.791 198.268 248.253 198.756 247.936C199.245 247.618 199.782 247.535 200.3 247.697C200.819 247.859 201.295 248.259 201.669 248.847C202.043 249.434 202.297 250.183 202.4 250.997C202.503 251.812 202.45 252.656 202.248 253.424C202.046 254.191 201.703 254.847 201.263 255.309C200.824 255.77 200.307 256.016 199.778 256.016C199.07 256.015 198.39 255.572 197.889 254.784C197.388 253.997 197.106 252.929 197.105 251.815ZM198.2 251.815C198.2 252.306 198.293 252.785 198.466 253.193C198.64 253.601 198.886 253.918 199.174 254.106C199.463 254.294 199.78 254.343 200.086 254.247C200.392 254.152 200.674 253.915 200.894 253.569C201.115 253.222 201.265 252.78 201.326 252.299C201.387 251.818 201.356 251.319 201.236 250.866C201.117 250.413 200.915 250.026 200.655 249.753C200.396 249.481 200.09 249.336 199.778 249.336C199.36 249.336 198.959 249.598 198.663 250.063C198.367 250.528 198.201 251.158 198.2 251.815Z" fill="white"/>
<path d="M199.727 253.372C199.749 253.159 199.818 252.965 199.922 252.824C200.025 252.683 200.157 252.604 200.295 252.601C200.291 252.592 200.288 252.582 200.287 252.572L200.092 252.506C199.957 252.464 199.835 252.35 199.747 252.182C199.659 252.015 199.61 251.805 199.609 251.588C199.611 251.452 199.631 251.318 199.669 251.196C199.708 251.074 199.763 250.966 199.83 250.882C199.898 250.797 199.977 250.737 200.061 250.706C200.146 250.675 200.233 250.674 200.318 250.703L200.777 250.858C200.777 250.855 200.777 250.853 200.777 250.85C200.778 250.844 200.779 250.839 200.781 250.833C200.661 250.745 200.564 250.596 200.506 250.41C200.447 250.224 200.43 250.012 200.458 249.81C200.508 249.277 200.915 249.101 201.213 249.203L202.401 249.537L202 249.119C201.874 248.981 201.785 248.773 201.752 248.537C201.72 248.301 201.745 248.054 201.824 247.846C201.867 247.741 201.923 247.651 201.989 247.582C202.055 247.512 202.129 247.464 202.207 247.441C202.285 247.418 202.366 247.42 202.443 247.447C202.521 247.474 202.594 247.526 202.658 247.599L207.446 256.207L206.383 255.449C206.053 256.212 205.586 256.802 205.041 257.144C204.496 257.486 203.899 257.565 203.325 257.371L200.729 256.481C200.593 256.439 200.471 256.325 200.383 256.158C200.295 255.991 200.247 255.781 200.246 255.564C200.248 255.368 200.289 255.178 200.365 255.022C200.44 254.866 200.545 254.752 200.665 254.696C200.661 254.683 200.66 254.667 200.661 254.653C200.662 254.639 200.666 254.625 200.671 254.614C200.677 254.603 200.684 254.594 200.692 254.588L200.213 254.426C200.062 254.38 199.928 254.245 199.838 254.049C199.747 253.854 199.708 253.611 199.727 253.372Z" fill="#E98862"/>
<path opacity="0.2" d="M201.644 251.161C201.656 251.157 201.667 251.146 201.675 251.13C201.683 251.115 201.687 251.095 201.687 251.075C201.687 251.055 201.682 251.036 201.674 251.02C201.666 251.005 201.654 250.995 201.642 250.992L200.84 250.778C200.833 250.776 200.825 250.776 200.818 250.778C200.811 250.78 200.804 250.785 200.797 250.791C200.791 250.798 200.786 250.806 200.782 250.816C200.778 250.826 200.775 250.837 200.774 250.848C200.773 250.86 200.773 250.872 200.775 250.883C200.777 250.894 200.78 250.905 200.784 250.914C200.789 250.924 200.794 250.931 200.801 250.937C200.807 250.943 200.814 250.947 200.821 250.948L201.623 251.162C201.63 251.164 201.637 251.163 201.644 251.161Z" fill="#0C0C0C"/>
<path opacity="0.2" d="M201.449 252.943C201.461 252.939 201.473 252.928 201.48 252.912C201.488 252.896 201.493 252.877 201.492 252.857C201.492 252.837 201.488 252.818 201.479 252.802C201.471 252.787 201.46 252.777 201.447 252.773L200.349 252.467C200.341 252.464 200.334 252.464 200.326 252.466C200.319 252.468 200.312 252.473 200.306 252.479C200.3 252.486 200.294 252.494 200.29 252.504C200.286 252.514 200.283 252.525 200.282 252.536C200.281 252.548 200.281 252.559 200.283 252.571C200.284 252.582 200.288 252.593 200.292 252.603C200.296 252.612 200.302 252.62 200.308 252.626C200.315 252.632 200.322 252.636 200.329 252.637L201.428 252.943C201.435 252.945 201.442 252.945 201.449 252.943Z" fill="#0C0C0C"/>
<path opacity="0.2" d="M201.248 254.876C201.261 254.871 201.272 254.86 201.28 254.845C201.288 254.829 201.292 254.809 201.292 254.789C201.292 254.768 201.287 254.749 201.278 254.734C201.27 254.719 201.258 254.709 201.245 254.706L200.724 254.58C200.71 254.578 200.696 254.585 200.685 254.598C200.674 254.612 200.667 254.632 200.665 254.653C200.663 254.675 200.666 254.698 200.674 254.716C200.682 254.734 200.694 254.746 200.708 254.751L201.229 254.877C201.235 254.878 201.242 254.878 201.248 254.876Z" fill="#0C0C0C"/>
<path d="M228.306 252.307C225.369 258.944 221.148 263.915 216.27 266.483L216.269 266.48C215.185 266.147 204.85 259.735 203.482 259.314L204.978 248.349C208.82 249.55 215.825 254.18 219.688 255.385L216.963 235.97C216.864 235.112 216.875 234.232 216.994 233.381C217.113 232.53 217.339 231.724 217.658 231.011C217.977 230.298 218.383 229.692 218.852 229.227C219.321 228.762 219.844 228.449 220.391 228.304C220.938 228.16 221.498 228.187 222.038 228.385C222.579 228.583 223.088 228.947 223.538 229.457C223.988 229.967 224.369 230.612 224.659 231.355C224.949 232.098 225.142 232.924 225.227 233.785L228.306 252.307Z" fill="#EA394A"/>
<path d="M222.616 256.814C222.63 256.813 222.644 256.805 222.654 256.79C222.664 256.775 222.67 256.754 222.671 256.732C222.672 256.711 222.668 256.689 222.66 256.672C222.651 256.654 222.639 256.643 222.625 256.639L219.72 255.091C219.713 255.089 219.706 255.09 219.699 255.092C219.691 255.095 219.685 255.1 219.679 255.107C219.673 255.114 219.668 255.122 219.664 255.132C219.66 255.142 219.658 255.153 219.657 255.165C219.655 255.188 219.658 255.211 219.667 255.23C219.676 255.249 219.689 255.261 219.704 255.264L222.608 256.813C222.611 256.813 222.614 256.814 222.616 256.814Z" fill="#0C0C0C"/>
<path d="M219.764 255.165C219.766 255.192 219.76 255.219 219.749 255.241C219.743 255.25 219.735 255.257 219.727 255.261C219.718 255.265 219.709 255.266 219.701 255.264L205.071 248.48L203.605 259.272L216.203 266.514C216.164 266.535 216.123 266.555 216.084 266.575C216.056 266.59 216.028 266.605 215.998 266.617L203.523 259.419C203.509 259.413 203.496 259.399 203.489 259.38C203.481 259.36 203.479 259.337 203.482 259.314L204.978 248.349C204.98 248.338 204.983 248.327 204.987 248.318C204.992 248.309 204.997 248.302 205.004 248.296C205.01 248.289 205.017 248.285 205.024 248.283C205.032 248.281 205.039 248.281 205.047 248.285L219.641 255.078L217.989 244.374C217.987 244.351 217.991 244.328 217.999 244.31C218.008 244.291 218.021 244.279 218.036 244.275C218.043 244.273 218.05 244.273 218.057 244.275C218.065 244.278 218.071 244.282 218.078 244.289C218.084 244.295 218.089 244.303 218.093 244.313C218.097 244.323 218.099 244.334 218.101 244.345L219.764 255.165Z" fill="#0C0C0C"/>
<path d="M28.9929 241.18C28.9793 241.18 28.9658 241.175 28.9532 241.167C28.9408 241.159 28.9296 241.147 28.9202 241.132C28.9107 241.117 28.9033 241.099 28.8982 241.08C28.8931 241.06 28.8905 241.039 28.8906 241.018C28.8907 240.997 28.8934 240.976 28.8986 240.957L32.9041 225.998C32.9147 225.958 32.9347 225.927 32.9598 225.911C32.985 225.895 33.0131 225.895 33.0381 225.912C33.0631 225.929 33.0829 225.96 33.0931 226C33.1033 226.039 33.1031 226.083 33.0926 226.123L29.0871 241.081C29.0793 241.11 29.0662 241.135 29.0495 241.153C29.0327 241.17 29.013 241.18 28.9929 241.18Z" fill="#0C0C0C"/>
<path d="M52.5616 241.349H52.5571C52.5437 241.35 52.5303 241.347 52.5177 241.339C52.505 241.332 52.4934 241.321 52.4835 241.307C52.4736 241.293 52.4656 241.276 52.4599 241.256C52.4542 241.237 52.451 241.217 52.4504 241.196L52.0039 225.896C52.0036 225.854 52.0134 225.813 52.0315 225.782C52.0495 225.75 52.0745 225.731 52.1012 225.728C52.1146 225.727 52.1281 225.73 52.1407 225.737C52.1534 225.744 52.165 225.755 52.1749 225.769C52.1848 225.784 52.1929 225.801 52.1986 225.82C52.2043 225.839 52.2075 225.86 52.2081 225.881L52.6546 241.181C52.6559 241.222 52.647 241.263 52.6296 241.294C52.6123 241.326 52.5879 241.345 52.5616 241.349Z" fill="#0C0C0C"/>
</svg>
