<svg width="282" height="290" viewBox="0 0 282 290" fill="none" xmlns="http://www.w3.org/2000/svg">
<circle cx="130.5" cy="140.066" r="130.5" fill="#EF3E2A"/>
<path d="M76.1914 193.395H53.6914V200.599H76.1914V193.395Z" fill="#F4F4F4"/>
<path opacity="0.05" d="M59.661 193.395H56.7129V200.599H59.661V193.395Z" fill="#292A2E"/>
<path d="M73.3173 194.96H61.0586V199.229H73.3173V194.96Z" fill="white"/>
<path d="M94.1387 194.334L73.2324 184.286L70.6121 190.888L91.5184 200.936L94.1387 194.334Z" fill="#F4F4F4"/>
<path opacity="0.05" d="M94.1387 194.334L73.2324 184.286L70.6121 190.888L91.5184 200.936L94.1387 194.334Z" fill="#292A2E"/>
<path d="M91.3312 192.985L88.5918 191.668L85.9715 198.27L88.7109 199.586L91.3312 192.985Z" fill="white"/>
<path d="M86.7242 192.479L75.334 187.005L73.7812 190.917L85.1714 196.391L86.7242 192.479Z" fill="white"/>
<path opacity="0.05" d="M94.1777 284.656H88.5234V288.812H94.1777V284.656Z" fill="#292A2E"/>
<path opacity="0.05" d="M36.3691 284.656H30.7148V288.812H36.3691V284.656Z" fill="#292A2E"/>
<path d="M99.3605 200.937H25.5312V284.515H99.3605V200.937Z" fill="#F4F4F4"/>
<path opacity="0.03" d="M99.3605 200.937H25.5312V284.515H99.3605V200.937Z" fill="#292A2E"/>
<path d="M113.042 200.937H39.2129V284.515H113.042V200.937Z" fill="#F4F4F4"/>
<path opacity="0.05" d="M107.859 284.656H102.205V288.812H107.859V284.656Z" fill="#292A2E"/>
<path opacity="0.05" d="M50.0508 284.656H44.3965V288.812H50.0508V284.656Z" fill="#292A2E"/>
<path opacity="0.7" d="M110.271 204.851H41.9844V220.908H110.271V204.851Z" fill="white"/>
<path opacity="0.7" d="M110.271 224.838H41.9844V240.895H110.271V224.838Z" fill="white"/>
<path opacity="0.7" d="M110.271 244.825H41.9844V260.882H110.271V244.825Z" fill="white"/>
<path opacity="0.05" d="M76.1277 215.126C77.2553 215.126 78.1694 214.12 78.1694 212.88C78.1694 211.639 77.2553 210.633 76.1277 210.633C75 210.633 74.0859 211.639 74.0859 212.88C74.0859 214.12 75 215.126 76.1277 215.126Z" fill="#292A2E"/>
<path opacity="0.05" d="M76.1277 235.114C77.2553 235.114 78.1694 234.108 78.1694 232.867C78.1694 231.626 77.2553 230.62 76.1277 230.62C75 230.62 74.0859 231.626 74.0859 232.867C74.0859 234.108 75 235.114 76.1277 235.114Z" fill="#292A2E"/>
<path opacity="0.05" d="M76.1277 255.101C77.2553 255.101 78.1694 254.095 78.1694 252.854C78.1694 251.613 77.2553 250.607 76.1277 250.607C75 250.607 74.0859 251.613 74.0859 252.854C74.0859 254.095 75 255.101 76.1277 255.101Z" fill="#292A2E"/>
<path opacity="0.7" d="M110.271 265.264H41.9844V281.321H110.271V265.264Z" fill="white"/>
<path opacity="0.05" d="M76.1277 275.539C77.2553 275.539 78.1693 274.533 78.1693 273.293C78.1693 272.052 77.2553 271.046 76.1277 271.046C75 271.046 74.0859 272.052 74.0859 273.293C74.0859 274.533 75 275.539 76.1277 275.539Z" fill="#292A2E"/>
<path d="M4.19608 289.387H281.621C281.673 289.387 281.723 289.364 281.76 289.323C281.796 289.283 281.817 289.228 281.817 289.171C281.817 289.114 281.796 289.059 281.76 289.018C281.723 288.978 281.673 288.955 281.621 288.955H4.19608C4.14407 288.955 4.0942 288.978 4.05743 289.018C4.02066 289.059 4 289.114 4 289.171C4 289.228 4.02066 289.283 4.05743 289.323C4.0942 289.364 4.14407 289.387 4.19608 289.387Z" fill="#292A2E"/>
<g opacity="0.65">
<path opacity="0.65" d="M4.19608 289.387H281.621C281.673 289.387 281.723 289.364 281.76 289.323C281.796 289.283 281.817 289.228 281.817 289.171C281.817 289.114 281.796 289.059 281.76 289.018C281.723 288.978 281.673 288.955 281.621 288.955H4.19608C4.14407 288.955 4.0942 288.978 4.05743 289.018C4.02066 289.059 4 289.114 4 289.171C4 289.228 4.02066 289.283 4.05743 289.323C4.0942 289.364 4.14407 289.387 4.19608 289.387Z" fill="#292A2E"/>
</g>
<path d="M262.848 289.261L263.398 289.144L254.8 195.123L254.25 195.24L262.848 289.261Z" fill="#494949"/>
<path d="M230.832 289.261L231.382 289.144L222.785 195.123L222.234 195.24L230.832 289.261Z" fill="#494949"/>
<path d="M160.064 289.261L159.514 289.144L168.112 195.123L168.662 195.24L160.064 289.261Z" fill="#494949"/>
<path d="M192.079 289.261L191.529 289.144L200.127 195.123L200.677 195.24L192.079 289.261Z" fill="#494949"/>
<path d="M203.48 153.741L198.457 195.139L199.012 195.22L204.035 153.823L203.48 153.741Z" fill="#494949"/>
<path d="M261.132 153.741L256.109 195.139L256.665 195.22L261.688 153.823L261.132 153.741Z" fill="#494949"/>
<path d="M198.508 198.213H254.899C256.421 198.213 257.654 196.856 257.654 195.181V195.181C257.654 193.507 256.421 192.15 254.899 192.15H198.508C196.987 192.15 195.753 193.507 195.753 195.181V195.181C195.753 196.856 196.987 198.213 198.508 198.213Z" fill="#292A2E"/>
<path opacity="0.8" d="M198.508 198.213H254.899C256.421 198.213 257.654 196.856 257.654 195.181V195.181C257.654 193.507 256.421 192.15 254.899 192.15H198.508C196.987 192.15 195.753 193.507 195.753 195.181V195.181C195.753 196.856 196.987 198.213 198.508 198.213Z" fill="white"/>
<path d="M195.473 195.183C195.473 194.297 195.793 193.448 196.362 192.822C196.931 192.195 197.703 191.843 198.508 191.842H254.899C255.704 191.842 256.476 192.194 257.045 192.82C257.614 193.446 257.934 194.296 257.934 195.182C257.934 196.067 257.614 196.917 257.045 197.543C256.476 198.169 255.704 198.521 254.899 198.521H198.508C197.703 198.52 196.932 198.168 196.363 197.542C195.794 196.917 195.474 196.068 195.473 195.183ZM198.508 192.46C197.851 192.46 197.222 192.746 196.758 193.257C196.294 193.768 196.033 194.461 196.033 195.183C196.033 195.905 196.294 196.598 196.758 197.108C197.222 197.619 197.851 197.906 198.508 197.906H254.899C255.555 197.906 256.185 197.619 256.649 197.108C257.113 196.598 257.374 195.905 257.374 195.183C257.374 194.461 257.113 193.768 256.649 193.257C256.185 192.746 255.555 192.46 254.899 192.46H198.508Z" fill="#292A2E"/>
<path d="M167.557 198.213H223.948C225.47 198.213 226.703 196.856 226.703 195.181V195.181C226.703 193.507 225.47 192.15 223.948 192.15H167.557C166.035 192.15 164.802 193.507 164.802 195.181V195.181C164.802 196.856 166.035 198.213 167.557 198.213Z" fill="white"/>
<path d="M164.521 195.183C164.522 194.297 164.843 193.448 165.412 192.822C165.981 192.196 166.752 191.844 167.557 191.843H223.948C224.753 191.843 225.525 192.195 226.094 192.821C226.663 193.447 226.983 194.297 226.983 195.183C226.983 196.068 226.663 196.918 226.094 197.544C225.525 198.17 224.753 198.522 223.948 198.522H167.557C166.752 198.521 165.981 198.169 165.412 197.543C164.843 196.917 164.523 196.068 164.521 195.183ZM167.557 192.459C166.9 192.459 166.271 192.746 165.807 193.257C165.343 193.768 165.082 194.46 165.082 195.183C165.082 195.905 165.343 196.597 165.807 197.108C166.271 197.619 166.9 197.906 167.557 197.906H223.948C224.605 197.906 225.234 197.619 225.698 197.108C226.162 196.597 226.423 195.905 226.423 195.183C226.423 194.46 226.162 193.768 225.698 193.257C225.234 192.746 224.605 192.459 223.948 192.459H167.557Z" fill="#292A2E"/>
<path d="M206.572 153.784H261.262C262.156 153.784 263.02 153.426 263.692 152.777C264.364 152.128 264.798 151.232 264.913 150.256L268.531 119.685C268.598 119.114 268.554 118.533 268.402 117.982C268.249 117.431 267.992 116.921 267.646 116.488C267.301 116.055 266.875 115.709 266.398 115.471C265.921 115.233 265.403 115.11 264.88 115.11H210.188C209.294 115.11 208.431 115.469 207.759 116.118C207.087 116.767 206.653 117.663 206.537 118.639L202.919 149.209C202.852 149.781 202.896 150.362 203.048 150.913C203.201 151.465 203.459 151.974 203.805 152.407C204.15 152.84 204.576 153.187 205.053 153.424C205.53 153.662 206.048 153.784 206.572 153.784Z" fill="#292A2E"/>
<path opacity="0.8" d="M206.572 153.784H261.262C262.156 153.784 263.02 153.426 263.692 152.777C264.364 152.128 264.798 151.232 264.913 150.256L268.531 119.685C268.598 119.114 268.554 118.533 268.402 117.982C268.249 117.431 267.992 116.921 267.646 116.488C267.301 116.055 266.875 115.709 266.398 115.471C265.921 115.233 265.403 115.11 264.88 115.11H210.188C209.294 115.11 208.431 115.469 207.759 116.118C207.087 116.767 206.653 117.663 206.537 118.639L202.919 149.209C202.852 149.781 202.896 150.362 203.048 150.913C203.201 151.465 203.459 151.974 203.805 152.407C204.15 152.84 204.576 153.187 205.053 153.424C205.53 153.662 206.048 153.784 206.572 153.784Z" fill="white"/>
<path d="M203.595 152.609C203.223 152.143 202.946 151.596 202.781 151.003C202.617 150.409 202.57 149.785 202.642 149.17L206.26 118.599C206.386 117.55 206.854 116.587 207.576 115.889C208.299 115.19 209.227 114.804 210.188 114.802H264.88C265.443 114.802 266 114.934 266.514 115.19C267.027 115.445 267.485 115.819 267.857 116.285C268.229 116.751 268.506 117.298 268.67 117.892C268.834 118.485 268.881 119.11 268.809 119.725L265.191 150.295C265.065 151.344 264.597 152.307 263.874 153.006C263.152 153.704 262.224 154.09 261.262 154.092H206.572C206.008 154.092 205.451 153.96 204.938 153.704C204.425 153.448 203.967 153.075 203.595 152.609ZM210.188 115.418C209.363 115.421 208.566 115.752 207.946 116.352C207.326 116.951 206.924 117.778 206.816 118.679L203.198 149.249C203.136 149.777 203.177 150.314 203.318 150.823C203.458 151.333 203.697 151.803 204.016 152.203C204.335 152.603 204.728 152.923 205.169 153.143C205.61 153.362 206.088 153.476 206.572 153.476H261.262C262.088 153.474 262.885 153.143 263.505 152.543C264.125 151.944 264.527 151.117 264.635 150.216L268.253 119.645C268.315 119.117 268.275 118.581 268.134 118.072C267.993 117.562 267.755 117.092 267.436 116.692C267.116 116.292 266.723 115.971 266.283 115.752C265.842 115.532 265.364 115.419 264.88 115.419L210.188 115.418Z" fill="#292A2E"/>
<path d="M203.479 153.784H258.17C259.065 153.784 259.928 153.426 260.6 152.777C261.272 152.128 261.706 151.232 261.822 150.256L265.439 119.685C265.507 119.114 265.463 118.533 265.31 117.982C265.158 117.43 264.9 116.921 264.554 116.488C264.209 116.055 263.783 115.709 263.306 115.471C262.829 115.233 262.312 115.11 261.788 115.11H207.096C206.202 115.11 205.339 115.469 204.667 116.118C203.995 116.767 203.561 117.663 203.445 118.639L199.828 149.209C199.76 149.781 199.804 150.362 199.956 150.913C200.109 151.464 200.367 151.973 200.712 152.406C201.058 152.839 201.483 153.186 201.96 153.424C202.437 153.661 202.955 153.784 203.479 153.784Z" fill="white"/>
<path d="M200.501 152.609C200.129 152.143 199.852 151.596 199.688 151.002C199.523 150.409 199.476 149.784 199.549 149.17L203.166 118.599C203.293 117.55 203.76 116.587 204.483 115.889C205.205 115.19 206.133 114.804 207.095 114.802H261.786C262.349 114.802 262.906 114.934 263.42 115.19C263.933 115.445 264.391 115.819 264.763 116.285C265.135 116.751 265.412 117.298 265.576 117.892C265.74 118.485 265.788 119.11 265.715 119.725L262.097 150.295C261.971 151.344 261.503 152.307 260.781 153.005C260.059 153.703 259.131 154.089 258.17 154.092H203.478C202.915 154.092 202.358 153.96 201.844 153.704C201.331 153.448 200.873 153.075 200.501 152.609ZM207.096 115.418C206.27 115.42 205.473 115.752 204.853 116.352C204.232 116.951 203.831 117.778 203.722 118.679L200.105 149.249C200.042 149.777 200.083 150.314 200.224 150.823C200.365 151.333 200.603 151.803 200.922 152.203C201.241 152.603 201.634 152.923 202.075 153.143C202.516 153.362 202.994 153.476 203.478 153.476H258.17C258.995 153.474 259.792 153.143 260.413 152.543C261.033 151.944 261.435 151.117 261.543 150.216L265.161 119.646C265.223 119.118 265.183 118.581 265.042 118.072C264.901 117.562 264.663 117.092 264.343 116.692C264.024 116.292 263.631 115.971 263.19 115.752C262.749 115.532 262.271 115.419 261.787 115.419L207.096 115.418Z" fill="#292A2E"/>
<path d="M211.244 65.8926C211.244 65.8926 208.016 62.3593 207.981 55.3411C207.953 49.907 211.991 54.0333 211.991 54.0333C211.991 54.0333 212.006 50.1203 214.502 50.8853C216.998 51.6503 217.922 55.9021 217.922 55.9021" fill="#0C0C0C"/>
<path d="M227.6 53.3174C227.6 53.3174 240.04 56.7098 233.132 74.8482L232.005 74.7622L229.716 74.5874" fill="#0C0C0C"/>
<path d="M211.633 93.6992C211.689 93.6909 212.311 105.042 224.295 104.053C232.592 103.369 235.55 93.6829 235.741 93.6829C234.846 93.4739 233.741 93.1564 233.301 93.0473C232.344 92.8025 231.477 92.2428 230.816 91.4427C230.155 90.6426 229.731 89.6399 229.6 88.568C229.357 86.9591 229.768 78.7267 229.642 77.0986L216.906 80.2269C217.084 83.6653 218.33 91.6365 213.965 93.0473C213.237 93.2806 212.454 93.4943 211.633 93.6992Z" fill="#E98862"/>
<path opacity="0.52" d="M216.727 89.7897C216.926 89.0823 217.055 88.3528 217.11 87.6145C217.25 85.93 217.221 84.2336 217.026 82.5558C219.614 82.1713 222.053 80.9955 224.065 79.1621C224.301 80.1232 225.602 84.3226 225.241 85.2343C224.562 86.9626 221.363 89.7897 216.727 89.7897Z" fill="#0C0C0C"/>
<path d="M218.63 86.4789C223.669 86.7381 230.059 84.1752 231.069 76.7526L231.982 70.0549C232.994 62.6323 230.271 56.0302 223.92 54.9822C217.569 53.9342 212.002 59.1684 210.99 66.591L210.586 69.5559C210.464 70.5767 210.404 71.6055 210.409 72.6352C210.403 75.3562 210.403 79.4952 211.709 82.4919C212.942 85.3209 215.411 86.3128 218.63 86.4789Z" fill="#E98862"/>
<path d="M217.167 79.3339C216.133 79.2301 215.136 78.8606 214.256 78.255C214.237 78.2435 214.22 78.2279 214.207 78.209C214.193 78.1902 214.183 78.1685 214.178 78.1453C214.172 78.1221 214.17 78.0979 214.173 78.0741C214.176 78.0503 214.184 78.0274 214.195 78.0068C214.206 77.9862 214.221 77.9682 214.239 77.9541C214.256 77.94 214.276 77.9299 214.298 77.9245C214.319 77.9191 214.341 77.9185 214.362 77.9227C214.384 77.9269 214.404 77.9358 214.423 77.949C216.325 79.2019 218.176 79.3394 219.778 78.3475C219.81 78.3263 219.844 78.3071 219.878 78.2899C219.918 78.2738 219.961 78.2753 220 78.2941C220.038 78.3129 220.069 78.3474 220.085 78.3904C220.1 78.4334 220.1 78.4815 220.085 78.5244C220.069 78.5674 220.038 78.6019 220 78.6206C219.987 78.6268 219.966 78.6403 219.937 78.6582C219.095 79.1818 218.131 79.4171 217.167 79.3339Z" fill="#0C0C0C"/>
<path d="M217.006 81.0169C216.819 81.0014 216.633 80.9684 216.451 80.9183C216.431 80.9127 216.411 80.9026 216.394 80.8888C216.377 80.8749 216.362 80.8574 216.351 80.8374C216.34 80.8173 216.333 80.7951 216.33 80.772C216.327 80.7488 216.328 80.7252 216.333 80.7025C216.338 80.6798 216.347 80.6584 216.36 80.6395C216.372 80.6207 216.388 80.6047 216.406 80.5926C216.425 80.5805 216.445 80.5725 216.466 80.569C216.487 80.5654 216.508 80.5665 216.529 80.5721C217.625 80.8696 218.225 80.389 218.25 80.3684C218.285 80.3398 218.328 80.3273 218.37 80.3337C218.413 80.3401 218.451 80.3648 218.477 80.4024C218.504 80.4401 218.515 80.4876 218.509 80.5344C218.503 80.5813 218.481 80.6236 218.447 80.6523C218.019 80.9532 217.51 81.0821 217.006 81.0169Z" fill="#0C0C0C"/>
<path d="M212.803 69.8308C213.24 69.8308 213.594 69.441 213.594 68.9603C213.594 68.4796 213.24 68.0898 212.803 68.0898C212.366 68.0898 212.012 68.4796 212.012 68.9603C212.012 69.441 212.366 69.8308 212.803 69.8308Z" fill="#0C0C0C"/>
<path d="M220.158 70.3708C220.595 70.3708 220.949 69.9811 220.949 69.5003C220.949 69.0196 220.595 68.6299 220.158 68.6299C219.721 68.6299 219.367 69.0196 219.367 69.5003C219.367 69.9811 219.721 70.3708 220.158 70.3708Z" fill="#0C0C0C"/>
<path d="M230.366 78.9489C232.296 79.2673 234.171 77.2536 234.46 75.1295C234.75 73.0055 233.344 71.5762 231.415 71.2578L230.226 72.5166L228.707 78.6752L230.366 78.9489Z" fill="#E98862"/>
<path d="M228.869 75.2398C228.869 75.2398 229.526 64.6199 226.707 63.533C224.831 62.8093 219.773 65.1177 215.549 63.5537C213.7 62.8694 211.835 63.1148 211.529 64.0734C211.408 64.4528 210.925 58.6629 214.426 54.8516C217.214 51.817 225.075 52.0266 228.46 53.6695C237.829 58.2185 231.756 71.7808 231.756 71.7808L230.87 75.3425L228.869 75.2398Z" fill="#0C0C0C"/>
<path d="M216.306 76.6746H216.294C215.672 76.5738 214.638 76.3284 214.706 75.8161C214.762 75.3917 216.432 70.9815 216.623 70.4803C216.63 70.458 216.642 70.4376 216.656 70.4204C216.671 70.4031 216.689 70.3893 216.709 70.3799C216.729 70.3704 216.75 70.3654 216.772 70.3652C216.793 70.3651 216.815 70.3697 216.834 70.3788C216.854 70.388 216.872 70.4014 216.888 70.4184C216.903 70.4354 216.914 70.4556 216.922 70.4778C216.93 70.4999 216.934 70.5235 216.933 70.5473C216.932 70.571 216.927 70.5944 216.918 70.6159C216.177 72.5689 215.062 75.5785 215.023 75.8673C215.069 75.9983 215.696 76.2211 216.34 76.3259C216.381 76.333 216.417 76.357 216.442 76.3929C216.467 76.4288 216.478 76.4739 216.474 76.5189C216.47 76.5638 216.45 76.6052 216.418 76.6345C216.387 76.6637 216.347 76.6786 216.306 76.6761L216.306 76.6746Z" fill="#0C0C0C"/>
<path d="M215.457 66.1041C214.826 65.8074 214.135 65.7036 213.456 65.8035C213.122 65.8503 212.797 65.9518 212.491 66.1047C212.188 66.2543 211.904 66.4453 211.646 66.6731C211.598 66.7134 211.566 66.7724 211.557 66.8377C211.548 66.903 211.562 66.9697 211.597 67.0238C211.631 67.0779 211.683 67.1153 211.742 67.1282C211.801 67.1412 211.862 67.1286 211.913 67.0932L211.929 67.0818C212.165 66.8999 212.42 66.7514 212.69 66.6398C212.955 66.5283 213.233 66.4617 213.516 66.4422C214.074 66.399 214.632 66.5184 215.135 66.7884L215.156 66.8004C215.239 66.8472 215.335 66.856 215.423 66.8248C215.512 66.7936 215.585 66.725 215.628 66.6341C215.671 66.5431 215.679 66.4373 215.65 66.3399C215.622 66.2425 215.56 66.1614 215.477 66.1146L215.457 66.1041Z" fill="#0C0C0C"/>
<path d="M220.04 67.2359C220.571 67.0446 221.139 67.0112 221.686 67.1391C221.964 67.2013 222.232 67.3096 222.48 67.4603C222.733 67.6118 222.967 67.7977 223.178 68.0136L223.192 68.0268C223.237 68.0703 223.296 68.0926 223.357 68.0891C223.417 68.0856 223.474 68.0565 223.515 68.008C223.556 67.9595 223.578 67.8954 223.578 67.829C223.577 67.7626 223.553 67.6992 223.51 67.652C223.282 67.3871 223.025 67.1548 222.744 66.9607C222.46 66.7627 222.151 66.6126 221.827 66.5156C221.166 66.3134 220.468 66.3112 219.807 66.5091C219.717 66.5367 219.641 66.6023 219.596 66.6914C219.55 66.7806 219.539 66.886 219.564 66.9845C219.589 67.0831 219.648 67.1666 219.729 67.2167C219.811 67.2669 219.906 67.2795 219.996 67.2519L220.016 67.2448L220.04 67.2359Z" fill="#0C0C0C"/>
<path d="M221.127 55.9105C221.856 53.659 221.319 51.3921 219.929 50.8474C218.539 50.3026 216.821 51.6862 216.093 53.9378C215.364 56.1894 215.9 58.4563 217.291 59.001C218.681 59.5458 220.398 58.1621 221.127 55.9105Z" fill="#0C0C0C"/>
<path d="M134.074 273.281C134.074 273.281 132.572 281.848 125.283 282.325C117.994 282.803 119.574 289.193 119.574 289.193H147.429V273.879L134.074 273.281Z" fill="#2A2CA8"/>
<path d="M187.068 267.872C187.068 267.872 189.156 276.289 182.807 280.258C176.458 284.227 180.44 289.193 180.44 289.193L205.434 275.662L199.291 261.921L187.068 267.872Z" fill="#2A2CA8"/>
<path d="M202.548 265.495L181.469 192.323H219.676C227.351 192.323 230.551 185.161 230.551 176.716C230.551 168.271 223.006 160.868 215.331 160.868H163.766C159.085 160.868 153.836 164.018 151.268 168.324C148.699 172.63 149.393 179.303 151.254 184.029L185.007 274.239" fill="#262626"/>
<path opacity="0.8" d="M202.548 265.495L181.469 192.323H219.676C227.351 192.323 230.551 185.161 230.551 176.716C230.551 168.271 223.006 160.868 215.331 160.868H163.766C159.085 160.868 153.836 164.018 151.268 168.324C148.699 172.63 149.393 179.303 151.254 184.029L185.007 274.239" fill="#0A0A0A"/>
<path d="M149.032 281.237L184.275 192.323L230.551 192.32C241.394 191.384 246.36 184.845 246.202 176.402C246.047 168.066 242.211 159.832 234.669 159.832H172.298C166.718 159.958 162.328 166.744 160.258 172.447L130.959 275.794" fill="#262626"/>
<path d="M249.359 159.934C249.359 159.934 251.414 174.682 248.156 182.881C244.089 193.117 228.844 192.32 228.844 192.32L229.703 159.832L249.359 159.934Z" fill="#262626"/>
<path d="M158.933 159.644L191.621 152.19C192.983 151.879 194.252 151.196 195.311 150.202C196.369 149.209 197.183 147.938 197.676 146.507L210.533 109.225C210.925 108.106 211.111 106.913 211.083 105.714C211.054 104.516 210.81 103.335 210.366 102.241C209.921 101.146 209.284 100.159 208.492 99.3358C207.7 98.5128 206.768 97.8701 205.749 97.4447C204.73 97.0193 203.645 96.8196 202.556 96.857C201.467 96.8944 200.396 97.1682 199.403 97.6626C198.41 98.1571 197.516 98.8625 196.772 99.7383C196.028 100.614 195.449 101.643 195.067 102.766L183.82 135.377L155.576 141.818C155.576 141.818 158.367 159.773 158.933 159.644Z" fill="#2A2CA8"/>
<path d="M196.743 118.692C197.12 123.572 199.796 154.019 200.16 160.03H249.339C249.622 154.608 250.539 131.59 251.611 120.989C252.634 110.872 253.005 105.099 251.827 101.955C249.749 96.4097 244.549 94.4145 240.07 93.7472C237.336 93.34 233.222 93.0478 233.222 93.0478C233.222 93.0478 232.874 100.8 224.569 101.231C213.264 101.817 214.019 93.0469 213.963 93.0469C212.132 93.0469 202.163 94.5125 199.67 96.3003C196.149 98.8257 195.109 102.267 195.068 105.428C195.02 109.07 196.314 113.157 196.743 118.692Z" fill="#2A2CA8"/>
<path d="M198.675 143.57H198.686C198.723 143.567 198.758 143.547 198.781 143.516C198.805 143.485 198.817 143.444 198.814 143.404L197.537 126.527C197.536 126.506 197.531 126.486 197.523 126.468C197.515 126.45 197.503 126.434 197.489 126.42C197.475 126.407 197.459 126.397 197.441 126.391C197.423 126.385 197.405 126.383 197.386 126.386C197.368 126.387 197.35 126.393 197.334 126.402C197.317 126.411 197.303 126.424 197.291 126.44C197.279 126.455 197.27 126.473 197.264 126.492C197.259 126.512 197.257 126.532 197.258 126.552L198.534 143.429C198.537 143.467 198.553 143.503 198.579 143.529C198.605 143.556 198.639 143.57 198.675 143.57Z" fill="#0C0C0C"/>
<path d="M175.251 153.7L164.46 117.198C164.271 116.557 163.902 115.998 163.406 115.602C162.91 115.205 162.313 114.991 161.7 114.991H117.736C117.277 114.991 116.825 115.111 116.417 115.34C116.009 115.568 115.656 115.901 115.386 116.309C115.117 116.717 114.939 117.189 114.868 117.687C114.796 118.185 114.833 118.695 114.975 119.175L125.766 155.677C125.955 156.318 126.324 156.877 126.82 157.274C127.316 157.67 127.914 157.883 128.527 157.883H172.49C172.948 157.883 173.4 157.764 173.808 157.535C174.217 157.306 174.57 156.974 174.839 156.566C175.109 156.158 175.286 155.685 175.358 155.187C175.429 154.689 175.393 154.18 175.251 153.7Z" fill="#292A2E"/>
<path d="M175.251 153.7L164.46 117.198C164.271 116.557 163.902 115.998 163.406 115.602C162.91 115.205 162.313 114.991 161.7 114.991H117.736C117.277 114.991 116.825 115.111 116.417 115.34C116.009 115.568 115.656 115.901 115.386 116.309C115.117 116.717 114.939 117.189 114.868 117.687C114.796 118.185 114.833 118.695 114.975 119.175L125.766 155.677C125.955 156.318 126.324 156.877 126.82 157.274C127.316 157.67 127.914 157.883 128.527 157.883H172.49C172.948 157.883 173.4 157.764 173.808 157.535C174.217 157.306 174.57 156.974 174.839 156.566C175.109 156.158 175.286 155.685 175.358 155.187C175.429 154.689 175.393 154.18 175.251 153.7Z" fill="#292A2E"/>
<path d="M195.878 154.923H166.449C165.716 154.923 165.121 155.577 165.121 156.384V156.421C165.121 157.228 165.716 157.883 166.449 157.883H195.878C196.611 157.883 197.206 157.228 197.206 156.421V156.384C197.206 155.577 196.611 154.923 195.878 154.923Z" fill="#292A2E"/>
<path d="M195.878 154.923H166.449C165.716 154.923 165.121 155.577 165.121 156.384V156.421C165.121 157.228 165.716 157.883 166.449 157.883H195.878C196.611 157.883 197.206 157.228 197.206 156.421V156.384C197.206 155.577 196.611 154.923 195.878 154.923Z" fill="#292A2E"/>
<path d="M145.113 143.292C147.659 143.292 149.724 141.021 149.724 138.218C149.724 135.416 147.659 133.145 145.113 133.145C142.566 133.145 140.502 135.416 140.502 138.218C140.502 141.021 142.566 143.292 145.113 143.292Z" fill="white"/>
<path d="M177.71 145.149L185.055 142.316L184.001 142.236C183.661 142.203 183.345 142.028 183.117 141.749C182.889 141.469 182.767 141.105 182.774 140.729C182.783 140.536 182.829 140.346 182.907 140.173C182.986 139.999 183.096 139.845 183.23 139.72C183.365 139.594 183.521 139.5 183.689 139.443C183.858 139.387 184.035 139.368 184.21 139.389L197.205 140.909L196.867 145.504C196.762 146.931 196.272 148.291 195.46 149.41C194.648 150.529 193.551 151.356 192.31 151.784L186.682 153.713C186.392 153.819 186.077 153.812 185.79 153.692C185.504 153.573 185.264 153.348 185.111 153.056C184.978 152.789 184.926 152.482 184.963 152.18C185 151.878 185.123 151.598 185.315 151.378C185.298 151.365 185.285 151.346 185.276 151.324C185.269 151.304 185.267 151.282 185.27 151.261C185.273 151.239 185.281 151.219 185.292 151.201L184.256 151.559C183.932 151.679 183.58 151.659 183.269 151.503C182.959 151.347 182.713 151.068 182.583 150.721C182.476 150.406 182.474 150.06 182.577 149.744C182.679 149.427 182.88 149.161 183.143 148.991C183.131 148.984 183.12 148.974 183.111 148.963L182.685 149.11C182.394 149.217 182.078 149.211 181.791 149.091C181.504 148.971 181.264 148.746 181.111 148.453C180.95 148.13 180.909 147.75 180.997 147.393C181.084 147.037 181.294 146.732 181.582 146.542C181.579 146.533 181.578 146.523 181.578 146.513L178.519 147.693C178.367 147.752 178.207 147.777 178.046 147.767C177.886 147.757 177.729 147.712 177.584 147.636C177.291 147.481 177.067 147.205 176.959 146.868C176.852 146.531 176.871 146.161 177.012 145.839C177.152 145.517 177.403 145.27 177.71 145.152L177.71 145.149Z" fill="#E98862"/>
<path opacity="0.2" d="M181.699 146.642C181.713 146.642 181.727 146.639 181.741 146.634L184.699 145.45C184.714 145.444 184.728 145.434 184.74 145.423C184.752 145.411 184.761 145.396 184.768 145.38C184.775 145.364 184.779 145.347 184.779 145.329C184.78 145.312 184.777 145.294 184.772 145.277C184.766 145.261 184.758 145.246 184.747 145.233C184.736 145.22 184.723 145.209 184.709 145.202C184.694 145.194 184.678 145.19 184.662 145.19C184.646 145.189 184.63 145.192 184.615 145.198L181.657 146.382C181.63 146.392 181.607 146.413 181.593 146.441C181.578 146.468 181.573 146.5 181.578 146.531C181.583 146.562 181.598 146.59 181.62 146.61C181.642 146.631 181.67 146.642 181.698 146.642H181.699Z" fill="#0A0A0A"/>
<path opacity="0.2" d="M183.194 149.008C183.208 149.008 183.222 149.006 183.235 149L185.567 148.09C185.582 148.084 185.596 148.075 185.609 148.063C185.621 148.052 185.631 148.037 185.638 148.021C185.645 148.005 185.65 147.988 185.65 147.97C185.651 147.952 185.649 147.934 185.644 147.917C185.638 147.901 185.63 147.885 185.619 147.872C185.608 147.859 185.595 147.848 185.58 147.841C185.565 147.833 185.549 147.829 185.533 147.828C185.517 147.828 185.501 147.831 185.486 147.837L183.153 148.748C183.126 148.758 183.104 148.779 183.089 148.806C183.074 148.834 183.069 148.866 183.074 148.897C183.079 148.928 183.094 148.956 183.116 148.977C183.138 148.997 183.165 149.008 183.194 149.008Z" fill="#0A0A0A"/>
<path opacity="0.2" d="M185.391 151.412C185.406 151.412 185.421 151.409 185.435 151.403L186.527 150.945C186.557 150.932 186.582 150.907 186.595 150.874C186.608 150.842 186.609 150.805 186.597 150.772C186.586 150.739 186.563 150.712 186.533 150.697C186.504 150.683 186.47 150.682 186.44 150.694L185.348 151.153C185.321 151.164 185.299 151.185 185.285 151.213C185.271 151.24 185.266 151.272 185.272 151.302C185.277 151.333 185.291 151.361 185.313 151.381C185.335 151.401 185.363 151.412 185.391 151.412H185.391Z" fill="#0A0A0A"/>
<path d="M191.454 138.189L222.266 138.166L233.923 106.877L251.312 114.922L236.768 152.058L236.626 152.428C235.914 154.233 234.716 155.754 233.193 156.784C231.67 157.815 229.895 158.305 228.11 158.189L190.988 155.776L191.454 138.189Z" fill="#2A2CA8"/>
<path d="M228.621 158.359C230.348 158.356 232.037 157.799 233.481 156.757C234.926 155.714 236.063 154.231 236.754 152.489L236.896 152.119L249.288 120.477L249.031 120.353L236.496 152.368C235.792 154.141 234.613 155.635 233.115 156.648C231.617 157.661 229.873 158.145 228.118 158.035L191.131 155.631L191.59 138.344L222.359 138.322L231.323 114.263L231.063 114.146L222.172 138.013L191.318 138.037L190.844 155.921L190.98 155.93L228.102 158.343C228.275 158.354 228.45 158.359 228.621 158.359Z" fill="#0C0C0C"/>
<path d="M71.457 160.839L59.6484 289.48L60.2058 289.542L72.0144 160.901L71.457 160.839Z" fill="#494949"/>
<path d="M262.893 160.838L262.336 160.9L274.153 289.541L274.71 289.479L262.893 160.838Z" fill="#494949"/>
<path d="M214.071 160.837L213.514 160.899L225.33 289.54L225.888 289.478L214.071 160.837Z" fill="#494949"/>
<path d="M22.6348 160.839L10.8262 289.48L11.3836 289.542L23.1922 160.901L22.6348 160.839Z" fill="#494949"/>
<path d="M11.9856 163.395L272.767 163.395C274.035 163.395 275.062 162.264 275.062 160.869C275.062 159.474 274.035 158.343 272.767 158.343L11.9856 158.343C10.718 158.343 9.6904 159.474 9.6904 160.869C9.6904 162.264 10.718 163.395 11.9856 163.395Z" fill="#292A2E"/>
<path opacity="0.8" d="M11.9856 163.395L272.767 163.395C274.035 163.395 275.062 162.264 275.062 160.869C275.062 159.474 274.035 158.343 272.767 158.343L11.9856 158.343C10.718 158.343 9.6904 159.474 9.6904 160.869C9.6904 162.264 10.718 163.395 11.9856 163.395Z" fill="white"/>
<path d="M9.41016 160.869C9.4106 160.118 9.68207 159.397 10.1649 158.866C10.6478 158.334 11.3026 158.036 11.9855 158.035H272.766C273.449 158.035 274.104 158.334 274.587 158.865C275.07 159.397 275.342 160.117 275.342 160.869C275.342 161.621 275.07 162.341 274.587 162.873C274.104 163.404 273.449 163.703 272.766 163.703H11.9855C11.3026 163.702 10.6478 163.404 10.1649 162.872C9.68207 162.341 9.4106 161.621 9.41016 160.869ZM11.9855 158.652C11.451 158.652 10.9385 158.885 10.5606 159.301C10.1827 159.717 9.97037 160.281 9.97037 160.869C9.97037 161.457 10.1827 162.021 10.5606 162.437C10.9385 162.853 11.451 163.087 11.9855 163.087H272.766C273.301 163.087 273.813 162.853 274.191 162.437C274.569 162.021 274.781 161.457 274.781 160.869C274.781 160.281 274.569 159.717 274.191 159.301C273.813 158.885 273.301 158.652 272.766 158.652H11.9855Z" fill="#292A2E"/>
<path d="M11.9849 163.395L222.078 163.395C223.345 163.395 224.373 162.264 224.373 160.869C224.373 159.474 223.345 158.343 222.078 158.343L11.9849 158.343C10.7173 158.343 9.68964 159.474 9.68964 160.869C9.68964 162.264 10.7173 163.395 11.9849 163.395Z" fill="white"/>
<path d="M9.41016 160.869C9.4106 160.118 9.68207 159.397 10.1649 158.866C10.6478 158.334 11.3026 158.036 11.9855 158.035H222.079C222.762 158.035 223.417 158.334 223.9 158.865C224.383 159.397 224.654 160.117 224.654 160.869C224.654 161.621 224.383 162.341 223.9 162.873C223.417 163.404 222.762 163.703 222.079 163.703H11.9855C11.3026 163.702 10.6478 163.404 10.1649 162.872C9.68207 162.341 9.4106 161.621 9.41016 160.869ZM11.9855 158.652C11.451 158.652 10.9385 158.885 10.5606 159.301C10.1827 159.717 9.97037 160.281 9.97037 160.869C9.97037 161.457 10.1827 162.021 10.5606 162.437C10.9385 162.853 11.451 163.087 11.9855 163.087H222.079C222.613 163.087 223.126 162.853 223.504 162.437C223.882 162.021 224.094 161.457 224.094 160.869C224.094 160.281 223.882 159.717 223.504 159.301C223.126 158.885 222.613 158.652 222.079 158.652H11.9855Z" fill="#292A2E"/>
<path d="M42.1054 264.813C42.1054 264.813 36.801 273.404 41.5023 279.589C46.2037 285.774 40.876 288.903 40.876 288.903L21.6992 266.523L31.8599 255.979L42.1054 264.813Z" fill="#2A2CA8"/>
<path d="M69.9412 126.686C69.9412 126.686 87.8466 194.455 83.6265 204.361C79.4775 214.101 41.6102 270.999 41.6102 270.999L27.9922 257.94L61.6721 197.836C61.6721 197.836 51.7022 163.127 46.3121 144.924C43.0629 133.951 37.5957 134.3 37.0764 122.773L69.9412 126.686Z" fill="#262626"/>
<path d="M50.1153 203.082L54.5446 197.531L53.3917 230.113L48.4551 235.276L50.1153 203.082Z" fill="#0A0A0A"/>
<path d="M49.3828 155.356C49.3828 155.356 47.2621 141.503 49.5301 144.47C56.9051 154.118 57.6392 183.807 57.6392 183.807L49.3828 155.356Z" fill="#0A0A0A"/>
<path d="M61.7718 272.563C61.7718 272.563 63.279 281.16 70.5952 281.639C77.9113 282.118 76.3237 288.531 76.3237 288.531H48.3691V273.163L61.7718 272.563Z" fill="#2A2CA8"/>
<path d="M20.0366 124.988C20.0366 124.988 19.9127 124.355 19.8405 128.058C19.7887 130.674 18.8234 139.931 22.1606 154.532C28.4121 181.888 47.1373 278.05 47.1373 278.05L65.5054 277.88L48.1835 124.147L20.0366 124.988Z" fill="#262626"/>
<path d="M19.7514 125.098L19.6914 125.102C19.6914 125.102 19.7345 123.829 19.7514 125.098Z" fill="#333333"/>
<path d="M120.298 64.5024C120.187 64.2615 120.012 64.0643 119.795 63.9381C119.578 63.8118 119.331 63.7626 119.088 63.7974C119.09 63.7736 119.086 63.7497 119.075 63.729C119.063 63.713 119.048 63.7005 119.031 63.6929C119.014 63.6853 118.996 63.6827 118.978 63.6855L119.798 63.0382C120.044 62.8532 120.22 62.5768 120.294 62.26C120.369 61.9433 120.337 61.6075 120.204 61.3146C120.065 61.0299 119.834 60.8125 119.556 60.7046C119.279 60.5967 118.975 60.606 118.704 60.7308C118.706 60.7182 118.698 60.7058 118.696 60.6929L119.032 60.4269C119.263 60.2516 119.432 59.994 119.509 59.6977C119.587 59.4014 119.57 59.0846 119.46 58.8009C119.387 58.6247 119.28 58.4683 119.146 58.343C119.012 58.2178 118.855 58.1268 118.685 58.0767C118.515 58.0266 118.338 58.0185 118.165 58.0532C117.992 58.0878 117.828 58.1642 117.685 58.2769L116.907 58.8906C116.905 58.8854 116.907 58.8795 116.904 58.8749C116.901 58.8703 116.893 58.8684 116.888 58.8632C117.067 58.6421 117.172 58.3607 117.186 58.0653C117.2 57.7699 117.123 57.4779 116.966 57.2373C116.599 56.5869 115.751 56.7197 115.248 57.1164L110.669 60.5973L111.487 59.0808C111.652 58.789 111.71 58.4393 111.65 58.1023C111.589 57.7652 111.415 57.466 111.162 57.265C111.028 57.1663 110.877 57.0987 110.718 57.0662C110.56 57.0338 110.397 57.0373 110.24 57.0764C110.082 57.1156 109.934 57.1896 109.804 57.2939C109.673 57.3982 109.563 57.5307 109.481 57.6833L105.014 65.9615C104.49 66.9328 104.33 68.0907 104.569 69.1893C104.809 70.2878 105.428 71.2405 106.295 71.8448C107.301 72.5458 108.474 72.9001 109.664 72.8625C110.855 72.8249 112.007 72.397 112.975 71.6337L119.89 66.1795C120.12 65.9913 120.285 65.7233 120.359 65.4189C120.433 65.1145 120.412 64.7915 120.298 64.5024Z" fill="#E98862"/>
<g opacity="0.25">
<path opacity="0.25" d="M112.377 62.3299C112.394 62.3554 112.419 62.3727 112.447 62.378C112.475 62.3833 112.504 62.3762 112.528 62.3583L116.879 59.042C116.891 59.0329 116.901 59.0214 116.908 59.0081C116.916 58.9948 116.922 58.9799 116.924 58.9643C116.927 58.9488 116.926 58.9328 116.923 58.9173C116.92 58.9018 116.914 58.8871 116.906 58.8741C116.898 58.8611 116.888 58.85 116.876 58.8414C116.863 58.8329 116.85 58.827 116.836 58.8242C116.822 58.8214 116.807 58.8217 116.793 58.825C116.779 58.8284 116.766 58.8347 116.754 58.8438L112.403 62.1601C112.391 62.1691 112.381 62.1805 112.373 62.1938C112.365 62.2071 112.36 62.222 112.357 62.2375C112.355 62.2531 112.355 62.2691 112.358 62.2846C112.361 62.3 112.367 62.3147 112.375 62.3278L112.377 62.3299Z" fill="#0C0C0C"/>
</g>
<g opacity="0.25">
<path opacity="0.25" d="M113.654 64.4809C113.67 64.5063 113.696 64.5234 113.724 64.5286C113.752 64.5339 113.781 64.5268 113.805 64.5089L118.66 60.808C118.672 60.799 118.682 60.7875 118.69 60.7742C118.698 60.7609 118.703 60.7461 118.706 60.7305C118.708 60.7149 118.708 60.699 118.705 60.6835C118.702 60.668 118.696 60.6533 118.688 60.6403C118.671 60.6149 118.646 60.5976 118.618 60.5919C118.589 60.5862 118.56 60.5925 118.536 60.6095L113.68 64.3104C113.668 64.3194 113.658 64.3309 113.65 64.3442C113.643 64.3575 113.637 64.3723 113.635 64.3879C113.632 64.4035 113.632 64.4194 113.635 64.4349C113.638 64.4504 113.644 64.4651 113.652 64.4781L113.654 64.4809Z" fill="#0C0C0C"/>
</g>
<g opacity="0.25">
<path opacity="0.25" d="M115.023 66.8203C115.04 66.8457 115.065 66.8629 115.094 66.8681C115.122 66.8733 115.151 66.8663 115.174 66.8484L119.048 63.8965C119.071 63.8782 119.088 63.8503 119.093 63.8188C119.098 63.7874 119.092 63.7549 119.075 63.7286C119.059 63.7023 119.033 63.6844 119.005 63.6787C118.976 63.673 118.947 63.68 118.923 63.6983L115.049 66.6502C115.037 66.6592 115.027 66.6707 115.02 66.6839C115.012 66.6972 115.006 66.7121 115.004 66.7277C115.001 66.7432 115.001 66.7592 115.004 66.7747C115.007 66.7902 115.013 66.8049 115.021 66.8179L115.023 66.8203Z" fill="#0C0C0C"/>
</g>
<path d="M102.377 64.0762L89.2528 88.6733L73.2382 65.5588L59.9375 78.7531L82.6509 111.121L82.7999 111.352C83.709 112.722 84.9201 113.815 86.3192 114.528C87.7183 115.24 89.2592 115.549 90.7968 115.425C92.3344 115.302 93.8181 114.749 95.1079 113.82C96.3978 112.89 97.4514 111.615 98.1695 110.114L116.833 72.9225L102.377 64.0762Z" fill="#2A2CA8"/>
<path d="M87.9656 91.6316C87.937 91.6316 87.909 91.6235 87.8841 91.6082C87.8591 91.5928 87.8382 91.5707 87.8233 91.5439C87.8084 91.5171 87.8 91.4866 87.7989 91.4552C87.7979 91.4238 87.8041 91.3926 87.8171 91.3646L89.1037 88.5905C89.1267 88.5533 89.1613 88.5266 89.201 88.5155C89.2406 88.5044 89.2826 88.5095 89.319 88.53C89.3555 88.5505 89.3839 88.585 89.3989 88.6269C89.4139 88.6688 89.4145 88.7152 89.4006 88.7576L88.114 91.5317C88.0999 91.5617 88.0786 91.5868 88.0525 91.6044C88.0263 91.622 87.9963 91.6314 87.9656 91.6316Z" fill="#0C0C0C"/>
<path d="M72.3147 88.5329L71.9141 96.3018L72.2469 96.3225L72.6475 88.5536L72.3147 88.5329Z" fill="#0C0C0C"/>
<path d="M30.0242 32.3078C30.0242 32.3078 29.4079 40.9553 27.6068 44.0725C22.4178 53.0468 20.8344 63.1966 25.8802 68.5741C30.9261 73.9515 63.4599 74.4398 66.0531 62.2519C68.2363 51.991 63.7949 50.8284 62.8005 42.3282C62.3506 38.482 61.0868 30.4131 61.0868 30.4131" fill="#0A0A0A"/>
<path d="M57.7704 60.3041C57.7144 60.2957 57.0909 71.6761 45.077 70.6839C36.7598 69.9984 33.794 60.2877 33.6035 60.2877C34.4999 60.0781 36.0102 59.7733 36.4085 59.5393C37.7183 58.7647 39.3387 57.959 39.7609 55.1602C40.0043 53.5473 39.5914 45.2949 39.7186 43.6631L52.4865 46.7988C52.308 50.2457 51.0596 58.2367 55.4357 59.6521C56.1626 59.8846 56.9469 60.0997 57.7704 60.3041Z" fill="#E98862"/>
<path opacity="0.52" d="M52.6651 56.3843C52.4653 55.675 52.3366 54.9439 52.2811 54.2039C52.141 52.5151 52.1692 50.8145 52.3651 49.1325C49.7702 48.7469 47.3256 47.5683 45.3089 45.7305C45.0719 46.694 43.7683 50.9036 44.1291 51.8193C44.8123 53.5501 48.0173 56.3843 52.6651 56.3843Z" fill="#0C0C0C"/>
<path d="M50.9719 52.8035C45.9333 53.2751 39.4443 50.9769 38.1729 43.5838L37.0245 36.9133C35.7531 29.5203 38.2511 22.7925 44.5765 21.4751C50.9022 20.1577 56.6609 25.1662 57.9323 32.5592L58.4402 35.5124C58.9287 38.3491 59.9623 51.9617 50.9719 52.8035Z" fill="#E98862"/>
<path d="M56.6387 35.8341C57.0766 35.8341 57.4317 35.4434 57.4317 34.9615C57.4317 34.4795 57.0766 34.0889 56.6387 34.0889C56.2007 34.0889 55.8457 34.4795 55.8457 34.9615C55.8457 35.4434 56.2007 35.8341 56.6387 35.8341Z" fill="#0C0C0C"/>
<path d="M48.5156 37.0284C48.9536 37.0284 49.3086 36.6377 49.3086 36.1558C49.3086 35.6739 48.9536 35.2832 48.5156 35.2832C48.0777 35.2832 47.7227 35.6739 47.7227 36.1558C47.7227 36.6377 48.0777 37.0284 48.5156 37.0284Z" fill="#0C0C0C"/>
<path d="M52.9733 42.5521C52.9775 42.5518 52.9816 42.5512 52.9857 42.5503C53.2419 42.4948 53.4951 42.4238 53.7442 42.3376C54.1162 42.206 54.6033 41.9881 54.54 41.6185C54.4677 41.1971 52.6372 36.8717 52.4288 36.3785C52.4198 36.3572 52.407 36.3381 52.3913 36.3223C52.3755 36.3064 52.3571 36.2941 52.3371 36.2861C52.317 36.2781 52.2957 36.2745 52.2744 36.2756C52.2531 36.2766 52.2322 36.2823 52.2128 36.2922C52.1935 36.3021 52.1761 36.3162 52.1617 36.3335C52.1473 36.3508 52.1362 36.3711 52.1289 36.3931C52.1216 36.4152 52.1184 36.4386 52.1193 36.4621C52.1202 36.4856 52.1254 36.5086 52.1344 36.5298C52.9151 38.3722 54.1719 41.4015 54.2207 41.6851C54.1786 41.8164 53.5613 42.0664 52.9252 42.1989C52.8841 42.2078 52.8478 42.2337 52.8237 42.2713C52.7996 42.3089 52.7896 42.3553 52.7958 42.4009C52.802 42.4464 52.8239 42.4875 52.857 42.5157C52.8901 42.5439 52.9317 42.5569 52.9733 42.5521Z" fill="#0C0C0C"/>
<path d="M52.038 45.7446C53.0697 45.5975 54.0555 45.1857 54.9161 44.5425C54.9517 44.5164 54.9766 44.4759 54.9852 44.4297C54.9939 44.3836 54.9856 44.3355 54.9623 44.2961C54.9389 44.2566 54.9023 44.2288 54.8605 44.2189C54.8186 44.2089 54.7749 44.2175 54.7388 44.2429C52.8766 45.5778 51.0262 45.7939 49.3887 44.8674C49.3556 44.8477 49.3216 44.8299 49.2868 44.814C49.2463 44.7984 49.2019 44.8009 49.1632 44.8211C49.1244 44.8413 49.0945 44.8776 49.08 44.9219C49.0654 44.9663 49.0674 45.0152 49.0854 45.058C49.1035 45.1007 49.1362 45.1339 49.1764 45.1503C49.1893 45.1562 49.2106 45.1688 49.2403 45.1858C50.1015 45.6742 51.0757 45.8687 52.038 45.7446Z" fill="#0C0C0C"/>
<path d="M31.965 39.2376L37.6356 38.0938C41.9299 36.1827 43.2288 28.0006 43.2288 28.0006C43.2288 28.0006 48.4449 33.5951 61.0862 30.4132C61.0862 30.4132 58.5515 11.0138 39.8761 16.6545C33.8538 18.4731 29.5323 25.151 30.0707 34.0756C30.448 40.33 31.965 39.2376 31.965 39.2376Z" fill="#0A0A0A"/>
<path d="M38.9528 45.7543C37.0305 46.155 35.0831 44.2162 34.7193 42.1008C34.3554 39.9854 35.7131 38.4945 37.6355 38.0938L38.8696 39.3048L40.6063 45.4097L38.9528 45.7543Z" fill="#E98862"/>
<path d="M53.5879 32.8436C54.149 32.4451 54.7972 32.22 55.4646 32.192C55.7929 32.176 56.1216 32.2143 56.4396 32.3054C56.7546 32.3946 57.0581 32.5269 57.343 32.6994C57.3818 32.722 57.4112 32.7602 57.4249 32.8062C57.4387 32.8521 57.4357 32.9021 57.4166 32.9457C57.3975 32.9892 57.3638 33.0229 57.3226 33.0397C57.2814 33.0565 57.2359 33.055 57.1957 33.0357L57.1833 33.0295C56.92 32.8872 56.6414 32.7818 56.3542 32.7157C56.0703 32.6488 55.7789 32.6295 55.4898 32.6587C54.9161 32.7115 54.3652 32.9303 53.8932 33.293L53.8781 33.3054C53.8232 33.3453 53.7564 33.3604 53.6917 33.3475C53.6269 33.3345 53.5692 33.2945 53.5307 33.2358C53.4922 33.1771 53.4758 33.1043 53.4849 33.0325C53.494 32.9608 53.528 32.8958 53.5797 32.851L53.5879 32.8436Z" fill="#0C0C0C"/>
<path d="M48.5308 34.1538C47.9718 34.0032 47.3865 34.0179 46.8344 34.1967C46.5553 34.2846 46.2899 34.4183 46.047 34.5934C45.8008 34.7692 45.5757 34.9784 45.377 35.216L45.3681 35.2259C45.337 35.2602 45.295 35.2799 45.251 35.2807C45.2069 35.2816 45.1643 35.2637 45.1321 35.2306C45.0999 35.1976 45.0806 35.1521 45.0784 35.1037C45.0761 35.0553 45.091 35.0078 45.1199 34.9713C45.3288 34.6972 45.5683 34.4532 45.8328 34.2451C46.0994 34.0337 46.3933 33.8674 46.7047 33.7519C47.336 33.5131 48.014 33.4654 48.6677 33.6138C48.7338 33.6295 48.7916 33.6734 48.8283 33.7359C48.865 33.7984 48.8776 33.8744 48.8634 33.9472C48.8492 34.0199 48.8092 34.0835 48.7524 34.1239C48.6956 34.1642 48.6266 34.1781 48.5604 34.1625L48.5501 34.1597L48.5308 34.1538Z" fill="#0C0C0C"/>
<path d="M52.2553 47.4231C52.4423 47.3993 52.6271 47.358 52.8077 47.2998C52.8282 47.2933 52.8474 47.2824 52.8641 47.2678C52.8808 47.2531 52.8947 47.235 52.905 47.2145C52.9153 47.1939 52.9219 47.1713 52.9242 47.148C52.9266 47.1247 52.9248 47.101 52.9189 47.0785C52.913 47.0559 52.9031 47.0348 52.8898 47.0165C52.8765 46.9981 52.8601 46.9828 52.8414 46.9714C52.8227 46.9601 52.8022 46.9529 52.781 46.9502C52.7598 46.9476 52.7383 46.9496 52.7178 46.9561C51.6307 47.3004 51.0125 46.8442 50.9865 46.8245C50.9512 46.7972 50.9075 46.7865 50.865 46.7947C50.8225 46.8029 50.7848 46.8293 50.76 46.8681C50.7352 46.9069 50.7255 46.955 50.7329 47.0017C50.7403 47.0485 50.7643 47.09 50.7996 47.1173C51.2382 47.4012 51.7526 47.5093 52.2553 47.4231Z" fill="#0C0C0C"/>
<path d="M37.6478 38.0138L37.5918 37.8411C44.7763 35.0029 43.0195 27.2446 43.001 27.1667L43.162 27.1201C43.1808 27.2003 44.9791 35.1188 37.6478 38.0138Z" fill="#0C0C0C"/>
<path opacity="0.1" d="M47.8758 43.0975C48.7053 42.9993 49.3246 42.3769 49.2592 41.7073C49.1937 41.0377 48.4682 40.5745 47.6387 40.6728C46.8092 40.771 46.1898 41.3934 46.2553 42.063C46.3207 42.7325 47.0462 43.1957 47.8758 43.0975Z" fill="#0C0C0C"/>
<path opacity="0.1" d="M56.6551 40.5361C56.7223 41.2046 57.4475 41.6673 58.2769 41.5702C58.4203 41.5532 58.5617 41.5198 58.6987 41.4706C58.7455 40.6751 58.7548 39.9094 58.7422 39.2002C58.5128 39.1341 58.2743 39.1157 58.0388 39.1459C57.2091 39.2427 56.5901 39.8638 56.6551 40.5361Z" fill="#0C0C0C"/>
<path d="M72.698 85.3591C72.3195 90.2511 70.4786 120.773 70.1151 126.798H19.8561C19.5729 121.364 18.4166 97.5988 17.3424 86.9709C16.3172 76.83 14.3054 71.7518 15.7799 68.7542C18.1889 63.8533 24.7739 61.0224 29.2635 60.3536C32.0052 59.9452 36.1287 59.6523 36.1287 59.6523C36.1287 59.6523 36.478 67.4245 44.8028 67.8569C56.1357 68.4454 55.3788 59.6523 55.4352 59.6523C57.271 59.6523 67.7599 60.9312 70.3249 62.6049C77.3169 67.1597 73.5013 74.9907 72.698 85.3591Z" fill="#2A2CA8"/>
<path d="M103.945 88.7759L99.3048 113.596C99.2105 114.1 98.9621 114.553 98.6009 114.88C98.2398 115.207 97.7878 115.387 97.3203 115.392L65.3661 115.691C65.0613 115.694 64.7598 115.622 64.4836 115.48C64.2075 115.338 63.9637 115.129 63.7701 114.87C63.5765 114.611 63.438 114.308 63.3647 113.982C63.2914 113.657 63.2852 113.317 63.3465 112.989L67.9873 88.1687C68.0816 87.6648 68.3301 87.2116 68.6912 86.8848C69.0523 86.558 69.5043 86.3772 69.9719 86.3726L101.926 86.0733C102.231 86.0706 102.532 86.143 102.808 86.285C103.085 86.4271 103.328 86.6353 103.522 86.8943C103.715 87.1534 103.854 87.4568 103.927 87.7824C104 88.1079 104.007 88.4474 103.945 88.7759Z" fill="#292A2E"/>
<path d="M74.1499 106.406C74.1672 106.733 74.0764 107.055 73.8944 107.314C73.7123 107.573 73.4513 107.751 73.1595 107.815L72.176 108.053C72.1936 108.06 72.2095 108.071 72.2222 108.085C72.235 108.1 72.2442 108.118 72.2491 108.138C72.2516 108.161 72.247 108.184 72.236 108.204C72.4724 108.277 72.6823 108.429 72.8365 108.639C72.9906 108.85 73.0814 109.108 73.0962 109.378C73.0975 109.692 73.0025 109.998 72.8264 110.246C72.6504 110.493 72.4036 110.669 72.1259 110.743L63.8193 112.772C63.3946 112.877 62.9607 112.93 62.5255 112.93C61.5559 112.93 60.601 112.67 59.743 112.173C58.885 111.677 58.1496 110.958 57.6003 110.079C57.0178 109.149 56.7881 108.005 56.96 106.891C57.1319 105.778 57.6918 104.782 58.5207 104.116L65.5868 98.4319C65.7422 98.3066 65.923 98.2247 66.1136 98.1934L65.4632 101.668L65.6366 101.624L65.6733 101.617L71.0923 100.402C71.6956 100.255 72.5228 100.498 72.6295 101.254C72.6867 101.543 72.6532 101.845 72.5345 102.111C72.4158 102.377 72.2189 102.591 71.9757 102.718C71.9791 102.721 71.9858 102.725 71.9858 102.732C71.9858 102.74 71.9825 102.744 71.9825 102.751L72.9194 102.523C73.0909 102.481 73.2686 102.482 73.4398 102.525C73.611 102.568 73.7715 102.652 73.9096 102.771C74.0477 102.891 74.16 103.042 74.2385 103.215C74.317 103.388 74.3596 103.578 74.3634 103.771C74.3633 104.079 74.2664 104.378 74.0889 104.617C73.9115 104.856 73.6644 105.02 73.3897 105.081L72.9861 105.18C72.983 105.195 72.9861 105.211 72.9797 105.22C73.2737 105.223 73.5563 105.345 73.7726 105.564C73.989 105.784 74.1234 106.083 74.1499 106.406Z" fill="#E98862"/>
<g opacity="0.25">
<path opacity="0.25" d="M66.5877 103.955C66.5939 103.986 66.6108 104.013 66.6349 104.03C66.659 104.048 66.6883 104.054 66.7165 104.048L71.9013 102.876C71.9298 102.87 71.9547 102.851 71.9707 102.824C71.9867 102.798 71.9924 102.765 71.9865 102.734C71.9806 102.703 71.9637 102.675 71.9394 102.658C71.9152 102.64 71.8855 102.634 71.8571 102.64L66.6723 103.811C66.644 103.818 66.6194 103.837 66.6036 103.863C66.5879 103.89 66.5823 103.922 66.5882 103.954L66.5877 103.955Z" fill="#0C0C0C"/>
</g>
<g opacity="0.25">
<path opacity="0.25" d="M66.995 106.486C67.0014 106.517 67.0185 106.543 67.0426 106.56C67.0667 106.577 67.0958 106.583 67.1239 106.577L72.9101 105.271C72.9383 105.264 72.963 105.246 72.9787 105.219C72.9945 105.192 73 105.16 72.9941 105.129C72.9874 105.098 72.9702 105.071 72.9462 105.054C72.9221 105.037 72.8929 105.03 72.8647 105.036L67.0785 106.342C67.0503 106.349 67.0256 106.368 67.0099 106.394C66.9942 106.421 66.9886 106.453 66.9944 106.484L66.995 106.486Z" fill="#0C0C0C"/>
</g>
<g opacity="0.25">
<path opacity="0.25" d="M67.4197 109.229C67.4258 109.26 67.4428 109.287 67.4669 109.304C67.491 109.322 67.5204 109.328 67.5486 109.321L72.1639 108.28C72.1782 108.277 72.1917 108.271 72.2038 108.262C72.2159 108.253 72.2263 108.242 72.2344 108.229C72.2425 108.215 72.2481 108.2 72.2509 108.185C72.2537 108.169 72.2536 108.153 72.2507 108.137C72.2478 108.122 72.2421 108.107 72.2339 108.094C72.2257 108.08 72.2153 108.069 72.2031 108.06C72.1909 108.052 72.1773 108.046 72.163 108.043C72.1488 108.04 72.1341 108.04 72.1199 108.044L67.5043 109.085C67.4761 109.092 67.4514 109.111 67.4356 109.138C67.4199 109.164 67.4144 109.197 67.4203 109.228L67.4197 109.229Z" fill="#0C0C0C"/>
</g>
<path d="M63.305 116.389L18.2395 125.351C16.8333 125.519 15.4107 125.327 14.0834 124.788C12.7561 124.25 11.5602 123.381 10.5895 122.249C9.6188 121.116 8.89974 119.752 8.48873 118.263C8.07772 116.773 7.98594 115.199 8.22059 113.664L14.5297 72.3985C14.9327 69.7637 16.2704 67.4129 18.2485 65.8633C19.2279 65.0961 20.3351 64.5486 21.5068 64.2522C22.6785 63.9558 23.8918 63.9162 25.0774 64.1358C26.263 64.3554 27.3976 64.8298 28.4166 65.5319C29.4356 66.234 30.319 67.1501 31.0162 68.2279C31.7135 69.3057 32.211 70.5241 32.4803 71.8134C32.7497 73.1028 32.7856 74.4379 32.5861 75.7425L28.2853 104.148L61.3249 99.5824L63.305 116.389Z" fill="#2A2CA8"/>
<path d="M18.2399 125.534C18.1999 125.531 18.1624 125.512 18.1339 125.481C18.1055 125.45 18.088 125.409 18.0846 125.365C18.0812 125.321 18.0922 125.278 18.1155 125.242C18.1388 125.206 18.173 125.181 18.2118 125.17L63.1211 116.24L61.1816 99.7872L28.3055 104.33C28.2799 104.334 28.2539 104.331 28.2296 104.321C28.2052 104.312 28.1833 104.296 28.1655 104.275C28.1474 104.255 28.134 104.23 28.1263 104.203C28.1187 104.175 28.1169 104.146 28.1212 104.118L30.8559 85.9631C30.8593 85.9393 30.867 85.9163 30.8785 85.8958C30.89 85.8752 30.9051 85.8573 30.923 85.8433C30.9409 85.8293 30.9611 85.8193 30.9826 85.814C31.004 85.8087 31.0262 85.8082 31.0478 85.8124C31.0694 85.8163 31.0901 85.8249 31.1087 85.8377C31.1273 85.8504 31.1434 85.8671 31.1561 85.8867C31.1689 85.9063 31.1779 85.9285 31.1829 85.952C31.1878 85.9755 31.1884 85.9998 31.1848 86.0236L28.4865 103.936L61.3043 99.4006C61.348 99.3949 61.392 99.4083 61.4268 99.438C61.4617 99.4676 61.4845 99.5111 61.4905 99.5591L63.4718 116.366C63.4769 116.412 63.4658 116.459 63.4406 116.497C63.4154 116.535 63.3781 116.561 63.3362 116.57L18.2698 125.531C18.2599 125.533 18.2499 125.534 18.2399 125.534Z" fill="#0C0C0C"/>
<path d="M28.2583 103.968L25.3594 104.479L25.4121 104.841L28.311 104.33L28.2583 103.968Z" fill="#0C0C0C"/>
<path d="M181.006 28.1161C181.01 24.3844 180.336 20.6895 179.023 17.2488C177.71 13.8082 175.784 10.6913 173.36 8.08165C170.936 5.47199 168.062 3.42226 164.907 2.05307C161.753 0.683878 158.381 0.0228951 154.99 0.109015C141.227 0.449615 130.109 13.0167 130.149 28.1664C130.155 32.077 130.909 35.9424 132.36 39.5118C133.812 43.0812 135.929 46.2749 138.575 48.8856C144.268 54.5205 147.648 62.4458 147.639 70.8717V70.9025L163.426 70.9225V70.8917C163.435 62.4769 166.813 54.5553 172.516 48.9473C175.186 46.3303 177.323 43.1213 178.787 39.5312C180.25 35.941 181.006 32.0508 181.006 28.1161Z" fill="#0CBC8B"/>
<path d="M163.186 30.8942C162.924 30.5244 162.47 30.2944 161.836 30.2161C160.762 30.0839 159.535 30.7537 158.481 32.0588L158.378 32.1821L158.299 32.0421C158.157 31.7898 157.996 31.5515 157.817 31.3298C157.059 30.3946 155.691 29.4397 153.476 30.1921C152.731 30.4306 152.047 30.854 151.474 31.4297L151.397 31.5098L151.32 31.4297C151.143 31.2521 150.95 31.0938 150.745 30.9571C149.5 30.1221 148.112 30.3222 147.167 30.6372C146.905 30.7252 146.681 30.9155 146.538 31.1724C146.394 31.4294 146.341 31.7351 146.388 32.0323L152.576 70.9503C152.586 71.0157 152.62 71.0739 152.669 71.1122C152.718 71.1504 152.779 71.1656 152.839 71.1543C152.898 71.143 152.951 71.1062 152.986 71.052C153.021 70.9978 153.034 70.9306 153.024 70.8652L146.835 31.9484C146.806 31.7714 146.838 31.589 146.923 31.4356C147.008 31.2823 147.142 31.1687 147.298 31.1162C148.155 30.8314 149.406 30.6461 150.508 31.3862C150.689 31.5065 150.859 31.6463 151.015 31.8035L151.092 31.8812L151.028 31.9712C150.501 32.7368 150.207 33.6658 150.188 34.626C150.129 36.256 150.772 37.8859 151.621 38.2558C151.785 38.3297 151.965 38.3527 152.14 38.3224C152.315 38.292 152.479 38.2094 152.614 38.0835C152.903 37.8234 153.342 37.136 153.059 35.4586C152.807 33.9812 152.373 32.8078 151.767 31.9638L151.701 31.8738L151.778 31.7937C152.302 31.2695 152.928 30.8853 153.609 30.6711C155.179 30.1388 156.517 30.4787 157.476 31.6636C157.691 31.9306 157.879 32.2233 158.035 32.5362L158.071 32.6062L158.028 32.6712C157.944 32.7945 157.862 32.9212 157.782 33.0513C156.865 34.5511 156.133 36.686 156.697 37.8311C156.808 38.053 156.974 38.2351 157.177 38.3553C157.38 38.4756 157.61 38.529 157.839 38.5092H157.86C158.328 38.5018 158.721 38.1593 158.964 37.5493C159.44 36.3568 159.3 34.3345 158.634 32.7372L158.605 32.6672L158.65 32.6071C159.57 31.3822 160.615 30.6998 161.551 30.6998C161.631 30.6998 161.708 30.7047 161.785 30.7121C162.98 30.8622 162.962 31.5443 162.958 31.622L157.905 70.8815C157.901 70.914 157.902 70.9471 157.91 70.9789C157.917 71.0107 157.93 71.0406 157.948 71.0668C157.966 71.093 157.989 71.1151 158.015 71.1318C158.04 71.1484 158.069 71.1593 158.098 71.1639C158.158 71.1709 158.217 71.1528 158.265 71.1134C158.312 71.074 158.345 71.0161 158.355 70.9515L163.405 31.6984C163.429 31.4092 163.351 31.1208 163.186 30.8942ZM152.612 35.5486C152.862 37.026 152.496 37.5435 152.326 37.6961C152.231 37.7855 152.111 37.8351 151.987 37.836C151.919 37.8351 151.852 37.8207 151.789 37.7935C151.203 37.5358 150.585 36.1811 150.641 34.6461C150.664 33.8398 150.896 33.0575 151.309 32.391L151.398 32.2511L151.493 32.3886C152.076 33.3367 152.458 34.4165 152.612 35.5486ZM158.548 37.3484C158.375 37.7799 158.141 38.0034 157.853 38.0083H157.81C157.667 38.0255 157.522 37.9952 157.395 37.9213C157.268 37.8473 157.164 37.7331 157.096 37.5934C156.704 36.7936 157.16 34.9611 158.161 33.3312L158.283 33.1311L158.374 33.3361C158.859 34.7333 158.932 36.3833 158.548 37.3481V37.3484Z" fill="white"/>
<path d="M147.648 70.8779L163.435 70.8953L163.434 71.9106C163.432 74.2143 162.599 76.4227 161.117 78.05C159.635 79.6774 157.627 80.5903 155.533 80.588C153.44 80.5857 151.433 79.6683 149.954 78.0378C148.475 76.4072 147.645 74.1969 147.648 71.8933L147.648 70.8779Z" fill="#262626"/>
</svg>
