<svg width="266" height="290" viewBox="0 0 266 290" fill="none" xmlns="http://www.w3.org/2000/svg">
<circle cx="130.5" cy="131.066" r="130.5" fill="#FCB615"/>
<path d="M79.4119 119.482L186.883 119.482C189.523 119.482 191.662 116.643 191.662 113.14V8.70908C191.662 5.20641 189.523 2.36692 186.883 2.36692L79.4119 2.36692C76.7728 2.36692 74.6333 5.20641 74.6333 8.70908L74.6333 113.14C74.6333 116.643 76.7728 119.482 79.4119 119.482Z" fill="white"/>
<path d="M186.882 119.744H79.4111C78.092 119.742 76.8273 119.046 75.8945 117.808C74.9617 116.57 74.437 114.891 74.4355 113.14V8.70906C74.437 6.95827 74.9617 5.27974 75.8945 4.04175C76.8273 2.80375 78.092 2.1074 79.4111 2.10547L186.882 2.10547C188.202 2.1074 189.466 2.80374 190.399 4.04173C191.332 5.27971 191.857 6.95824 191.858 8.70906V113.14C191.857 114.891 191.332 116.57 190.399 117.808C189.466 119.046 188.202 119.742 186.882 119.744ZM79.4111 2.62832C78.1964 2.63017 77.0319 3.27141 76.173 4.41137C75.3141 5.55133 74.8309 7.09691 74.8295 8.70906V113.14C74.8309 114.752 75.3141 116.298 76.173 117.438C77.0319 118.578 78.1964 119.219 79.4111 119.221H186.882C188.097 119.219 189.262 118.578 190.121 117.438C190.98 116.298 191.463 114.752 191.464 113.14V8.70906C191.463 7.09688 190.98 5.5513 190.121 4.41135C189.262 3.2714 188.097 2.63017 186.882 2.62832H79.4111Z" fill="#292A2E"/>
<path d="M88.559 12.2051L80.8779 13.1718C80.0845 13.2716 79.5024 14.2061 79.5776 15.259L80.306 25.4534C80.3812 26.5063 81.0853 27.2789 81.8787 27.1791L89.5598 26.2124C90.3532 26.1125 90.9353 25.178 90.8601 24.1251L90.1317 13.9307C90.0565 12.8778 89.3523 12.1052 88.559 12.2051Z" fill="#292A2E"/>
<path d="M110.432 34.3198L102.761 33.2244C101.968 33.1113 101.257 33.872 101.172 34.9236L100.346 45.1049C100.261 46.1565 100.834 47.1006 101.627 47.2138L109.298 48.3092C110.09 48.4224 110.802 47.6616 110.887 46.6101L111.712 36.4287C111.798 35.3772 111.224 34.433 110.432 34.3198Z" fill="white"/>
<path d="M109.455 48.6381C109.394 48.6381 109.333 48.6337 109.273 48.6251L101.601 47.5296C101.158 47.4656 100.752 47.1708 100.472 46.7099C100.192 46.249 100.062 45.6596 100.109 45.0711L100.935 34.8903C100.958 34.5988 101.025 34.3163 101.131 34.059C101.237 33.8017 101.38 33.5745 101.552 33.3906C101.724 33.2066 101.921 33.0694 102.133 32.9868C102.345 32.9043 102.567 32.8779 102.787 32.9093L110.458 34.0048C110.902 34.0683 111.308 34.363 111.588 34.824C111.868 35.285 111.998 35.8747 111.95 36.4633L111.125 46.6441C111.081 47.191 110.886 47.697 110.578 48.065C110.27 48.433 109.87 48.6371 109.456 48.6381H109.455ZM109.324 47.9941C109.641 48.0394 109.959 47.9156 110.208 47.6497C110.456 47.3839 110.615 46.9978 110.649 46.5765L111.475 36.3954C111.509 35.9741 111.416 35.552 111.215 35.2219C111.015 34.8919 110.724 34.681 110.407 34.6356L102.735 33.5404C102.578 33.5179 102.419 33.5368 102.267 33.5959C102.116 33.655 101.974 33.7532 101.851 33.8848C101.728 34.0165 101.626 34.1791 101.55 34.3632C101.474 34.5474 101.426 34.7496 101.41 34.9582L100.584 45.139C100.55 45.5603 100.644 45.9822 100.844 46.3121C101.045 46.642 101.335 46.853 101.653 46.8989L109.324 47.9941Z" fill="#292A2E"/>
<path d="M144.473 50.462C144.434 50.462 144.395 50.4493 144.36 50.4248C144.326 50.4004 144.296 50.365 144.274 50.3217C139.407 40.713 132.023 38.9636 126.684 39.1857C123.074 39.3681 119.509 40.3222 116.128 42.0113C116.069 42.0427 116.004 42.0422 115.946 42.0099C115.887 41.9776 115.841 41.9162 115.817 41.8389C115.793 41.7616 115.793 41.6748 115.817 41.5973C115.84 41.5199 115.886 41.458 115.944 41.4253C119.379 39.7083 123.001 38.7379 126.669 38.5515C132.126 38.3237 139.681 40.1181 144.671 49.9674C144.695 50.0151 144.709 50.0706 144.711 50.1281C144.714 50.1855 144.704 50.2427 144.684 50.2934C144.663 50.3442 144.633 50.3867 144.596 50.4163C144.559 50.4459 144.516 50.4616 144.473 50.4617V50.462Z" fill="#292A2E"/>
<path d="M144.561 50.5915C144.539 50.5914 144.517 50.5874 144.496 50.5795L139.598 48.7435C139.537 48.7206 139.485 48.6665 139.454 48.5931C139.423 48.5197 139.416 48.4329 139.433 48.352C139.45 48.271 139.491 48.2024 139.546 48.1613C139.601 48.1201 139.667 48.1099 139.728 48.1327L144.396 49.8821L145.714 43.6866C145.733 43.6074 145.774 43.541 145.829 43.5014C145.883 43.4619 145.948 43.4523 146.008 43.4749C146.068 43.4974 146.119 43.5502 146.15 43.622C146.181 43.6938 146.19 43.7789 146.174 43.8592L144.791 50.3599C144.777 50.4265 144.747 50.4851 144.706 50.5269C144.664 50.5687 144.613 50.5914 144.561 50.5915Z" fill="#292A2E"/>
<path d="M152.243 53.4375L144.561 54.4042C143.768 54.504 143.186 55.4385 143.261 56.4914L143.99 66.6858C144.065 67.7387 144.769 68.5113 145.562 68.4115L153.243 67.4448C154.037 67.3449 154.619 66.4104 154.544 65.3575L153.815 55.1632C153.74 54.1102 153.036 53.3376 152.243 53.4375Z" fill="#2A2CA8"/>
<path d="M177.347 22.0973L169.647 21.4403C168.852 21.3724 168.166 22.173 168.114 23.2285L167.619 33.4475C167.568 34.5029 168.171 35.4135 168.967 35.4814L176.666 36.1385C177.462 36.2063 178.148 35.4057 178.199 34.3503L178.694 24.1313C178.745 23.0758 178.142 22.1652 177.347 22.0973Z" fill="#292A2E"/>
<path d="M181.698 55.4458L174.026 54.3504C173.234 54.2372 172.523 54.998 172.437 56.0495L171.612 66.2309C171.527 67.2824 172.1 68.2266 172.892 68.3398L180.564 69.4352C181.356 69.5484 182.067 68.7876 182.153 67.736L182.978 57.5547C183.063 56.5031 182.49 55.559 181.698 55.4458Z" fill="#0CBC8B"/>
<path d="M139.586 88.6103L131.905 89.577C131.112 89.6769 130.53 90.6114 130.605 91.6643L131.333 101.859C131.409 102.912 132.113 103.684 132.906 103.584L140.587 102.618C141.38 102.518 141.963 101.583 141.887 100.53L141.159 90.336C141.084 89.2831 140.38 88.5105 139.586 88.6103Z" fill="white"/>
<path d="M132.768 103.911C132.35 103.91 131.947 103.702 131.638 103.329C131.329 102.955 131.135 102.442 131.095 101.889L130.367 91.695C130.325 91.1057 130.461 90.5186 130.746 90.0625C131.03 89.6063 131.439 89.3184 131.883 89.2618L139.563 88.2951C139.783 88.2674 140.005 88.2975 140.216 88.3836C140.427 88.4698 140.624 88.6103 140.794 88.7971C140.964 88.9839 141.105 89.2134 141.208 89.4724C141.312 89.7315 141.376 90.0151 141.396 90.3069L142.125 100.501C142.166 101.09 142.03 101.677 141.746 102.133C141.462 102.59 141.053 102.878 140.609 102.934L132.929 103.901C132.875 103.908 132.821 103.911 132.768 103.911ZM139.725 88.9195C139.687 88.9195 139.648 88.922 139.609 88.9268L131.927 89.8926C131.61 89.933 131.317 90.1391 131.113 90.4656C130.91 90.7922 130.812 91.2125 130.842 91.6344L131.571 101.828C131.601 102.25 131.757 102.638 132.003 102.908C132.249 103.178 132.565 103.307 132.883 103.268L140.564 102.302C140.882 102.261 141.174 102.055 141.378 101.728C141.581 101.402 141.679 100.982 141.649 100.56L140.921 90.3656C140.892 89.9702 140.754 89.603 140.533 89.3355C140.311 89.068 140.023 88.9194 139.724 88.9186L139.725 88.9195Z" fill="#292A2E"/>
<path d="M90.059 85.1631L82.3779 86.1298C81.5845 86.2296 81.0024 87.1641 81.0776 88.217L81.806 98.4114C81.8812 99.4643 82.5853 100.237 83.3787 100.137L91.0598 99.1704C91.8531 99.0705 92.4353 98.136 92.3601 97.0831L91.6317 86.8887C91.5565 85.8358 90.8523 85.0632 90.059 85.1631Z" fill="#2A2CA8"/>
<path d="M151.515 48.2438C151.505 48.2438 151.496 48.2431 151.487 48.2419C151.456 48.2371 151.426 48.2242 151.398 48.204C151.371 48.1837 151.347 48.1565 151.327 48.1239C151.308 48.0912 151.293 48.0538 151.285 48.0137C151.276 47.9737 151.273 47.9317 151.277 47.8903C151.636 44.6872 152.382 41.582 153.487 38.6944C155.877 32.5448 159.626 29.0177 164.325 28.4923C164.388 28.4853 164.451 28.5118 164.5 28.5661C164.548 28.6204 164.578 28.698 164.584 28.7818C164.589 28.8657 164.569 28.9489 164.528 29.0132C164.487 29.0775 164.429 29.1176 164.365 29.1246C153.405 30.348 151.768 47.7869 151.752 47.963C151.745 48.0402 151.717 48.1115 151.673 48.1633C151.63 48.215 151.573 48.2437 151.515 48.2438Z" fill="#292A2E"/>
<path d="M162.053 32.2689C162.006 32.269 161.96 32.2504 161.92 32.2156C161.881 32.1808 161.85 32.1314 161.832 32.0734C161.814 32.0155 161.809 31.9517 161.818 31.8902C161.828 31.8287 161.85 31.7721 161.884 31.7277L164.092 28.7831L161.874 25.8516C161.851 25.8224 161.833 25.7874 161.82 25.7487C161.808 25.7101 161.801 25.6685 161.801 25.6263C161.8 25.5842 161.806 25.5424 161.818 25.5034C161.83 25.4644 161.848 25.4289 161.87 25.3991C161.893 25.3692 161.919 25.3456 161.949 25.3295C161.978 25.3135 162.01 25.3054 162.041 25.3057C162.073 25.3059 162.105 25.3146 162.134 25.3311C162.163 25.3477 162.189 25.3718 162.211 25.402L164.599 28.5576C164.644 28.617 164.669 28.6977 164.669 28.7819C164.669 28.866 164.644 28.9467 164.599 29.0062L162.222 32.1754C162.2 32.2049 162.173 32.2284 162.144 32.2445C162.116 32.2606 162.085 32.2689 162.053 32.2689Z" fill="#292A2E"/>
<path d="M135.973 83.8727C135.922 83.8727 135.872 83.8509 135.831 83.8105C135.79 83.7701 135.76 83.7133 135.745 83.6484C135.709 83.4932 132.271 68.0849 141.171 61.6935C141.199 61.6727 141.229 61.6595 141.261 61.6545C141.293 61.6496 141.325 61.653 141.355 61.6647C141.386 61.6764 141.414 61.696 141.439 61.7224C141.464 61.7489 141.484 61.7816 141.499 61.8187C141.514 61.8558 141.524 61.8966 141.527 61.9386C141.53 61.9805 141.527 62.0229 141.517 62.0632C141.508 62.1035 141.493 62.1409 141.472 62.1733C141.452 62.2056 141.427 62.2323 141.399 62.2516C132.846 68.3929 136.168 83.3111 136.203 83.4612C136.214 83.5086 136.216 83.5588 136.21 83.6077C136.203 83.6566 136.189 83.7029 136.166 83.7428C136.144 83.7827 136.115 83.8151 136.082 83.8374C136.048 83.8598 136.011 83.8714 135.974 83.8714L135.973 83.8727Z" fill="#292A2E"/>
<path d="M140.264 65.9256C140.225 65.9256 140.187 65.913 140.152 65.8889C140.118 65.8647 140.088 65.8299 140.067 65.7873C140.045 65.7447 140.031 65.6956 140.026 65.6444C140.022 65.5931 140.027 65.5412 140.041 65.4932L141.038 62.093L138.477 60.7681C138.419 60.7366 138.372 60.6761 138.348 60.5997C138.323 60.5233 138.322 60.4371 138.344 60.3596C138.367 60.2821 138.412 60.2195 138.469 60.1853C138.526 60.1511 138.591 60.148 138.65 60.1767L141.435 61.6152C141.464 61.6303 141.491 61.6529 141.513 61.6818C141.536 61.7106 141.554 61.7451 141.567 61.7832C141.579 61.8214 141.586 61.8625 141.587 61.9041C141.588 61.9458 141.582 61.9872 141.571 62.0261L140.487 65.7219C140.469 65.7818 140.439 65.8333 140.399 65.8696C140.359 65.906 140.312 65.9255 140.264 65.9256Z" fill="#292A2E"/>
<path d="M106.242 31.4661C106.178 31.4661 106.117 31.4327 106.073 31.3732C106.028 31.3137 106.003 31.233 106.003 31.1489C106.003 26.3293 104.931 22.6502 102.816 20.2143C99.0634 15.8909 93.226 16.9331 93.1674 16.9442C93.1047 16.9561 93.0409 16.9344 92.9902 16.8839C92.9394 16.8335 92.9059 16.7583 92.8969 16.675C92.888 16.5917 92.9043 16.5071 92.9423 16.4397C92.9804 16.3724 93.037 16.3279 93.0998 16.316C93.3472 16.2687 99.2077 15.2195 103.128 19.7323C105.353 22.2943 106.481 26.1354 106.481 31.1489C106.481 31.1905 106.474 31.2318 106.462 31.2703C106.45 31.3088 106.433 31.3437 106.411 31.3732C106.388 31.4027 106.362 31.426 106.333 31.442C106.304 31.4579 106.273 31.4661 106.242 31.4661Z" fill="#292A2E"/>
<path d="M106.252 31.5796C106.245 31.5796 106.237 31.5796 106.23 31.5796C106.199 31.5757 106.168 31.5636 106.14 31.5441C106.113 31.5247 106.088 31.4981 106.068 31.466L103.918 28.0208C103.878 27.9559 103.858 27.8724 103.864 27.7886C103.87 27.7048 103.901 27.6276 103.95 27.5739C103.999 27.5202 104.062 27.4945 104.125 27.5024C104.188 27.5103 104.246 27.5511 104.287 27.6159L106.285 30.8181L108.696 28.1683C108.721 28.1417 108.748 28.1218 108.778 28.1095C108.808 28.0973 108.84 28.093 108.871 28.0969C108.902 28.1008 108.933 28.1129 108.961 28.1323C108.988 28.1518 109.013 28.1784 109.033 28.2105C109.053 28.2426 109.068 28.2796 109.077 28.3194C109.086 28.3593 109.09 28.4011 109.087 28.4426C109.084 28.4841 109.075 28.5244 109.06 28.5612C109.045 28.598 109.025 28.6307 109.001 28.6572L106.404 31.5079C106.361 31.5544 106.308 31.5798 106.252 31.5796Z" fill="#292A2E"/>
<path d="M111.537 66.4658H103.822C103.025 66.4658 102.379 67.3232 102.379 68.3808V78.6209C102.379 79.6786 103.025 80.5359 103.822 80.5359H111.537C112.334 80.5359 112.98 79.6786 112.98 78.6209V68.3808C112.98 67.3232 112.334 66.4658 111.537 66.4658Z" fill="#0CBC8B"/>
<path d="M131.188 85.1798C131.135 85.1797 131.084 85.156 131.042 85.1125C131 85.069 130.97 85.0081 130.957 84.9396C128.292 70.7895 115.26 71.7819 115.131 71.7937C115.099 71.7965 115.068 71.7911 115.038 71.7777C115.008 71.7644 114.981 71.7434 114.957 71.7159C114.933 71.6884 114.914 71.655 114.9 71.6176C114.886 71.5802 114.878 71.5395 114.876 71.4978C114.873 71.4562 114.878 71.4144 114.888 71.3748C114.898 71.3352 114.913 71.2987 114.934 71.2672C114.955 71.2358 114.98 71.21 115.008 71.1915C115.036 71.173 115.067 71.162 115.098 71.1591C117.499 71.0514 119.896 71.4701 122.193 72.3984C125.605 73.8131 129.975 77.1104 131.421 84.7842C131.428 84.8246 131.43 84.8666 131.425 84.9079C131.42 84.9491 131.41 84.9887 131.394 85.0245C131.377 85.0602 131.356 85.0914 131.331 85.1162C131.306 85.141 131.277 85.1589 131.247 85.169C131.228 85.1759 131.208 85.1795 131.188 85.1798Z" fill="#292A2E"/>
<path d="M131.222 85.2864C131.172 85.2863 131.124 85.2658 131.083 85.2277L128.378 82.6797C128.326 82.6309 128.291 82.5569 128.281 82.474C128.27 82.391 128.285 82.3059 128.322 82.2373C128.358 82.1687 128.414 82.1223 128.477 82.1083C128.539 82.0943 128.603 82.1138 128.655 82.1626L131.162 84.5243L132.95 81.0845C132.986 81.0159 133.041 80.969 133.103 80.9542C133.165 80.9394 133.229 80.9578 133.281 81.0054C133.333 81.0529 133.369 81.1259 133.38 81.2082C133.392 81.2905 133.379 81.3756 133.343 81.4449L131.418 85.1493C131.4 85.1839 131.377 85.2134 131.351 85.2361C131.324 85.2588 131.294 85.2743 131.263 85.2816C131.249 85.2848 131.236 85.2864 131.222 85.2864Z" fill="#292A2E"/>
<path d="M248.744 289.312L249.214 289.192L241.876 192.416L241.406 192.536L248.744 289.312Z" fill="#494949"/>
<path d="M221.422 289.312L221.891 289.192L214.553 192.416L214.084 192.536L221.422 289.312Z" fill="#494949"/>
<path d="M161.026 289.313L160.557 289.193L167.895 192.417L168.364 192.537L161.026 289.313Z" fill="#494949"/>
<path d="M188.348 289.313L187.879 289.193L195.217 192.417L195.686 192.537L188.348 289.313Z" fill="#494949"/>
<path d="M198.078 149.822L193.791 192.433L194.265 192.517L198.552 149.906L198.078 149.822Z" fill="#494949"/>
<path d="M247.279 149.822L242.992 192.433L243.466 192.517L247.753 149.906L247.279 149.822Z" fill="#494949"/>
<path d="M193.834 195.597H241.959C243.258 195.597 244.311 194.2 244.311 192.476V192.476C244.311 190.753 243.258 189.356 241.959 189.356H193.834C192.535 189.356 191.483 190.753 191.483 192.476V192.476C191.483 194.2 192.535 195.597 193.834 195.597Z" fill="#292A2E"/>
<path opacity="0.8" d="M193.834 195.597H241.959C243.258 195.597 244.311 194.2 244.311 192.476V192.476C244.311 190.753 243.258 189.356 241.959 189.356H193.834C192.535 189.356 191.483 190.753 191.483 192.476V192.476C191.483 194.2 192.535 195.597 193.834 195.597Z" fill="white"/>
<path d="M191.244 192.476C191.245 191.565 191.518 190.691 192.004 190.047C192.489 189.403 193.148 189.04 193.834 189.039H241.96C242.647 189.039 243.306 189.401 243.791 190.046C244.277 190.691 244.55 191.565 244.55 192.477C244.55 193.388 244.277 194.263 243.791 194.907C243.306 195.552 242.647 195.914 241.96 195.914H193.834C193.148 195.913 192.489 195.551 192.004 194.906C191.518 194.262 191.245 193.388 191.244 192.476ZM193.834 189.673C193.274 189.673 192.737 189.969 192.341 190.494C191.945 191.02 191.722 191.733 191.722 192.476C191.722 193.22 191.945 193.933 192.341 194.458C192.737 194.984 193.274 195.279 193.834 195.279H241.96C242.52 195.279 243.057 194.984 243.453 194.458C243.849 193.933 244.072 193.22 244.072 192.476C244.072 191.733 243.849 191.02 243.453 190.494C243.057 189.969 242.52 189.673 241.96 189.673H193.834Z" fill="#292A2E"/>
<path d="M167.42 195.597H215.545C216.844 195.597 217.896 194.2 217.896 192.476V192.476C217.896 190.753 216.844 189.356 215.545 189.356H167.42C166.121 189.356 165.069 190.753 165.069 192.476V192.476C165.069 194.2 166.121 195.597 167.42 195.597Z" fill="white"/>
<path d="M164.828 192.476C164.829 191.565 165.102 190.691 165.588 190.046C166.074 189.402 166.733 189.04 167.419 189.039H215.545C216.232 189.039 216.891 189.401 217.377 190.046C217.862 190.691 218.135 191.565 218.135 192.477C218.135 193.388 217.862 194.263 217.377 194.907C216.891 195.552 216.232 195.914 215.545 195.914H167.419C166.733 195.913 166.074 195.551 165.588 194.907C165.102 194.262 164.829 193.388 164.828 192.476ZM167.419 189.674C167.142 189.674 166.867 189.746 166.611 189.887C166.355 190.028 166.122 190.234 165.926 190.495C165.73 190.755 165.574 191.064 165.468 191.404C165.362 191.744 165.307 192.109 165.307 192.477C165.307 192.845 165.362 193.209 165.468 193.549C165.574 193.889 165.73 194.198 165.926 194.459C166.122 194.719 166.355 194.925 166.611 195.066C166.867 195.207 167.142 195.28 167.419 195.28H215.545C216.105 195.28 216.642 194.984 217.038 194.459C217.435 193.933 217.657 193.22 217.657 192.477C217.657 191.733 217.435 191.02 217.038 190.495C216.642 189.969 216.105 189.674 215.545 189.674H167.419Z" fill="#292A2E"/>
<path d="M200.717 149.866H247.391C248.155 149.866 248.892 149.497 249.465 148.829C250.038 148.16 250.409 147.238 250.507 146.234L253.595 114.766C253.652 114.178 253.615 113.581 253.485 113.013C253.354 112.446 253.135 111.922 252.84 111.476C252.545 111.03 252.182 110.673 251.775 110.429C251.367 110.184 250.926 110.058 250.479 110.058H203.805C203.041 110.057 202.304 110.426 201.731 111.094C201.157 111.763 200.786 112.686 200.688 113.69L197.601 145.157C197.543 145.745 197.58 146.343 197.711 146.91C197.841 147.478 198.061 148.002 198.356 148.448C198.651 148.893 199.014 149.25 199.421 149.495C199.829 149.739 200.271 149.866 200.717 149.866Z" fill="#292A2E"/>
<path opacity="0.8" d="M200.717 149.866H247.391C248.155 149.866 248.892 149.497 249.465 148.829C250.038 148.16 250.409 147.238 250.507 146.234L253.595 114.766C253.652 114.178 253.615 113.581 253.485 113.013C253.354 112.446 253.135 111.922 252.84 111.476C252.545 111.03 252.182 110.673 251.775 110.429C251.367 110.184 250.926 110.058 250.479 110.058H203.805C203.041 110.057 202.304 110.426 201.731 111.094C201.157 111.763 200.786 112.686 200.688 113.69L197.601 145.157C197.543 145.745 197.58 146.343 197.711 146.91C197.841 147.478 198.061 148.002 198.356 148.448C198.651 148.893 199.014 149.25 199.421 149.495C199.829 149.739 200.271 149.866 200.717 149.866Z" fill="white"/>
<path d="M198.177 148.657C197.86 148.177 197.623 147.613 197.483 147.003C197.343 146.392 197.302 145.749 197.364 145.116L200.452 113.65C200.559 112.57 200.958 111.579 201.575 110.86C202.192 110.141 202.984 109.744 203.804 109.741H250.478C250.959 109.741 251.435 109.877 251.873 110.141C252.311 110.404 252.702 110.788 253.019 111.268C253.336 111.747 253.573 112.311 253.713 112.922C253.853 113.532 253.893 114.176 253.831 114.809L250.744 146.275C250.636 147.355 250.237 148.346 249.621 149.065C249.004 149.783 248.212 150.181 247.391 150.183H200.717C200.236 150.183 199.761 150.047 199.323 149.783C198.885 149.52 198.494 149.136 198.177 148.657ZM203.804 110.376C203.099 110.378 202.42 110.719 201.89 111.337C201.361 111.954 201.018 112.805 200.926 113.731L197.839 145.198C197.785 145.741 197.82 146.294 197.94 146.818C198.061 147.342 198.264 147.826 198.536 148.238C198.809 148.65 199.144 148.98 199.52 149.206C199.897 149.432 200.305 149.549 200.718 149.549H247.391C248.096 149.547 248.776 149.205 249.306 148.588C249.835 147.971 250.178 147.12 250.27 146.193L253.357 114.726C253.411 114.183 253.376 113.631 253.256 113.107C253.136 112.582 252.933 112.098 252.66 111.686C252.388 111.275 252.052 110.945 251.676 110.719C251.3 110.493 250.892 110.376 250.479 110.376H203.804Z" fill="#292A2E"/>
<path d="M198.077 149.866H244.751C245.514 149.866 246.251 149.497 246.825 148.829C247.398 148.16 247.769 147.238 247.867 146.234L250.954 114.766C251.012 114.178 250.975 113.581 250.844 113.013C250.714 112.446 250.494 111.922 250.199 111.476C249.905 111.03 249.541 110.673 249.134 110.429C248.727 110.184 248.285 110.058 247.838 110.058H201.165C200.402 110.058 199.665 110.426 199.092 111.094C198.518 111.763 198.148 112.685 198.049 113.689L194.962 145.156C194.904 145.744 194.942 146.342 195.072 146.909C195.202 147.477 195.421 148.001 195.716 148.447C196.011 148.892 196.374 149.25 196.781 149.494C197.189 149.739 197.63 149.866 198.077 149.866Z" fill="white"/>
<path d="M195.536 148.657C195.219 148.177 194.982 147.613 194.842 147.003C194.702 146.392 194.662 145.749 194.724 145.116L197.811 113.65C197.919 112.57 198.318 111.578 198.935 110.86C199.552 110.141 200.344 109.743 201.165 109.741H247.839C248.32 109.741 248.795 109.877 249.233 110.141C249.671 110.404 250.062 110.788 250.379 111.268C250.697 111.747 250.933 112.311 251.073 112.922C251.213 113.532 251.254 114.176 251.192 114.809L248.104 146.275C247.997 147.355 247.597 148.346 246.981 149.065C246.364 149.783 245.572 150.181 244.751 150.183H198.077C197.596 150.183 197.121 150.047 196.683 149.784C196.244 149.52 195.854 149.136 195.536 148.657ZM201.165 110.376C200.46 110.378 199.78 110.719 199.251 111.336C198.721 111.953 198.378 112.804 198.286 113.731L195.199 145.198C195.145 145.741 195.18 146.294 195.3 146.818C195.42 147.342 195.624 147.826 195.896 148.238C196.168 148.65 196.504 148.98 196.88 149.206C197.256 149.432 197.664 149.549 198.077 149.549H244.751C245.455 149.547 246.136 149.205 246.665 148.588C247.194 147.971 247.537 147.12 247.63 146.193L250.717 114.727C250.77 114.183 250.736 113.631 250.615 113.107C250.495 112.582 250.292 112.098 250.02 111.687C249.747 111.275 249.412 110.945 249.035 110.719C248.659 110.493 248.251 110.376 247.838 110.376H201.165Z" fill="#292A2E"/>
<path d="M162.802 272.549C162.802 272.549 161.521 281.367 155.3 281.858C149.079 282.35 150.428 288.927 150.428 288.927H174.201V273.164L162.802 272.549Z" fill="#2A2CA8"/>
<path d="M184.132 266.982C184.132 266.982 185.915 275.645 180.496 279.731C175.078 283.816 178.476 288.927 178.476 288.927L199.807 274.999L194.564 260.856L184.132 266.982Z" fill="#2A2CA8"/>
<path d="M197.344 264.535L179.355 189.22H211.962C218.512 189.22 221.242 181.848 221.242 173.155C221.242 164.463 214.803 156.843 208.254 156.843H164.247C160.252 156.843 155.773 160.085 153.58 164.517C151.388 168.95 151.98 175.818 153.569 180.683L182.374 273.536" fill="#262626"/>
<path opacity="0.8" d="M197.344 264.535L179.355 189.22H211.962C218.512 189.22 221.242 181.848 221.242 173.155C221.242 164.463 214.803 156.843 208.254 156.843H164.247C160.252 156.843 155.773 160.085 153.58 164.517C151.388 168.95 151.98 175.818 153.569 180.683L182.374 273.536" fill="#0A0A0A"/>
<path d="M176.058 278.871L181.748 189.219L221.241 189.216C230.495 188.253 234.733 181.522 234.598 172.832C234.465 164.251 231.192 155.776 224.756 155.776H171.527C166.765 155.906 161.252 161.884 161.252 168.76L158.486 277.829" fill="#262626"/>
<path d="M237.293 155.881C237.293 155.881 239.047 171.061 236.267 179.501C232.796 190.037 219.785 189.216 219.785 189.216L220.518 155.776L237.293 155.881Z" fill="#262626"/>
<path d="M239.227 154.164L239.277 154.168C239.277 154.168 239.241 152.875 239.227 154.164Z" fill="#333333"/>
<path d="M239.16 154.164L239.211 154.168C239.211 154.168 239.174 152.875 239.16 154.164Z" fill="#333333"/>
<path d="M154.494 92.6231C154.587 92.3785 154.735 92.1783 154.917 92.0501C155.099 91.9219 155.307 91.872 155.512 91.9074C155.511 91.8832 155.515 91.859 155.524 91.8379C155.533 91.8217 155.546 91.809 155.56 91.8013C155.574 91.7935 155.59 91.791 155.605 91.7938L154.915 91.1364C154.708 90.9486 154.56 90.668 154.497 90.3465C154.434 90.025 154.461 89.6842 154.573 89.387C154.691 89.0981 154.885 88.8776 155.119 88.768C155.352 88.6584 155.607 88.6677 155.836 88.7941C155.834 88.781 155.841 88.7687 155.842 88.7554L155.558 88.4854C155.364 88.3075 155.223 88.0462 155.157 87.7456C155.091 87.445 155.106 87.1235 155.198 86.8356C155.259 86.6565 155.349 86.4976 155.462 86.3703C155.575 86.2431 155.707 86.1506 155.85 86.0996C155.993 86.0485 156.143 86.0403 156.289 86.0753C156.434 86.1104 156.572 86.1879 156.693 86.3023L157.348 86.9254C157.35 86.9203 157.348 86.9142 157.35 86.9095C157.353 86.9047 157.36 86.9028 157.364 86.8978C157.213 86.6731 157.125 86.3873 157.113 86.0872C157.101 85.7871 157.166 85.4906 157.298 85.2461C157.607 84.5858 158.321 84.7207 158.745 85.1236L162.601 88.6586L161.912 87.1154C161.773 86.819 161.724 86.4638 161.775 86.1215C161.826 85.7791 161.973 85.4752 162.186 85.2711C162.299 85.1709 162.426 85.1023 162.56 85.0694C162.693 85.0365 162.83 85.04 162.963 85.0798C163.095 85.1196 163.22 85.1948 163.33 85.3008C163.44 85.4068 163.532 85.5413 163.602 85.6963L167.365 94.1038C167.806 95.0903 167.941 96.2663 167.739 97.3821C167.538 98.4979 167.017 99.4654 166.286 100.079C165.439 100.791 164.451 101.151 163.449 101.113C162.447 101.075 161.476 100.64 160.661 99.8648L154.838 94.3253C154.645 94.1345 154.505 93.8626 154.443 93.5537C154.38 93.2448 154.398 92.9169 154.494 92.6231Z" fill="#E98862"/>
<g opacity="0.25">
<path opacity="0.25" d="M161.164 90.4154C161.15 90.4412 161.129 90.4587 161.105 90.4641C161.081 90.4694 161.057 90.4622 161.037 90.4439L157.373 87.0762C157.353 87.0576 157.34 87.0293 157.335 86.9975C157.331 86.9657 157.337 86.9329 157.35 86.9063C157.364 86.8798 157.385 86.8615 157.409 86.8556C157.433 86.8497 157.458 86.8565 157.478 86.8747L161.142 90.2431C161.152 90.2522 161.161 90.2638 161.167 90.2773C161.174 90.2908 161.178 90.3059 161.181 90.3217C161.183 90.3375 161.183 90.3538 161.18 90.3696C161.178 90.3853 161.173 90.4002 161.166 90.4135L161.164 90.4154Z" fill="#0C0C0C"/>
</g>
<g opacity="0.25">
<path opacity="0.25" d="M160.091 92.6015C160.077 92.6274 160.055 92.6448 160.032 92.6502C160.008 92.6555 159.984 92.6483 159.964 92.6301L155.876 88.8714C155.856 88.853 155.842 88.8247 155.838 88.7928C155.833 88.7608 155.838 88.7278 155.852 88.701C155.866 88.6751 155.888 88.6574 155.912 88.6516C155.935 88.6457 155.96 88.652 155.98 88.6693L160.069 92.428C160.079 92.4371 160.088 92.4487 160.095 92.4622C160.101 92.4757 160.106 92.4907 160.108 92.5066C160.11 92.5224 160.11 92.5386 160.107 92.5544C160.105 92.5701 160.1 92.5851 160.093 92.5983L160.091 92.6015Z" fill="#0C0C0C"/>
</g>
<g opacity="0.25">
<path opacity="0.25" d="M158.934 94.9769C158.92 95.0028 158.899 95.0202 158.875 95.0256C158.851 95.0309 158.827 95.0237 158.807 95.0055L155.545 92.0073C155.526 91.9884 155.513 91.9602 155.509 91.9287C155.505 91.8973 155.511 91.865 155.524 91.8388C155.538 91.8126 155.559 91.7945 155.582 91.7884C155.606 91.7823 155.631 91.7887 155.651 91.8062L158.912 94.8043C158.922 94.8134 158.931 94.825 158.937 94.8385C158.944 94.852 158.949 94.8671 158.951 94.8829C158.953 94.8988 158.953 94.915 158.95 94.9308C158.948 94.9465 158.943 94.9614 158.936 94.9747L158.934 94.9769Z" fill="#0C0C0C"/>
</g>
<path d="M169.586 92.1885L180.638 117.17L194.123 93.6942L205.322 107.095L186.196 139.969L186.07 140.202C185.305 141.594 184.285 142.704 183.107 143.428C181.929 144.152 180.631 144.465 179.336 144.34C178.042 144.214 176.792 143.653 175.706 142.709C174.62 141.765 173.733 140.47 173.128 138.945L157.412 101.173L169.586 92.1885Z" fill="#2A2CA8"/>
<path d="M181.72 120.174C181.744 120.174 181.768 120.166 181.789 120.15C181.809 120.135 181.827 120.112 181.84 120.085C181.852 120.058 181.859 120.027 181.86 119.995C181.861 119.963 181.856 119.931 181.845 119.903L180.762 117.085C180.744 117.043 180.715 117.012 180.68 116.997C180.645 116.983 180.607 116.988 180.575 117.01C180.542 117.032 180.518 117.069 180.506 117.115C180.494 117.161 180.496 117.211 180.511 117.255L181.595 120.072C181.607 120.103 181.625 120.129 181.647 120.147C181.669 120.165 181.694 120.174 181.72 120.174Z" fill="#0C0C0C"/>
<path d="M194.899 117.029L194.619 117.05L194.957 124.94L195.237 124.919L194.899 117.029Z" fill="#0C0C0C"/>
<path d="M230.509 59.9239C230.509 59.9239 231.027 68.7065 232.545 71.8725C236.914 80.9866 238.247 91.2953 233.999 96.7564C229.75 102.217 202.354 102.714 200.17 90.3371C198.332 79.9159 202.072 78.735 202.909 70.1018C203.288 66.196 204.352 58.001 204.352 58.001" fill="#0A0A0A"/>
<path d="M207.145 88.3575C207.192 88.3492 207.717 99.906 217.833 98.8996C224.838 98.2032 227.334 88.341 227.495 88.341C226.74 88.1281 225.468 87.8184 225.133 87.5795C224.03 86.793 222.665 85.9748 222.31 83.1324C222.105 81.494 222.453 73.1128 222.345 71.4551L211.595 74.6398C211.745 78.1405 212.796 86.2562 209.111 87.6925C208.498 87.9314 207.838 88.15 207.145 88.3575Z" fill="#E98862"/>
<path opacity="0.52" d="M211.445 84.3767C211.614 83.6564 211.722 82.9138 211.769 82.1622C211.887 80.4471 211.863 78.72 211.698 77.0117C213.884 76.6203 215.942 75.4233 217.64 73.5566C217.84 74.5351 218.938 78.8106 218.634 79.7405C218.059 81.4985 215.359 84.3767 211.445 84.3767Z" fill="#0C0C0C"/>
<path d="M212.868 80.7395C217.111 81.2185 222.575 78.8841 223.646 71.376L224.612 64.601C225.682 57.0926 223.579 50.2606 218.253 48.9217C212.926 47.5838 208.077 52.6705 207.006 60.179L206.579 63.1781C206.167 66.0592 205.297 79.8844 212.868 80.7395Z" fill="#E98862"/>
<path d="M208.097 63.5047C208.466 63.5047 208.765 63.1079 208.765 62.6186C208.765 62.1292 208.466 61.7324 208.097 61.7324C207.729 61.7324 207.43 62.1292 207.43 62.6186C207.43 63.1079 207.729 63.5047 208.097 63.5047Z" fill="#0C0C0C"/>
<path d="M214.937 64.7176C215.306 64.7176 215.605 64.3208 215.605 63.8314C215.605 63.342 215.306 62.9453 214.937 62.9453C214.568 62.9453 214.27 63.342 214.27 63.8314C214.27 64.3208 214.568 64.7176 214.937 64.7176Z" fill="#0C0C0C"/>
<path d="M211.183 70.3283C211.179 70.3279 211.176 70.3273 211.172 70.3264C210.957 70.2699 210.743 70.1977 210.534 70.1103C210.22 69.9767 209.81 69.7553 209.864 69.3806C209.925 68.9529 211.466 64.5582 211.642 64.0591C211.657 64.0154 211.685 63.9816 211.719 63.9651C211.753 63.9486 211.791 63.9507 211.824 63.9711C211.857 63.9914 211.882 64.0282 211.894 64.0735C211.907 64.1187 211.905 64.1687 211.89 64.2123C211.233 66.0842 210.174 69.1617 210.133 69.4472C210.168 69.5808 210.688 69.8343 211.224 69.9691C211.259 69.9774 211.29 70.0035 211.311 70.0419C211.332 70.0803 211.34 70.1279 211.335 70.1746C211.33 70.2213 211.311 70.2635 211.283 70.2922C211.254 70.3208 211.219 70.3336 211.183 70.328L211.183 70.3283Z" fill="#0C0C0C"/>
<path d="M211.974 73.5705C211.105 73.4207 210.275 73.002 209.55 72.3484C209.52 72.3221 209.499 72.2808 209.491 72.2337C209.484 72.1866 209.491 72.1374 209.51 72.0971C209.53 72.0567 209.561 72.0285 209.597 72.0186C209.632 72.0086 209.669 72.0178 209.7 72.0441C211.268 73.4001 212.826 73.6193 214.206 72.6786C214.233 72.6583 214.262 72.6402 214.291 72.6244C214.326 72.608 214.363 72.6103 214.396 72.6307C214.429 72.6512 214.454 72.6881 214.467 72.7334C214.479 72.7786 214.477 72.8286 214.462 72.8721C214.446 72.9157 214.419 72.9494 214.384 72.9658C214.374 72.9718 214.356 72.9845 214.331 73.0016C213.605 73.4982 212.785 73.6962 211.974 73.5705Z" fill="#0C0C0C"/>
<path d="M228.874 66.9618L224.099 65.8C220.483 63.8577 219.39 55.5491 219.39 55.5491C219.39 55.5491 214.997 61.2313 204.354 57.9997C204.354 57.9997 206.488 38.2974 222.214 44.026C227.285 45.8734 230.924 52.6556 230.471 61.7193C230.152 68.0713 228.874 66.9618 228.874 66.9618Z" fill="#0A0A0A"/>
<path d="M222.989 73.5801C224.608 73.9865 226.248 72.0179 226.554 69.8681C226.861 67.7183 225.718 66.2052 224.099 65.7988L223.059 67.0289L221.598 73.2292L222.989 73.5801Z" fill="#E98862"/>
<path d="M210.668 60.4682C210.196 60.0635 209.651 59.8349 209.089 59.8064C208.812 59.79 208.536 59.8288 208.268 59.9215C208.003 60.012 207.747 60.1464 207.507 60.3216C207.476 60.3461 207.454 60.3849 207.443 60.4304C207.433 60.4759 207.436 60.5249 207.452 60.5676C207.467 60.6104 207.494 60.6439 207.528 60.6615C207.561 60.6792 207.598 60.6797 207.631 60.663L207.641 60.657C207.863 60.5129 208.098 60.4063 208.34 60.3397C208.579 60.2718 208.824 60.2523 209.068 60.282C209.551 60.3354 210.014 60.5577 210.412 60.9263L210.424 60.9387C210.447 60.9638 210.473 60.9824 210.502 60.9934C210.53 61.0044 210.56 61.0076 210.589 61.0028C210.618 60.9979 210.646 60.9852 210.672 60.9653C210.697 60.9453 210.719 60.9187 210.736 60.887C210.754 60.8554 210.766 60.8193 210.772 60.7811C210.779 60.7429 210.779 60.7033 210.773 60.6649C210.768 60.6265 210.756 60.59 210.74 60.5578C210.723 60.5255 210.701 60.4982 210.676 60.4774L210.668 60.4682Z" fill="#0C0C0C"/>
<path d="M214.926 61.7978C215.396 61.645 215.889 61.66 216.354 61.8413C216.589 61.9305 216.813 62.0665 217.017 62.2445C217.225 62.4229 217.414 62.6352 217.581 62.8765L217.589 62.8866C217.616 62.9183 217.65 62.9356 217.686 62.935C217.722 62.9345 217.756 62.9163 217.783 62.8839C217.809 62.8515 217.825 62.8073 217.828 62.76C217.831 62.7127 217.82 62.6656 217.798 62.6281C217.622 62.3498 217.42 62.1019 217.198 61.8904C216.973 61.6756 216.726 61.5066 216.463 61.3892C215.932 61.1464 215.361 61.0981 214.81 61.2492C214.758 61.2691 214.713 61.3147 214.685 61.3768C214.657 61.439 214.648 61.5129 214.659 61.5837C214.671 61.6546 214.702 61.717 214.747 61.7583C214.792 61.7996 214.847 61.8168 214.901 61.8064L214.909 61.8035L214.926 61.7978Z" fill="#0C0C0C"/>
<path d="M211.787 75.2744C211.629 75.2505 211.474 75.209 211.322 75.1503C211.287 75.137 211.257 75.1058 211.24 75.0637C211.222 75.0215 211.218 74.9718 211.228 74.9255C211.238 74.8793 211.262 74.8402 211.293 74.8169C211.325 74.7936 211.363 74.788 211.397 74.8013C212.313 75.1503 212.834 74.6877 212.856 74.6678C212.885 74.6401 212.922 74.6292 212.958 74.6375C212.994 74.6458 213.025 74.6726 213.046 74.712C213.067 74.7514 213.075 74.8002 213.069 74.8477C213.063 74.8951 213.043 74.9374 213.013 74.965C212.643 75.253 212.21 75.3623 211.787 75.2744Z" fill="#0C0C0C"/>
<path d="M224.088 65.7193L224.135 65.5439C218.086 62.6615 219.565 54.7819 219.581 54.7025L219.445 54.6553C219.428 54.7362 217.915 62.7782 224.088 65.7193Z" fill="#0C0C0C"/>
<path opacity="0.1" d="M216.84 69.8312C216.895 69.1512 216.374 68.5191 215.675 68.4194C214.977 68.3197 214.366 68.79 214.311 69.47C214.256 70.15 214.777 70.782 215.476 70.8818C216.174 70.9815 216.785 70.5112 216.84 69.8312Z" fill="#0C0C0C"/>
<path opacity="0.1" d="M208.082 68.2797C208.026 68.9587 207.415 69.4286 206.717 69.3299C206.596 69.3128 206.477 69.279 206.361 69.229C206.322 68.4209 206.314 67.6427 206.325 66.9231C206.518 66.8558 206.719 66.8371 206.917 66.8679C207.615 66.9663 208.137 67.5982 208.082 68.2797Z" fill="#0C0C0C"/>
<path d="M194.576 113.802C194.895 118.771 196.445 149.653 196.752 155.774L237.291 155.889C237.53 150.368 240.286 126.233 241.19 115.439C242.054 105.139 243.748 99.9824 242.505 96.9372C240.476 91.9606 234.932 89.0849 231.15 88.4053C228.842 87.9906 225.369 87.6934 225.369 87.6934C225.369 87.6934 225.075 95.5866 218.065 96.0261C208.522 96.6235 209.159 87.6934 209.112 87.6934C207.566 87.6934 198.734 88.9919 196.574 90.6918C190.687 95.3179 193.9 103.273 194.576 113.802Z" fill="#2A2CA8"/>
<path d="M168.262 117.273L172.17 142.481C172.249 142.993 172.458 143.453 172.762 143.785C173.066 144.117 173.447 144.3 173.841 144.305L200.749 144.609C201.005 144.612 201.259 144.538 201.492 144.394C201.724 144.25 201.93 144.039 202.093 143.775C202.256 143.512 202.372 143.204 202.434 142.873C202.496 142.543 202.501 142.198 202.449 141.864L198.541 116.656C198.462 116.144 198.253 115.684 197.949 115.352C197.645 115.021 197.264 114.837 196.87 114.833L169.962 114.528C169.706 114.525 169.452 114.599 169.219 114.743C168.987 114.887 168.781 115.099 168.618 115.362C168.455 115.625 168.339 115.933 168.277 116.264C168.215 116.595 168.21 116.939 168.262 117.273Z" fill="#292A2E"/>
<path d="M193.352 135.179C193.337 135.511 193.414 135.839 193.567 136.102C193.72 136.365 193.94 136.545 194.186 136.61L195.014 136.853C194.999 136.859 194.986 136.87 194.975 136.885C194.964 136.9 194.956 136.918 194.952 136.938C194.95 136.962 194.954 136.985 194.963 137.005C194.764 137.08 194.587 137.234 194.458 137.448C194.328 137.662 194.251 137.924 194.239 138.198C194.238 138.517 194.318 138.828 194.466 139.079C194.614 139.331 194.822 139.509 195.056 139.584L202.051 141.647C202.408 141.753 202.774 141.806 203.14 141.805C203.957 141.805 204.761 141.541 205.483 141.037C206.206 140.533 206.825 139.802 207.288 138.91C207.778 137.965 207.972 136.804 207.827 135.673C207.682 134.542 207.211 133.53 206.513 132.854L200.563 127.079C200.432 126.952 200.279 126.869 200.119 126.837L200.666 130.366L200.521 130.321L200.489 130.314L195.926 129.083C195.418 128.933 194.722 129.178 194.632 129.947C194.584 130.241 194.612 130.548 194.712 130.818C194.811 131.088 194.977 131.305 195.182 131.434C195.179 131.438 195.173 131.441 195.173 131.449C195.173 131.457 195.176 131.46 195.176 131.467L194.387 131.236C194.243 131.194 194.093 131.195 193.949 131.238C193.805 131.282 193.67 131.367 193.554 131.488C193.438 131.609 193.343 131.763 193.277 131.939C193.211 132.114 193.175 132.307 193.172 132.503C193.172 132.816 193.254 133.119 193.403 133.362C193.552 133.604 193.76 133.771 193.992 133.833L194.332 133.934C194.334 133.948 194.332 133.963 194.337 133.975C194.09 133.977 193.851 134.102 193.669 134.325C193.487 134.547 193.374 134.852 193.352 135.179Z" fill="#E98862"/>
<g opacity="0.25">
<path opacity="0.25" d="M199.718 132.691C199.713 132.723 199.699 132.75 199.679 132.767C199.658 132.784 199.634 132.79 199.61 132.784L195.244 131.596C195.232 131.593 195.22 131.587 195.21 131.578C195.2 131.569 195.191 131.557 195.184 131.544C195.177 131.53 195.172 131.515 195.17 131.499C195.167 131.483 195.167 131.466 195.17 131.45C195.172 131.434 195.177 131.419 195.184 131.406C195.191 131.392 195.2 131.381 195.21 131.372C195.221 131.363 195.232 131.357 195.245 131.354C195.257 131.352 195.269 131.352 195.281 131.356L199.647 132.544C199.659 132.547 199.67 132.554 199.68 132.563C199.69 132.572 199.699 132.583 199.706 132.597C199.712 132.61 199.717 132.625 199.719 132.641C199.721 132.657 199.721 132.673 199.719 132.689L199.718 132.691Z" fill="#0C0C0C"/>
</g>
<g opacity="0.25">
<path opacity="0.25" d="M199.379 135.26C199.373 135.291 199.359 135.318 199.339 135.336C199.319 135.353 199.294 135.359 199.27 135.353L194.398 134.027C194.386 134.023 194.375 134.017 194.365 134.008C194.355 133.999 194.346 133.987 194.339 133.974C194.333 133.961 194.328 133.946 194.326 133.93C194.324 133.914 194.324 133.898 194.326 133.882C194.332 133.851 194.346 133.824 194.366 133.806C194.387 133.788 194.411 133.782 194.435 133.787L199.307 135.113C199.331 135.12 199.352 135.139 199.366 135.166C199.379 135.193 199.384 135.226 199.379 135.258L199.379 135.26Z" fill="#0C0C0C"/>
</g>
<g opacity="0.25">
<path opacity="0.25" d="M199.021 138.047C199.015 138.078 199.001 138.105 198.981 138.123C198.96 138.14 198.936 138.146 198.912 138.14L195.026 137.082C195.002 137.075 194.981 137.056 194.968 137.029C194.955 137.002 194.95 136.969 194.955 136.938C194.96 136.906 194.974 136.878 194.994 136.86C195.014 136.843 195.039 136.836 195.063 136.842L198.949 137.9C198.973 137.906 198.994 137.925 199.008 137.952C199.021 137.979 199.026 138.012 199.021 138.044L199.021 138.047Z" fill="#0C0C0C"/>
</g>
<path d="M202.484 145.318L240.433 154.42C241.617 154.591 242.815 154.396 243.933 153.849C245.05 153.302 246.058 152.419 246.875 151.269C247.692 150.119 248.298 148.734 248.644 147.221C248.99 145.708 249.067 144.11 248.87 142.551L243.557 100.64C243.392 99.3114 243.031 98.0396 242.494 96.8969C241.958 95.7543 241.257 94.7633 240.432 93.9809C239.606 93.1984 238.672 92.6399 237.684 92.3372C236.696 92.0345 235.672 91.9936 234.672 92.217C233.672 92.4403 232.714 92.9234 231.855 93.6386C230.996 94.3538 230.251 95.2871 229.664 96.3849C229.077 97.4827 228.659 98.7235 228.434 100.036C228.209 101.349 228.181 102.708 228.352 104.034L231.976 132.886L204.153 128.249L202.484 145.318Z" fill="#2A2CA8"/>
<path d="M240.433 154.606C240.468 154.605 240.501 154.588 240.527 154.556C240.552 154.525 240.568 154.482 240.571 154.435C240.574 154.389 240.564 154.343 240.543 154.306C240.522 154.27 240.491 154.245 240.457 154.236L202.639 145.166L204.273 128.457L231.955 133.071C231.976 133.075 231.999 133.072 232.02 133.062C232.04 133.052 232.059 133.036 232.074 133.015C232.089 132.994 232.1 132.969 232.107 132.942C232.113 132.914 232.115 132.885 232.111 132.856L229.81 114.418C229.807 114.394 229.801 114.37 229.791 114.349C229.782 114.328 229.769 114.31 229.754 114.296C229.739 114.282 229.722 114.272 229.704 114.266C229.686 114.261 229.667 114.26 229.649 114.265C229.612 114.273 229.579 114.3 229.558 114.34C229.536 114.38 229.527 114.43 229.533 114.479L231.804 132.671L204.17 128.065C204.133 128.06 204.096 128.073 204.067 128.103C204.038 128.133 204.018 128.177 204.013 128.226L202.345 145.295C202.34 145.343 202.35 145.391 202.371 145.429C202.392 145.468 202.424 145.494 202.459 145.503L240.408 154.603C240.416 154.605 240.425 154.606 240.433 154.606Z" fill="#0C0C0C"/>
<path d="M231.998 132.704L231.953 133.072L234.394 133.591L234.438 133.222L231.998 132.704Z" fill="#0C0C0C"/>
<path d="M265.833 289.124H5.16734C5.12296 289.124 5.08039 289.1 5.04901 289.059C5.01763 289.017 5 288.961 5 288.902C5 288.843 5.01763 288.786 5.04901 288.745C5.08039 288.703 5.12296 288.68 5.16734 288.68H265.833C265.877 288.68 265.92 288.703 265.951 288.745C265.982 288.786 266 288.843 266 288.902C266 288.961 265.982 289.017 265.951 289.059C265.92 289.1 265.877 289.124 265.833 289.124H265.833Z" fill="#292A2E"/>
<g opacity="0.65">
<path opacity="0.65" d="M265.833 289.124H5.16734C5.12296 289.124 5.08039 289.1 5.04901 289.059C5.01763 289.017 5 288.961 5 288.902C5 288.843 5.01763 288.786 5.04901 288.745C5.08039 288.703 5.12296 288.68 5.16734 288.68H265.833C265.877 288.68 265.92 288.703 265.951 288.745C265.982 288.786 266 288.843 266 288.902C266 288.961 265.982 289.017 265.951 289.059C265.92 289.1 265.877 289.124 265.833 289.124H265.833Z" fill="#292A2E"/>
</g>
<path d="M21.1961 289.312L20.7266 289.192L28.0644 192.416L28.5339 192.536L21.1961 289.312Z" fill="#494949"/>
<path d="M48.5203 289.312L48.0508 289.192L55.3884 192.416L55.8579 192.536L48.5203 289.312Z" fill="#494949"/>
<path d="M108.914 289.313L109.384 289.193L102.046 192.417L101.576 192.537L108.914 289.313Z" fill="#494949"/>
<path d="M81.5916 289.313L82.0611 289.193L74.7234 192.417L74.2539 192.537L81.5916 289.313Z" fill="#494949"/>
<path d="M71.8606 149.825L71.3867 149.909L75.6734 192.519L76.1472 192.435L71.8606 149.825Z" fill="#494949"/>
<path d="M22.6575 149.825L22.1836 149.909L26.4702 192.519L26.9441 192.435L22.6575 149.825Z" fill="#494949"/>
<path d="M76.1056 189.356H27.98C26.6815 189.356 25.6289 190.753 25.6289 192.477V192.477C25.6289 194.2 26.6815 195.597 27.98 195.597H76.1056C77.4041 195.597 78.4567 194.2 78.4567 192.477V192.477C78.4567 190.753 77.4041 189.356 76.1056 189.356Z" fill="#292A2E"/>
<path opacity="0.8" d="M76.1056 189.356H27.98C26.6815 189.356 25.6289 190.753 25.6289 192.477V192.477C25.6289 194.2 26.6815 195.597 27.98 195.597H76.1056C77.4041 195.597 78.4567 194.2 78.4567 192.477V192.477C78.4567 190.753 77.4041 189.356 76.1056 189.356Z" fill="white"/>
<path d="M76.1064 195.914H27.9807C27.6406 195.914 27.3038 195.825 26.9895 195.653C26.6753 195.48 26.3898 195.227 26.1492 194.907C25.9087 194.588 25.7179 194.209 25.5878 193.792C25.4576 193.375 25.3906 192.928 25.3906 192.477C25.3906 192.025 25.4576 191.578 25.5878 191.161C25.7179 190.744 25.9087 190.365 26.1492 190.046C26.3898 189.727 26.6753 189.473 26.9895 189.301C27.3038 189.128 27.6406 189.039 27.9807 189.039H76.1064C76.7933 189.039 77.4521 189.401 77.9378 190.046C78.4236 190.691 78.6965 191.565 78.6965 192.477C78.6965 193.388 78.4236 194.263 77.9378 194.907C77.4521 195.552 76.7933 195.914 76.1064 195.914ZM27.9807 189.674C27.7034 189.674 27.4287 189.746 27.1725 189.887C26.9163 190.028 26.6834 190.235 26.4873 190.495C26.2912 190.755 26.1356 191.064 26.0295 191.404C25.9234 191.744 25.8687 192.109 25.8687 192.477C25.8687 192.845 25.9234 193.21 26.0295 193.55C26.1356 193.89 26.2912 194.199 26.4873 194.459C26.6834 194.719 26.9163 194.926 27.1725 195.067C27.4287 195.208 27.7034 195.28 27.9807 195.28H76.1064C76.6665 195.28 77.2037 194.985 77.5998 194.459C77.9959 193.933 78.2184 193.22 78.2184 192.477C78.2184 191.734 77.9959 191.021 77.5998 190.495C77.2037 189.969 76.6665 189.674 76.1064 189.674H27.9807Z" fill="#292A2E"/>
<path d="M102.52 189.356H54.394C53.0956 189.356 52.043 190.753 52.043 192.477V192.477C52.043 194.2 53.0956 195.597 54.394 195.597H102.52C103.818 195.597 104.871 194.2 104.871 192.477V192.477C104.871 190.753 103.818 189.356 102.52 189.356Z" fill="white"/>
<path d="M102.52 195.914H54.3948C54.0547 195.914 53.7178 195.825 53.4036 195.653C53.0894 195.48 52.8038 195.227 52.5633 194.907C52.3228 194.588 52.132 194.209 52.0018 193.792C51.8717 193.375 51.8047 192.928 51.8047 192.477C51.8047 192.025 51.8717 191.578 52.0018 191.161C52.132 190.744 52.3228 190.365 52.5633 190.046C52.8038 189.727 53.0894 189.473 53.4036 189.301C53.7178 189.128 54.0547 189.039 54.3948 189.039H102.52C102.861 189.039 103.197 189.128 103.512 189.301C103.826 189.473 104.111 189.727 104.352 190.046C104.592 190.365 104.783 190.744 104.913 191.161C105.044 191.578 105.111 192.025 105.111 192.477C105.111 192.928 105.044 193.375 104.913 193.792C104.783 194.209 104.592 194.588 104.352 194.907C104.111 195.227 103.826 195.48 103.512 195.653C103.197 195.825 102.861 195.914 102.52 195.914ZM54.3948 189.674C54.1174 189.674 53.8428 189.746 53.5866 189.887C53.3303 190.028 53.0975 190.235 52.9014 190.495C52.7053 190.755 52.5497 191.064 52.4436 191.404C52.3374 191.744 52.2828 192.109 52.2828 192.477C52.2828 192.845 52.3374 193.21 52.4436 193.55C52.5497 193.89 52.7053 194.199 52.9014 194.459C53.0975 194.719 53.3303 194.926 53.5866 195.067C53.8428 195.208 54.1174 195.28 54.3948 195.28H102.52C102.798 195.28 103.072 195.208 103.329 195.067C103.585 194.926 103.818 194.719 104.014 194.459C104.21 194.199 104.366 193.89 104.472 193.55C104.578 193.21 104.632 192.845 104.632 192.477C104.632 192.109 104.578 191.744 104.472 191.404C104.366 191.064 104.21 190.755 104.014 190.495C103.818 190.235 103.585 190.028 103.329 189.887C103.072 189.746 102.798 189.674 102.52 189.674H54.3948Z" fill="#292A2E"/>
<path d="M69.2238 149.866H22.55C21.7868 149.866 21.0498 149.497 20.4764 148.829C19.9031 148.16 19.5325 147.238 19.4339 146.234L16.3466 114.766C16.2889 114.178 16.3264 113.581 16.4566 113.013C16.5868 112.446 16.8067 111.922 17.1016 111.476C17.3965 111.03 17.7597 110.673 18.1668 110.429C18.5739 110.184 19.0157 110.058 19.4626 110.058H66.1365C66.8996 110.058 67.6366 110.426 68.21 111.094C68.7834 111.763 69.1539 112.685 69.2525 113.689L72.3396 145.156C72.3974 145.744 72.3601 146.342 72.23 146.909C72.0998 147.477 71.88 148.001 71.5851 148.447C71.2902 148.893 70.927 149.25 70.5198 149.495C70.1126 149.739 69.6708 149.866 69.2238 149.866Z" fill="#292A2E"/>
<path opacity="0.8" d="M69.2238 149.866H22.55C21.7868 149.866 21.0498 149.497 20.4764 148.829C19.9031 148.16 19.5325 147.238 19.4339 146.234L16.3466 114.766C16.2889 114.178 16.3264 113.581 16.4566 113.013C16.5868 112.446 16.8067 111.922 17.1016 111.476C17.3965 111.03 17.7597 110.673 18.1668 110.429C18.5739 110.184 19.0157 110.058 19.4626 110.058H66.1365C66.8996 110.058 67.6366 110.426 68.21 111.094C68.7834 111.763 69.1539 112.685 69.2525 113.689L72.3396 145.156C72.3974 145.744 72.3601 146.342 72.23 146.909C72.0998 147.477 71.88 148.001 71.5851 148.447C71.2902 148.893 70.927 149.25 70.5198 149.495C70.1126 149.739 69.6708 149.866 69.2238 149.866Z" fill="white"/>
<path d="M69.2245 150.183H22.5506C21.73 150.181 20.9378 149.783 20.3212 149.064C19.7046 148.346 19.3053 147.355 19.1975 146.275L16.1104 114.809C16.0482 114.176 16.0885 113.532 16.2286 112.922C16.3686 112.311 16.6052 111.747 16.9226 111.268C17.2399 110.788 17.6307 110.404 18.0688 110.141C18.507 109.877 18.9824 109.741 19.4633 109.741H66.1372C66.9579 109.744 67.75 110.141 68.3666 110.86C68.9832 111.579 69.3824 112.57 69.4901 113.65L72.5774 145.116C72.6396 145.749 72.5993 146.392 72.4592 147.003C72.3191 147.613 72.0825 148.177 71.7652 148.657C71.4478 149.136 71.057 149.521 70.6189 149.784C70.1808 150.047 69.7054 150.183 69.2245 150.183ZM19.4633 110.376C19.0504 110.376 18.6422 110.493 18.2661 110.719C17.8899 110.945 17.5544 111.275 17.2819 111.686C17.0095 112.098 16.8063 112.582 16.686 113.106C16.5658 113.631 16.5311 114.183 16.5844 114.726L19.6718 146.193C19.7642 147.12 20.107 147.971 20.6364 148.588C21.1659 149.205 21.846 149.547 22.5506 149.549H69.2245C69.6374 149.549 70.0456 149.432 70.4218 149.206C70.7979 148.98 71.1334 148.65 71.4059 148.238C71.6784 147.826 71.8815 147.342 72.0018 146.818C72.1221 146.294 72.1567 145.741 72.1034 145.198L69.0173 113.731C68.9247 112.804 68.582 111.953 68.0525 111.336C67.5231 110.719 66.843 110.378 66.1384 110.376H19.4633Z" fill="#292A2E"/>
<path d="M71.8642 149.866H25.1904C24.4273 149.866 23.6903 149.497 23.1169 148.829C22.5436 148.16 22.1731 147.238 22.0746 146.234L18.9872 114.766C18.9295 114.178 18.967 113.581 19.0972 113.013C19.2274 112.446 19.4473 111.922 19.7422 111.476C20.0371 111.03 20.4003 110.673 20.8074 110.429C21.2146 110.184 21.6563 110.058 22.1033 110.058H68.7771C69.5402 110.058 70.2772 110.426 70.8506 111.094C71.4239 111.763 71.7944 112.685 71.8929 113.689L74.9803 145.156C75.0381 145.744 75.0006 146.342 74.8705 146.91C74.7404 147.477 74.5205 148.001 74.2256 148.447C73.9306 148.893 73.5675 149.25 73.1603 149.495C72.7531 149.739 72.3112 149.866 71.8642 149.866Z" fill="white"/>
<path d="M71.8651 150.183H25.1912C24.3706 150.181 23.5784 149.783 22.9618 149.064C22.3452 148.346 21.946 147.355 21.8383 146.275L18.7509 114.809C18.6889 114.176 18.7292 113.532 18.8693 112.922C19.0094 112.311 19.2461 111.747 19.5634 111.268C19.8808 110.788 20.2715 110.404 20.7097 110.141C21.1478 109.877 21.6232 109.741 22.1041 109.741H68.7777C69.5984 109.744 70.3906 110.141 71.0072 110.86C71.6238 111.579 72.0231 112.57 72.1309 113.65L75.2182 145.116C75.2803 145.749 75.2399 146.392 75.0998 147.003C74.9596 147.613 74.723 148.177 74.4057 148.657C74.0883 149.136 73.6976 149.521 73.2594 149.784C72.8213 150.047 72.346 150.183 71.8651 150.183ZM22.1041 110.376C21.6911 110.376 21.2829 110.493 20.9066 110.718C20.5304 110.944 20.1948 111.274 19.9223 111.686C19.6497 112.098 19.4465 112.582 19.3262 113.107C19.2059 113.631 19.1712 114.183 19.2245 114.727L22.3116 146.193C22.4042 147.12 22.7471 147.971 23.2767 148.588C23.8062 149.205 24.4865 149.547 25.1912 149.549H71.8651C72.278 149.549 72.6861 149.432 73.0623 149.206C73.4385 148.98 73.774 148.65 74.0464 148.238C74.3189 147.826 74.5221 147.342 74.6423 146.818C74.7626 146.294 74.7973 145.741 74.744 145.198L71.6566 113.731C71.5641 112.804 71.2214 111.953 70.6919 111.336C70.1625 110.719 69.4824 110.378 68.7777 110.376H22.1041Z" fill="#292A2E"/>
<path d="M66.7198 61.5097C66.7198 61.5097 69.8215 58.4027 70.59 51.2509C71.185 45.7133 67.3363 49.301 67.3363 49.301C67.3363 49.301 67.7355 45.3082 65.5434 45.7044C63.3513 46.1007 62.125 50.2949 62.125 50.2949" fill="#0C0C0C"/>
<path d="M54.2147 46.1729C54.2147 46.1729 43.3393 47.7205 47.2707 67.2794L48.2329 67.3647L50.1864 67.5386" fill="#0C0C0C"/>
<path d="M64.8981 87.7029C64.8503 87.6947 64.3198 99.3783 54.0918 98.3609C47.0111 97.6568 44.4863 87.6864 44.3242 87.6864C45.0875 87.471 46.031 87.1442 46.4059 87.0319C47.2231 86.7802 47.9632 86.2043 48.5277 85.3807C49.0922 84.5571 49.4544 83.5249 49.5661 82.4214C49.7731 80.7653 49.4227 72.2917 49.53 70.6162L60.3989 73.8384C60.2469 77.3775 59.1841 85.5823 62.909 87.0344C63.5295 87.273 64.1972 87.4942 64.8981 87.7029Z" fill="#E98862"/>
<path opacity="0.52" d="M60.5503 83.6789C60.38 82.9508 60.2704 82.2001 60.2235 81.4403C60.1042 79.7063 60.1282 77.9601 60.2952 76.233C58.0861 75.8373 56.0049 74.6272 54.2881 72.7402C54.0861 73.7295 52.9762 78.0516 53.2841 78.992C53.8638 80.769 56.5935 83.6789 60.5503 83.6789Z" fill="#0C0C0C"/>
<path d="M58.3095 81.3672C54.0216 80.8571 48.8894 77.2611 48.8153 69.5363L48.7474 62.566C48.6733 54.8409 51.6705 48.5269 57.1508 48.4346C62.631 48.342 66.7874 54.5353 66.8615 62.2601L66.8909 65.3462C66.8872 66.4059 66.8291 67.464 66.7169 68.5132C66.4357 71.2892 65.9997 75.5098 64.5802 78.3652C63.2406 81.0607 61.0485 81.6934 58.3095 81.3672Z" fill="#E98862"/>
<path d="M60.2976 74.3054C61.1825 74.3586 62.0645 74.1351 62.8724 73.6528C62.8891 73.6433 62.9042 73.6296 62.9169 73.6124C62.9296 73.5952 62.9397 73.5748 62.9464 73.5524C62.9532 73.5301 62.9566 73.5062 62.9564 73.4821C62.9562 73.458 62.9524 73.4342 62.9453 73.412C62.9382 73.3898 62.9278 73.3698 62.9149 73.3529C62.9019 73.336 62.8865 73.3227 62.8697 73.3137C62.8528 73.3048 62.8348 73.3003 62.8167 73.3005C62.7985 73.3008 62.7806 73.3058 62.7639 73.3152C61.0233 74.2988 59.443 74.156 58.1937 72.8984C58.1685 72.8718 58.1424 72.8471 58.1153 72.8241C58.0839 72.8045 58.048 72.8013 58.0149 72.8151C57.9818 72.8289 57.9538 72.8587 57.9364 72.8986C57.9191 72.9386 57.9137 72.9857 57.9213 73.0307C57.929 73.0756 57.9491 73.1151 57.9776 73.1414C57.9876 73.1499 58.0039 73.1668 58.0254 73.1896C58.6821 73.8536 59.4734 74.2422 60.2976 74.3054Z" fill="#0C0C0C"/>
<path d="M60.2569 76.0465C60.4168 76.0594 60.5772 76.0543 60.7364 76.0312C60.7722 76.0248 60.8046 76.0002 60.8268 75.9625C60.8491 75.9249 60.8594 75.8772 60.8555 75.8297C60.8517 75.7821 60.8341 75.7384 60.8063 75.7078C60.7786 75.6773 60.743 75.6623 60.707 75.6661C59.7494 75.8012 59.2921 75.2187 59.2727 75.194C59.2466 75.1611 59.2118 75.143 59.1758 75.1436C59.1397 75.1442 59.1053 75.1634 59.0798 75.1971C59.0543 75.2309 59.0397 75.2765 59.0391 75.3243C59.0385 75.3721 59.052 75.4184 59.0767 75.4532C59.4067 75.8259 59.8237 76.0355 60.2569 76.0465Z" fill="#0C0C0C"/>
<path d="M65.0501 66.831C65.4229 66.831 65.7252 66.4298 65.7252 65.935C65.7252 65.4402 65.4229 65.0391 65.0501 65.0391C64.6772 65.0391 64.375 65.4402 64.375 65.935C64.375 66.4298 64.6772 66.831 65.0501 66.831Z" fill="#0C0C0C"/>
<path d="M58.4563 66.2812C58.8292 66.2812 59.1314 65.8801 59.1314 65.3852C59.1314 64.8904 58.8292 64.4893 58.4563 64.4893C58.0835 64.4893 57.7812 64.8904 57.7812 65.3852C57.7812 65.8801 58.0835 66.2812 58.4563 66.2812Z" fill="#0C0C0C"/>
<path d="M49.1773 71.8832C47.5121 71.9115 46.1392 69.5694 46.1174 67.3593C46.0957 65.1492 47.4349 63.9071 49.1003 63.8789L49.9726 65.3456L50.6087 71.8591L49.1773 71.8832Z" fill="#E98862"/>
<path d="M50.833 68.3317C50.833 68.3317 51.3953 57.4009 53.8929 56.7261C55.5562 56.2765 59.5897 59.4076 63.3258 58.4622C64.9602 58.0497 66.5119 58.5853 66.6696 59.61C66.7323 60.0158 67.7504 54.1848 65.1909 49.7605C63.153 46.2388 56.4842 45.2426 53.4501 46.3975C45.049 49.5958 48.7562 64.3601 48.7562 64.3601L49.1307 68.1286L50.833 68.3317Z" fill="#0C0C0C"/>
<path d="M61.3044 71.7272H61.315C61.8516 71.7199 62.7514 71.6285 62.7478 71.0955C62.7442 70.6542 61.7974 65.9003 61.6893 65.3596C61.68 65.3131 61.6572 65.2734 61.6258 65.2492C61.5945 65.225 61.5572 65.2183 61.5221 65.2307C61.487 65.243 61.4571 65.2733 61.4389 65.3149C61.4206 65.3565 61.4156 65.4061 61.4249 65.4526C61.8456 67.558 62.472 70.7992 62.4743 71.0999C62.4225 71.2269 61.8681 71.3573 61.3126 71.3649C61.277 71.3649 61.2428 71.3832 61.2173 71.4161C61.1918 71.449 61.1769 71.4938 61.1758 71.541C61.1748 71.5881 61.1876 71.634 61.2116 71.6688C61.2356 71.7037 61.2689 71.7247 61.3044 71.7275V71.7272Z" fill="#0C0C0C"/>
<path d="M63.1345 61.0772C63.6986 60.8714 64.294 60.8714 64.8581 61.0772C65.1351 61.1763 65.3994 61.3298 65.6421 61.5328C65.882 61.7318 66.102 61.9701 66.2969 62.2422C66.3328 62.2907 66.3533 62.3557 66.3541 62.4237C66.3548 62.4917 66.3358 62.5575 66.3009 62.6073C66.2661 62.6572 66.2181 62.6873 66.1669 62.6914C66.1158 62.6955 66.0654 62.6732 66.0263 62.6293L66.0143 62.6153C65.8338 62.3936 65.6331 62.203 65.4167 62.0477C65.2044 61.8935 64.9758 61.7828 64.7385 61.7193C64.2715 61.5895 63.7869 61.6254 63.3336 61.8234L63.3148 61.8323C63.2777 61.8497 63.2385 61.8572 63.1993 61.8544C63.1601 61.8517 63.1216 61.8387 63.0862 61.8162C63.0508 61.7938 63.019 61.7623 62.9927 61.7235C62.9665 61.6848 62.9462 61.6395 62.9331 61.5904C62.92 61.5412 62.9144 61.4892 62.9164 61.4371C62.9185 61.3851 62.9283 61.3341 62.9452 61.287C62.9621 61.24 62.9859 61.1978 63.0151 61.163C63.0443 61.1281 63.0784 61.1012 63.1154 61.0839C63.1218 61.082 63.1285 61.0794 63.1345 61.0772Z" fill="#0C0C0C"/>
<path d="M59.1408 61.528C58.7115 61.2512 58.2348 61.1298 57.7588 61.1761C57.5173 61.197 57.2797 61.2663 57.0538 61.3817C56.8241 61.4975 56.6062 61.6511 56.4053 61.8389L56.3924 61.85C56.3493 61.8887 56.2965 61.9035 56.2453 61.8911C56.1941 61.8787 56.1486 61.8402 56.1186 61.7839C56.0885 61.7275 56.0763 61.6578 56.0845 61.5896C56.0928 61.5214 56.1208 61.4602 56.1627 61.4192C56.3831 61.1838 56.6251 60.9864 56.8829 60.8316C57.1439 60.6734 57.4212 60.5679 57.7057 60.5188C58.2854 60.4143 58.8755 60.5193 59.414 60.8227C59.4869 60.8648 59.5442 60.9436 59.5734 61.0417C59.6025 61.1399 59.6011 61.2494 59.5694 61.3462C59.5377 61.443 59.4783 61.5191 59.4043 61.5577C59.3304 61.5964 59.2479 61.5945 59.1749 61.5524C59.1692 61.5492 59.1637 61.5458 59.1582 61.5419L59.1408 61.528Z" fill="#0C0C0C"/>
<path d="M62.3315 53.5528C63.5642 53.211 64.2563 50.9817 63.8772 48.5736C63.4981 46.1655 62.1914 44.4904 60.9587 44.8322C59.7259 45.1741 59.0339 47.4033 59.413 49.8114C59.7921 52.2196 61.0987 53.8946 62.3315 53.5528Z" fill="#0C0C0C"/>
<path d="M131.087 272.547C131.087 272.547 132.369 281.365 138.59 281.856C144.811 282.348 143.462 288.925 143.462 288.925H119.689V273.162L131.087 272.547Z" fill="#2A2CA8"/>
<path d="M85.862 266.98C85.862 266.98 84.0785 275.644 89.4977 279.729C94.917 283.814 91.5184 288.926 91.5184 288.926L70.1875 274.998L75.4301 260.854L85.862 266.98Z" fill="#2A2CA8"/>
<path d="M72.6503 264.533L90.6386 189.217H58.0321C51.4821 189.217 48.752 181.845 48.752 173.152C48.752 164.46 55.1908 156.84 61.7403 156.84H105.747C109.742 156.84 114.221 160.082 116.414 164.515C118.606 168.947 118.014 175.815 116.425 180.68L87.6196 273.533" fill="#262626"/>
<path opacity="0.8" d="M72.6503 264.533L90.6386 189.217H58.0321C51.4821 189.217 48.752 181.845 48.752 173.152C48.752 164.46 55.1908 156.84 61.7403 156.84H105.747C109.742 156.84 114.221 160.082 116.414 164.515C118.606 168.947 118.014 175.815 116.425 180.68L87.6196 273.533" fill="#0A0A0A"/>
<path d="M118.322 280.736L88.2444 189.217L48.7512 189.213C39.497 188.25 35.2591 181.519 35.3937 172.829C35.5266 164.248 38.8002 155.773 45.2364 155.773H98.4653C103.227 155.903 106.974 162.888 108.74 168.757L133.745 275.133" fill="#262626"/>
<path d="M32.7001 155.878C32.7001 155.878 30.9462 171.058 33.7264 179.498C37.1971 190.034 50.2082 189.213 50.2082 189.213L49.475 155.773L32.7001 155.878Z" fill="#262626"/>
<path d="M109.871 155.581L81.9742 147.908C80.8117 147.588 79.7288 146.885 78.8255 145.862C77.9223 144.84 77.2279 143.532 76.8066 142.059L65.8342 103.684C65.5053 102.534 65.3504 101.309 65.3782 100.079C65.406 98.8492 65.616 97.6387 65.9963 96.5167C66.3766 95.3946 66.9197 94.383 67.5945 93.5395C68.2694 92.696 69.0628 92.0372 69.9295 91.6007C70.7962 91.1642 71.7192 90.9585 72.6458 90.9954C73.5724 91.0323 74.4844 91.3111 75.3299 91.8158C76.1753 92.3205 76.9375 93.0413 77.5731 93.937C78.2086 94.8326 78.705 95.8857 79.0339 97.036L88.6322 130.603L112.737 137.232C112.737 137.232 110.355 155.713 109.871 155.581Z" fill="#2A2CA8"/>
<path d="M77.6054 113.429C77.2831 118.452 74.9997 149.791 74.6889 155.978H32.7179C32.4767 150.398 31.6938 126.705 30.7794 115.793C29.9064 105.38 29.5899 99.4374 30.5954 96.2013C32.3687 90.494 36.8061 88.4403 40.6283 87.7534C42.9624 87.334 46.4729 87.0332 46.4729 87.0332C46.4729 87.0332 46.77 95.0134 53.8574 95.4576C63.5054 96.0604 62.8612 87.0332 62.9088 87.0332C64.4719 87.0332 72.9797 88.5418 75.107 90.3823C78.1117 92.9813 78.9997 96.5236 79.0349 99.7778C79.0753 103.525 77.9713 107.732 77.6054 113.429Z" fill="#2A2CA8"/>
<path d="M75.9556 139.037C75.9523 139.038 75.9489 139.038 75.9456 139.037C75.914 139.034 75.8848 139.014 75.8643 138.982C75.8438 138.95 75.8338 138.908 75.8363 138.866L76.9259 121.494C76.9268 121.473 76.931 121.453 76.938 121.434C76.9451 121.415 76.955 121.399 76.967 121.385C76.9791 121.372 76.9932 121.361 77.0083 121.355C77.0234 121.349 77.0393 121.347 77.055 121.35C77.0865 121.353 77.1157 121.373 77.1361 121.405C77.1566 121.437 77.1666 121.479 77.164 121.521L76.0747 138.893C76.072 138.932 76.0584 138.969 76.0363 138.996C76.0143 139.022 75.9855 139.037 75.9556 139.037Z" fill="#0C0C0C"/>
<path d="M95.9457 149.462L105.155 111.89C105.317 111.23 105.632 110.655 106.055 110.247C106.479 109.839 106.988 109.619 107.511 109.619H145.031C145.422 109.619 145.808 109.742 146.156 109.978C146.504 110.213 146.806 110.555 147.036 110.975C147.266 111.395 147.417 111.881 147.478 112.394C147.539 112.907 147.508 113.431 147.387 113.925L138.178 151.497C138.016 152.157 137.701 152.732 137.278 153.14C136.854 153.548 136.345 153.768 135.821 153.768H98.3013C97.9103 153.768 97.5248 153.645 97.1765 153.409C96.8281 153.173 96.5268 152.831 96.297 152.412C96.0673 151.992 95.9157 151.505 95.8546 150.993C95.7936 150.48 95.8248 149.956 95.9457 149.462Z" fill="#292A2E"/>
<path d="M95.9457 149.462L105.155 111.89C105.317 111.23 105.632 110.655 106.055 110.247C106.479 109.839 106.988 109.619 107.511 109.619H145.031C145.422 109.619 145.808 109.742 146.156 109.978C146.504 110.213 146.806 110.555 147.036 110.975C147.266 111.395 147.417 111.881 147.478 112.394C147.539 112.907 147.508 113.431 147.387 113.925L138.178 151.497C138.016 152.157 137.701 152.732 137.278 153.14C136.854 153.548 136.345 153.768 135.821 153.768H98.3013C97.9103 153.768 97.5248 153.645 97.1765 153.409C96.8281 153.173 96.5268 152.831 96.297 152.412C96.0673 151.992 95.9157 151.505 95.8546 150.993C95.7936 150.48 95.8248 149.956 95.9457 149.462Z" fill="#292A2E"/>
<path d="M103.46 150.722H78.344C77.7182 150.722 77.2109 151.395 77.2109 152.226V152.264C77.2109 153.095 77.7182 153.768 78.344 153.768H103.46C104.085 153.768 104.593 153.095 104.593 152.264V152.226C104.593 151.395 104.085 150.722 103.46 150.722Z" fill="#292A2E"/>
<path d="M103.46 150.722H78.344C77.7182 150.722 77.2109 151.395 77.2109 152.226V152.264C77.2109 153.095 77.7182 153.768 78.344 153.768H103.46C104.085 153.768 104.593 153.095 104.593 152.264V152.226C104.593 151.395 104.085 150.722 103.46 150.722Z" fill="#292A2E"/>
<path d="M121.667 138.749C123.841 138.749 125.602 136.411 125.602 133.526C125.602 130.642 123.841 128.304 121.667 128.304C119.494 128.304 117.732 130.642 117.732 133.526C117.732 136.411 119.494 138.749 121.667 138.749Z" fill="white"/>
<path d="M93.8479 140.661L87.5795 137.746L88.4795 137.663C88.7696 137.629 89.039 137.45 89.2333 137.162C89.4277 136.874 89.5324 136.499 89.5263 136.113C89.518 135.913 89.4792 135.718 89.4122 135.54C89.3453 135.361 89.2516 135.202 89.1368 135.073C89.0221 134.944 88.8888 134.847 88.745 134.789C88.6012 134.731 88.45 134.712 88.3005 134.733L77.2109 136.297L77.4978 141.027C77.5873 142.496 78.0053 143.896 78.6983 145.048C79.3912 146.2 80.3275 147.05 81.3872 147.491L86.1894 149.477C86.4375 149.586 86.7064 149.579 86.9507 149.455C87.1951 149.332 87.3998 149.1 87.5303 148.8C87.6438 148.525 87.6881 148.209 87.6568 147.899C87.6256 147.588 87.5203 147.299 87.3565 147.074C87.3671 147.064 87.376 147.051 87.3828 147.036C87.3895 147.021 87.3939 147.005 87.3957 146.988C87.3975 146.971 87.3966 146.953 87.3932 146.937C87.3897 146.92 87.3837 146.904 87.3756 146.891L88.2601 147.259C88.5362 147.382 88.8372 147.362 89.1022 147.201C89.3673 147.041 89.5766 146.754 89.6879 146.396C89.7789 146.072 89.7808 145.716 89.6933 145.391C89.6059 145.065 89.4347 144.791 89.2098 144.616C89.2202 144.608 89.2294 144.599 89.2371 144.587L89.6009 144.738C89.849 144.848 90.1179 144.84 90.3622 144.717C90.6066 144.594 90.8113 144.362 90.9418 144.061C91.0795 143.728 91.1145 143.337 91.0396 142.97C90.9647 142.603 90.7856 142.288 90.5399 142.093C90.5419 142.083 90.5431 142.073 90.5435 142.063L93.1537 143.277C93.4151 143.399 93.7021 143.378 93.9517 143.218C94.2013 143.059 94.393 142.775 94.4846 142.428C94.5762 142.081 94.5603 141.7 94.4402 141.369C94.3202 141.037 94.1059 140.783 93.8446 140.661H93.8479Z" fill="#E98862"/>
<path opacity="0.2" d="M90.4453 142.198C90.4331 142.198 90.4211 142.195 90.4097 142.19L87.8846 140.973C87.8587 140.96 87.8376 140.934 87.826 140.901C87.8144 140.868 87.8133 140.83 87.8228 140.796C87.8323 140.761 87.8517 140.733 87.8767 140.718C87.9018 140.702 87.9304 140.701 87.9563 140.714L90.4811 141.932C90.5041 141.943 90.5235 141.964 90.5357 141.992C90.548 142.021 90.5524 142.053 90.5481 142.085C90.5439 142.117 90.5313 142.146 90.5126 142.167C90.4939 142.188 90.4702 142.2 90.4458 142.2L90.4453 142.198Z" fill="#0A0A0A"/>
<path opacity="0.2" d="M89.1684 144.635C89.1566 144.635 89.1449 144.632 89.1338 144.627L87.1434 143.69C87.1306 143.684 87.1187 143.675 87.1086 143.662C87.0984 143.65 87.0902 143.636 87.0843 143.619C87.0785 143.603 87.0751 143.585 87.0744 143.567C87.0737 143.549 87.0756 143.531 87.0802 143.514C87.0848 143.497 87.0918 143.481 87.101 143.467C87.1101 143.454 87.1212 143.443 87.1335 143.435C87.1458 143.427 87.1592 143.423 87.1729 143.422C87.1865 143.421 87.2001 143.424 87.213 143.43L89.2033 144.367C89.2265 144.378 89.2459 144.399 89.2583 144.427C89.2707 144.456 89.2752 144.489 89.2711 144.521C89.2669 144.553 89.2543 144.582 89.2355 144.603C89.2167 144.624 89.193 144.635 89.1684 144.635Z" fill="#0A0A0A"/>
<path opacity="0.2" d="M87.2947 147.107C87.2819 147.107 87.2693 147.104 87.2574 147.098L86.3251 146.626C86.3118 146.621 86.2995 146.611 86.289 146.599C86.2785 146.586 86.2699 146.571 86.2639 146.555C86.2579 146.538 86.2545 146.519 86.254 146.501C86.2534 146.482 86.2557 146.464 86.2607 146.446C86.2658 146.429 86.2734 146.413 86.2831 146.4C86.2929 146.386 86.3046 146.375 86.3175 146.368C86.3305 146.361 86.3444 146.357 86.3584 146.357C86.3724 146.358 86.3863 146.361 86.3992 146.369L87.3315 146.841C87.3542 146.852 87.373 146.874 87.3849 146.902C87.3968 146.93 87.4008 146.963 87.3964 146.994C87.392 147.026 87.3794 147.055 87.3608 147.075C87.3422 147.096 87.3187 147.107 87.2945 147.107H87.2947Z" fill="#0A0A0A"/>
<path d="M82.1181 133.498L55.8225 133.474L45.8749 101.268L31.0352 109.548L43.4469 147.772L43.5683 148.153C44.1755 150.011 45.1983 151.576 46.4982 152.637C47.7981 153.698 49.3122 154.203 50.8355 154.083L82.5163 151.599L82.1181 133.498Z" fill="#2A2CA8"/>
<path d="M50.3998 154.258C48.9257 154.254 47.4842 153.681 46.2515 152.608C45.0189 151.535 44.0485 150.008 43.459 148.215L43.3373 147.834L32.7617 115.264L32.9812 115.139L43.6787 148.09C44.279 149.915 45.286 151.453 46.5643 152.496C47.8426 153.539 49.3308 154.037 50.8289 153.924L82.3938 151.449L82.0027 133.656L55.7433 133.633L48.0937 108.869L48.3148 108.749L55.9032 133.316L82.2344 133.339L82.6391 151.748L82.5232 151.757L50.8425 154.241C50.6946 154.252 50.5471 154.258 50.3998 154.258Z" fill="#0C0C0C"/>
<path d="M208.433 156.809L207.957 156.873L218.035 289.284L218.51 289.22L208.433 156.809Z" fill="#494949"/>
<path d="M21.1511 156.812L11.0664 289.222L11.5421 289.285L21.6268 156.875L21.1511 156.812Z" fill="#494949"/>
<path d="M62.8171 156.812L52.7324 289.222L53.2081 289.285L63.2928 156.875L62.8171 156.812Z" fill="#494949"/>
<path d="M250.097 156.809L249.621 156.873L259.699 289.284L260.174 289.22L250.097 156.809Z" fill="#494949"/>
<path d="M259.186 154.242H12.7244C11.6426 154.242 10.7656 155.406 10.7656 156.842C10.7656 158.277 11.6426 159.441 12.7244 159.441H259.186C260.268 159.441 261.145 158.277 261.145 156.842C261.145 155.406 260.268 154.242 259.186 154.242Z" fill="#292A2E"/>
<path opacity="0.8" d="M259.186 154.242H12.7244C11.6426 154.242 10.7656 155.406 10.7656 156.842C10.7656 158.277 11.6426 159.441 12.7244 159.441H259.186C260.268 159.441 261.145 158.277 261.145 156.842C261.145 155.406 260.268 154.242 259.186 154.242Z" fill="white"/>
<path d="M259.186 159.759H12.7247C12.4341 159.763 12.1459 159.69 11.8766 159.545C11.6073 159.401 11.3623 159.186 11.1558 158.915C10.9492 158.644 10.7853 158.321 10.6734 157.965C10.5615 157.609 10.5039 157.227 10.5039 156.842C10.5039 156.456 10.5615 156.074 10.6734 155.718C10.7853 155.363 10.9492 155.04 11.1558 154.768C11.3623 154.497 11.6073 154.283 11.8766 154.138C12.1459 153.993 12.4341 153.921 12.7247 153.925H259.186C259.765 153.933 260.318 154.244 260.725 154.79C261.132 155.336 261.361 156.073 261.361 156.842C261.361 157.61 261.132 158.347 260.725 158.894C260.318 159.44 259.765 159.751 259.186 159.759ZM12.7247 154.559C12.4971 154.556 12.2713 154.612 12.0603 154.725C11.8494 154.839 11.6574 155.006 11.4955 155.218C11.3337 155.431 11.2052 155.683 11.1175 155.962C11.0298 156.241 10.9847 156.54 10.9847 156.842C10.9847 157.144 11.0298 157.443 11.1175 157.721C11.2052 158 11.3337 158.253 11.4955 158.465C11.6574 158.677 11.8494 158.845 12.0603 158.958C12.2713 159.071 12.4971 159.128 12.7247 159.124H259.186C259.638 159.117 260.07 158.873 260.389 158.446C260.707 158.019 260.885 157.442 260.885 156.842C260.885 156.241 260.707 155.665 260.389 155.237C260.07 154.81 259.638 154.567 259.186 154.559H12.7247Z" fill="#292A2E"/>
<path d="M259.187 154.242H55.9842C54.9024 154.242 54.0254 155.406 54.0254 156.842C54.0254 158.277 54.9024 159.441 55.9842 159.441H259.187C260.269 159.441 261.146 158.277 261.146 156.842C261.146 155.406 260.269 154.242 259.187 154.242Z" fill="white"/>
<path d="M259.187 159.758H55.9835C55.4046 159.75 54.8515 159.44 54.4442 158.893C54.037 158.347 53.8086 157.61 53.8086 156.842C53.8086 156.073 54.037 155.336 54.4442 154.79C54.8515 154.244 55.4046 153.933 55.9835 153.925H259.187C259.766 153.933 260.319 154.244 260.726 154.79C261.133 155.336 261.362 156.073 261.362 156.842C261.362 157.61 261.133 158.347 260.726 158.893C260.319 159.44 259.766 159.75 259.187 159.758ZM55.9835 154.559C55.5309 154.566 55.0987 154.81 54.7806 155.237C54.4625 155.664 54.2841 156.241 54.2841 156.842C54.2841 157.442 54.4625 158.019 54.7806 158.446C55.0987 158.873 55.5309 159.117 55.9835 159.124H259.187C259.639 159.117 260.072 158.873 260.39 158.446C260.708 158.019 260.886 157.442 260.886 156.842C260.886 156.241 260.708 155.664 260.39 155.237C260.072 154.81 259.639 154.566 259.187 154.559H55.9835Z" fill="#292A2E"/>
</svg>
